<svg version="1.1" id="Layer_1" xmlns="http://www.w3.org/2000/svg" xmlns:xlink="http://www.w3.org/1999/xlink"
	 viewBox="0 0 128 128" style="enable-background:new 0 0 128 128;" xml:space="preserve">
<path d="M110.7,19H17.3C10,19,4,25,4,32.3v63.3C4,103,10,109,17.3,109h93.3c7.3,0,13.3-6,13.3-13.3V32.3C124,25,118,19,110.7,19z
	 M119,94.3c0,6.7-3,9.7-9.7,9.7H18.7C12,104,9,101,9,94.3V33.7C9,27,12,24,18.7,24h90.6c6.7,0,9.7,3,9.7,9.7V94.3z M41.5,54L54,64
	l32.5-27.5l25,22.5v37.5h-95V74L41.5,54z M26.5,31.5c-5.5,0-10,4.5-10,10s4.5,10,10,10s10-4.5,10-10S32,31.5,26.5,31.5z"/>
</svg>
