<?xml version="1.0" encoding="utf-8"?>
<!-- Generator: Adobe Illustrator 27.1.1, SVG Export Plug-In . SVG Version: 6.00 Build 0)  -->
<!DOCTYPE svg PUBLIC "-//W3C//DTD SVG 1.1//EN" "http://www.w3.org/Graphics/SVG/1.1/DTD/svg11.dtd" [
	<!ENTITY ns_extend "http://ns.adobe.com/Extensibility/1.0/">
	<!ENTITY ns_ai "http://ns.adobe.com/AdobeIllustrator/10.0/">
	<!ENTITY ns_graphs "http://ns.adobe.com/Graphs/1.0/">
	<!ENTITY ns_vars "http://ns.adobe.com/Variables/1.0/">
	<!ENTITY ns_imrep "http://ns.adobe.com/ImageReplacement/1.0/">
	<!ENTITY ns_sfw "http://ns.adobe.com/SaveForWeb/1.0/">
	<!ENTITY ns_custom "http://ns.adobe.com/GenericCustomNamespace/1.0/">
	<!ENTITY ns_adobe_xpath "http://ns.adobe.com/XPath/1.0/">
]>
<svg version="1.1" id="Layer_1" xmlns:x="&ns_extend;" xmlns:i="&ns_ai;" xmlns:graph="&ns_graphs;"
	 xmlns="http://www.w3.org/2000/svg" xmlns:xlink="http://www.w3.org/1999/xlink" x="0px" y="0px" viewBox="0 0 128 128"
	 style="enable-background:new 0 0 128 128;" xml:space="preserve">
<style type="text/css">
	.st0{fill:#FFCC00;}
	.st1{fill:url(#XMLID_00000077315896472261181160000004974222376343664280_);}
	.st2{fill:url(#XMLID_00000077305879870056578000000015804354767145274276_);}
	.st3{fill:url(#XMLID_00000131362115739522243860000017876814016204757400_);}
	.st4{fill:url(#XMLID_00000015341122172982721390000009038632473838527364_);}
	.st5{fill:url(#XMLID_00000103263204402483624760000003084403210534794661_);}
	.st6{fill:url(#XMLID_00000183217603846777219720000016699198870472371115_);}
	.st7{fill:url(#XMLID_00000176747339412867049240000016285517967074499473_);}
	.st8{fill:url(#XMLID_00000099646143789957199740000017001739372841770391_);}
	.st9{fill:url(#XMLID_00000065052429258590119640000004205308232115070633_);}
	.st10{fill:url(#XMLID_00000007386990271180782500000018291446803539724424_);}
	.st11{fill:url(#XMLID_00000070831706371653179260000016771264991193186735_);}
	.st12{fill:url(#XMLID_00000115508631641753594100000014907355162808622754_);}
	.st13{fill:url(#XMLID_00000116945380389090840250000017407833645138266805_);}
	.st14{fill:url(#XMLID_00000140012290364691538220000017873370861084085647_);}
	.st15{fill:url(#XMLID_00000103977681817650022220000014081761651410526363_);}
	.st16{fill:url(#XMLID_00000142158437395812033860000003614539427730233736_);}
	.st17{fill:url(#XMLID_00000005950452433418680910000008416714836926191038_);}
	.st18{fill:url(#XMLID_00000133496305401397985610000004356235908175020677_);}
	.st19{fill:url(#XMLID_00000145776554898058444460000015361002531112705411_);}
	.st20{fill:url(#XMLID_00000070817396050523163470000004443712195948762039_);}
</style>
<metadata>
	<sfw  xmlns="&ns_sfw;">
		<slices></slices>
		<sliceSourceBounds  bottomLeftOrigin="true" height="105" width="110" x="9" y="8"></sliceSourceBounds>
	</sfw>
</metadata>
<g>
	<ellipse id="XMLID_3964_" class="st0" cx="88" cy="40" rx="25" ry="25"/>
	
		<linearGradient id="XMLID_00000036934933307052903600000014168077724590948269_" gradientUnits="userSpaceOnUse" x1="86.73" y1="68.49" x2="86.73" y2="110.05" gradientTransform="matrix(1 0 0 -1 0 128)">
		<stop  offset="0" style="stop-color:#FFCC00"/>
		<stop  offset="1" style="stop-color:#FFFFFF"/>
	</linearGradient>
	
		<circle id="XMLID_3963_" style="fill:url(#XMLID_00000036934933307052903600000014168077724590948269_);" cx="86.7" cy="38.7" r="20.8"/>
</g>
<g>
	<g>
		<g>
			
				<linearGradient id="XMLID_00000152968837199953004570000005705939507751661452_" gradientUnits="userSpaceOnUse" x1="236.7322" y1="-439.0425" x2="236.7322" y2="-426.0672" gradientTransform="matrix(0.9072 0.4206 0.4206 -0.9072 2.0485 -392.5586)">
				<stop  offset="0" style="stop-color:#96B9CC"/>
				<stop  offset="1" style="stop-color:#E6E6E6"/>
			</linearGradient>
			<path id="XMLID_3528_" style="fill:url(#XMLID_00000152968837199953004570000005705939507751661452_);" d="M37.6,93.5
				c0,0,1.2,14.8-5.5,11.8S37.6,93.5,37.6,93.5z"/>
			
				<linearGradient id="XMLID_00000023274040638004943520000012300300378045704852_" gradientUnits="userSpaceOnUse" x1="236.5453" y1="-437.1444" x2="236.5453" y2="-427.2249" gradientTransform="matrix(0.9072 0.4206 0.4206 -0.9072 2.0485 -392.5586)">
				<stop  offset="0" style="stop-color:#96B9CC"/>
				<stop  offset="1" style="stop-color:#E6E6E6"/>
			</linearGradient>
			<path id="XMLID_3527_" style="fill:url(#XMLID_00000023274040638004943520000012300300378045704852_);" d="M37,94.5
				c0,0,0.9,11.3-4.2,9S37,94.5,37,94.5z"/>
		</g>
		<g>
			
				<linearGradient id="XMLID_00000142883392416533803560000016905587725613553293_" gradientUnits="userSpaceOnUse" x1="282.2241" y1="-417.9518" x2="282.2241" y2="-404.9766" gradientTransform="matrix(0.9072 0.4206 0.4206 -0.9072 2.0485 -392.5586)">
				<stop  offset="0" style="stop-color:#96B9CC"/>
				<stop  offset="1" style="stop-color:#E6E6E6"/>
			</linearGradient>
			<path id="XMLID_3519_" style="fill:url(#XMLID_00000142883392416533803560000016905587725613553293_);" d="M87.8,93.5
				c0,0,1.2,14.8-5.5,11.8C75.7,102.2,87.8,93.5,87.8,93.5z"/>
			
				<linearGradient id="XMLID_00000096766771263480504050000008641781755114224805_" gradientUnits="userSpaceOnUse" x1="282.0361" y1="-416.0538" x2="282.0361" y2="-406.1342" gradientTransform="matrix(0.9072 0.4206 0.4206 -0.9072 2.0485 -392.5586)">
				<stop  offset="0" style="stop-color:#96B9CC"/>
				<stop  offset="1" style="stop-color:#E6E6E6"/>
			</linearGradient>
			<path id="XMLID_3518_" style="fill:url(#XMLID_00000096766771263480504050000008641781755114224805_);" d="M87.1,94.5
				c0,0,0.9,11.3-4.2,9S87.1,94.5,87.1,94.5z"/>
		</g>
	</g>
	<g>
		<g>
			
				<linearGradient id="XMLID_00000122706541478809567710000004194570769809161917_" gradientUnits="userSpaceOnUse" x1="251.873" y1="-447.7535" x2="251.873" y2="-434.7782" gradientTransform="matrix(0.9072 0.4206 0.4206 -0.9072 2.0485 -392.5586)">
				<stop  offset="0" style="stop-color:#96B9CC"/>
				<stop  offset="1" style="stop-color:#E6E6E6"/>
			</linearGradient>
			<path id="XMLID_3512_" style="fill:url(#XMLID_00000122706541478809567710000004194570769809161917_);" d="M47.7,107.8
				c0,0,1.2,14.8-5.5,11.8C35.6,116.5,47.7,107.8,47.7,107.8z"/>
			
				<linearGradient id="XMLID_00000000930400945839787130000013843388380673874103_" gradientUnits="userSpaceOnUse" x1="251.6882" y1="-445.8645" x2="251.6882" y2="-435.945" gradientTransform="matrix(0.9072 0.4206 0.4206 -0.9072 2.0485 -392.5586)">
				<stop  offset="0" style="stop-color:#96B9CC"/>
				<stop  offset="1" style="stop-color:#E6E6E6"/>
			</linearGradient>
			<path id="XMLID_3511_" style="fill:url(#XMLID_00000000930400945839787130000013843388380673874103_);" d="M47,108.8
				c0,0,0.9,11.3-4.2,9S47,108.8,47,108.8z"/>
		</g>
		<g>
			
				<linearGradient id="XMLID_00000165223470058478283280000013510753514360429731_" gradientUnits="userSpaceOnUse" x1="270.0568" y1="-439.324" x2="270.0568" y2="-426.3487" gradientTransform="matrix(0.9072 0.4206 0.4206 -0.9072 2.0485 -392.5586)">
				<stop  offset="0" style="stop-color:#96B9CC"/>
				<stop  offset="1" style="stop-color:#E6E6E6"/>
			</linearGradient>
			<path id="XMLID_3509_" style="fill:url(#XMLID_00000165223470058478283280000013510753514360429731_);" d="M67.7,107.8
				c0,0,1.2,14.8-5.5,11.8C55.7,116.5,67.7,107.8,67.7,107.8z"/>
			
				<linearGradient id="XMLID_00000132078197941149385510000013411158934144320141_" gradientUnits="userSpaceOnUse" x1="269.8791" y1="-437.4308" x2="269.8791" y2="-427.5113" gradientTransform="matrix(0.9072 0.4206 0.4206 -0.9072 2.0485 -392.5586)">
				<stop  offset="0" style="stop-color:#96B9CC"/>
				<stop  offset="1" style="stop-color:#E6E6E6"/>
			</linearGradient>
			<path id="XMLID_3508_" style="fill:url(#XMLID_00000132078197941149385510000013411158934144320141_);" d="M67.1,108.8
				c0,0,0.9,11.3-4.2,9C57.8,115.4,67.1,108.8,67.1,108.8z"/>
		</g>
	</g>
	<g>
		
			<linearGradient id="XMLID_00000041998260904981063330000010856125199441809313_" gradientUnits="userSpaceOnUse" x1="64.0011" y1="38.386" x2="64.0011" y2="87.4543" gradientTransform="matrix(1 0 0 -1 0 128)">
			<stop  offset="0" style="stop-color:#96B9CC"/>
			<stop  offset="1" style="stop-color:#E6E6E6"/>
		</linearGradient>
		<path id="XMLID_3488_" style="fill:url(#XMLID_00000041998260904981063330000010856125199441809313_);" d="M100.1,89.6H26
			c0,0-17,0.6-17-13.6c0-14.2,18.7-11.9,18.7-11.9S29.3,47,46.3,50.8c13.4-18.5,32.8-8.1,36.7,2c0,0,23.9-9.3,24.4,15.6
			C120.7,66.2,127.4,89.6,100.1,89.6z"/>
		
			<linearGradient id="XMLID_00000087387601713666480310000012332582512298783410_" gradientUnits="userSpaceOnUse" x1="23.56" y1="40.26" x2="23.56" y2="60.16" gradientTransform="matrix(1 0 0 -1 0 128)">
			<stop  offset="0" style="stop-color:#96B9CC"/>
			<stop  offset="1" style="stop-color:#E6E6E6"/>
		</linearGradient>
		
			<ellipse id="XMLID_3487_" style="fill:url(#XMLID_00000087387601713666480310000012332582512298783410_);" cx="23.6" cy="77.8" rx="9.6" ry="9.9"/>
		
			<linearGradient id="XMLID_00000160163938164805628670000009820632079757899697_" gradientUnits="userSpaceOnUse" x1="48.36" y1="43.1" x2="48.36" y2="74.38" gradientTransform="matrix(1 0 0 -1 0 128)">
			<stop  offset="0" style="stop-color:#96B9CC"/>
			<stop  offset="1" style="stop-color:#E6E6E6"/>
		</linearGradient>
		<path id="XMLID_3486_" style="fill:url(#XMLID_00000160163938164805628670000009820632079757899697_);" d="M63.5,69.3
			c0-8.6-6.8-15.6-15.1-15.6s-15.2,7-15.2,15.6S40,84.9,48.4,84.9S63.5,77.9,63.5,69.3z"/>
		
			<linearGradient id="XMLID_00000011024648584288259710000013311964948857510329_" gradientUnits="userSpaceOnUse" x1="65.07" y1="62.47" x2="65.07" y2="85.23" gradientTransform="matrix(1 0 0 -1 0 128)">
			<stop  offset="0" style="stop-color:#96B9CC"/>
			<stop  offset="1" style="stop-color:#E6E6E6"/>
		</linearGradient>
		
			<ellipse id="XMLID_3485_" style="fill:url(#XMLID_00000011024648584288259710000013311964948857510329_);" cx="65.1" cy="54.2" rx="11" ry="11.4"/>
		
			<linearGradient id="XMLID_00000060719388634484748910000002258188273677469368_" gradientUnits="userSpaceOnUse" x1="82.11" y1="52.87" x2="82.11" y2="72.07" gradientTransform="matrix(1 0 0 -1 0 128)">
			<stop  offset="0" style="stop-color:#96B9CC"/>
			<stop  offset="1" style="stop-color:#E6E6E6"/>
		</linearGradient>
		<path id="XMLID_3484_" style="fill:url(#XMLID_00000060719388634484748910000002258188273677469368_);" d="M91.4,65.5
			c0-5.3-4.2-9.6-9.3-9.6s-9.3,4.3-9.3,9.6s4.2,9.6,9.3,9.6S91.4,70.8,91.4,65.5z"/>
		
			<linearGradient id="XMLID_00000071556926651232444110000010334809738268664755_" gradientUnits="userSpaceOnUse" x1="64" y1="44.66" x2="64" y2="72.82" gradientTransform="matrix(1 0 0 -1 0 128)">
			<stop  offset="0" style="stop-color:#96B9CC"/>
			<stop  offset="1" style="stop-color:#E6E6E6"/>
		</linearGradient>
		<path id="XMLID_3483_" style="fill:url(#XMLID_00000071556926651232444110000010334809738268664755_);" d="M77.6,69.3
			c0-7.8-6.1-14.1-13.6-14.1s-13.6,6.3-13.6,14.1S56.5,83.3,64,83.3S77.6,77,77.6,69.3z"/>
		
			<linearGradient id="XMLID_00000129886881609136065230000004604521866752626349_" gradientUnits="userSpaceOnUse" x1="35.54" y1="42.92" x2="35.54" y2="62.82" gradientTransform="matrix(1 0 0 -1 0 128)">
			<stop  offset="0" style="stop-color:#96B9CC"/>
			<stop  offset="1" style="stop-color:#E6E6E6"/>
		</linearGradient>
		<path id="XMLID_3482_" style="fill:url(#XMLID_00000129886881609136065230000004604521866752626349_);" d="M45.2,75.1
			c0-5.5-4.3-9.9-9.6-9.9c-5.3,0-9.6,4.5-9.6,9.9c0,5.5,4.3,9.9,9.6,9.9C40.9,85.1,45.2,80.6,45.2,75.1z"/>
		
			<linearGradient id="XMLID_00000085942340902717974580000015429240892559473829_" gradientUnits="userSpaceOnUse" x1="81.77" y1="42.03" x2="81.77" y2="63.71" gradientTransform="matrix(1 0 0 -1 0 128)">
			<stop  offset="0" style="stop-color:#96B9CC"/>
			<stop  offset="1" style="stop-color:#E6E6E6"/>
		</linearGradient>
		<path id="XMLID_3481_" style="fill:url(#XMLID_00000085942340902717974580000015429240892559473829_);" d="M92.3,75.1
			c0-6-4.7-10.8-10.5-10.8s-10.5,4.9-10.5,10.8c0,6,4.7,10.8,10.5,10.8S92.3,81.1,92.3,75.1z"/>
		
			<linearGradient id="XMLID_00000165915362340374439960000006866562426517173684_" gradientUnits="userSpaceOnUse" x1="91.41" y1="45.94" x2="91.41" y2="71.54" gradientTransform="matrix(1 0 0 -1 0 128)">
			<stop  offset="0" style="stop-color:#96B9CC"/>
			<stop  offset="1" style="stop-color:#E6E6E6"/>
		</linearGradient>
		<path id="XMLID_3480_" style="fill:url(#XMLID_00000165915362340374439960000006866562426517173684_);" d="M103.8,69.3
			c0-7.1-5.6-12.8-12.4-12.8S79,62.2,79,69.3s5.6,12.8,12.4,12.8C98.3,82.1,103.8,76.3,103.8,69.3z"/>
		
			<linearGradient id="XMLID_00000107552843569000206540000008064429383614761899_" gradientUnits="userSpaceOnUse" x1="105.53" y1="42.39" x2="105.53" y2="58.03" gradientTransform="matrix(1 0 0 -1 0 128)">
			<stop  offset="0" style="stop-color:#96B9CC"/>
			<stop  offset="1" style="stop-color:#E6E6E6"/>
		</linearGradient>
		<path id="XMLID_3479_" style="fill:url(#XMLID_00000107552843569000206540000008064429383614761899_);" d="M113.1,77.8
			c0-4.3-3.4-7.8-7.6-7.8s-7.6,3.5-7.6,7.8s3.4,7.8,7.6,7.8S113.1,82.1,113.1,77.8z"/>
	</g>
	<g>
		<path id="XMLID_3477_" class="st0" d="M77.5,78.4c0,0-26,19.7-26.8,21.6c-0.8,1.9,0.8,2.2,2.2,2.2s12.2,0,12.2,0L54,116.7
			c0,0,16.4-14.3,18-15.6c1.6-1.3,1.9-4.1-1.4-4.1S61,97,61,97L77.5,78.4z"/>
		
			<linearGradient id="XMLID_00000036212207722590009330000001869468230193675400_" gradientUnits="userSpaceOnUse" x1="64.5331" y1="11.26" x2="64.5331" y2="49.62" gradientTransform="matrix(1 0 0 -1 0 128)">
			<stop  offset="0" style="stop-color:#FFCC00"/>
			<stop  offset="1" style="stop-color:#FFFFFF"/>
		</linearGradient>
		<path id="XMLID_3476_" style="fill:url(#XMLID_00000036212207722590009330000001869468230193675400_);" d="M77.5,78.4
			c0,0-24.9,18.8-25.7,20.7c-0.8,1.9,0.8,2.2,2.2,2.2s10.2,0,10.2,0L54,116.7c0,0,15.5-15.2,17.1-16.5c1.6-1.3,1.1-3.2-2.2-3.2
			c-3.3,0-9.5,0-9.5,0L77.5,78.4z"/>
	</g>
</g>
</svg>
