<?xml version="1.0" encoding="utf-8"?>
<!-- Generator: Adobe Illustrator 27.1.1, SVG Export Plug-In . SVG Version: 6.00 Build 0)  -->
<!DOCTYPE svg PUBLIC "-//W3C//DTD SVG 1.1//EN" "http://www.w3.org/Graphics/SVG/1.1/DTD/svg11.dtd" [
	<!ENTITY ns_extend "http://ns.adobe.com/Extensibility/1.0/">
	<!ENTITY ns_ai "http://ns.adobe.com/AdobeIllustrator/10.0/">
	<!ENTITY ns_graphs "http://ns.adobe.com/Graphs/1.0/">
	<!ENTITY ns_vars "http://ns.adobe.com/Variables/1.0/">
	<!ENTITY ns_imrep "http://ns.adobe.com/ImageReplacement/1.0/">
	<!ENTITY ns_sfw "http://ns.adobe.com/SaveForWeb/1.0/">
	<!ENTITY ns_custom "http://ns.adobe.com/GenericCustomNamespace/1.0/">
	<!ENTITY ns_adobe_xpath "http://ns.adobe.com/XPath/1.0/">
]>
<svg version="1.1" id="Isolation_Mode" xmlns:x="&ns_extend;" xmlns:i="&ns_ai;" xmlns:graph="&ns_graphs;"
	 xmlns="http://www.w3.org/2000/svg" xmlns:xlink="http://www.w3.org/1999/xlink" x="0px" y="0px" viewBox="0 0 128 128"
	 style="enable-background:new 0 0 128 128;" xml:space="preserve">
<style type="text/css">
	.st0{fill:url(#XMLID_00000162310891969098616120000015418419846361551242_);}
	.st1{fill:url(#XMLID_00000140705222605749458930000003712994743590414489_);}
	.st2{fill:url(#XMLID_00000132778125486282096600000010639141280153871768_);}
	.st3{fill:url(#XMLID_00000102536836077772932800000007924353115494305690_);}
	.st4{fill:url(#XMLID_00000091723043251066822020000001775940222912451504_);}
	.st5{fill:url(#XMLID_00000039829594271436921160000001731979012993312937_);}
	.st6{fill:url(#XMLID_00000085938225601278933860000012195036660572507565_);}
	.st7{fill:url(#XMLID_00000083798600592564650160000008709601332382028942_);}
	.st8{fill:url(#XMLID_00000146497811360093335820000000996621737387525266_);}
	.st9{fill:url(#XMLID_00000014619060234059565480000006886910992752723874_);}
	.st10{fill:url(#XMLID_00000084509065830932768660000015910380809845368503_);}
	.st11{fill:url(#XMLID_00000058581674846335071310000008143566674142843268_);}
	.st12{fill:url(#XMLID_00000155115531136185030150000007038396683872085671_);}
	.st13{fill:url(#XMLID_00000042008588445793357450000006377569181944538759_);}
	.st14{fill:url(#XMLID_00000159443999773529841050000011209165726846662324_);}
	.st15{fill:url(#XMLID_00000155857840469761958850000013834035982809253281_);}
	.st16{fill:url(#XMLID_00000085209518702664651710000013501507294912547200_);}
	.st17{fill:url(#XMLID_00000129166542740829101460000009324777876538762647_);}
	.st18{fill:url(#XMLID_00000162333949224381458910000010119501610700615601_);}
	.st19{fill:url(#XMLID_00000117661412204501834120000006757911282815200170_);}
	.st20{fill:url(#XMLID_00000097467814021133154220000001776021072082690446_);}
	.st21{fill:#FFFFFF;}
	.st22{fill:url(#XMLID_00000175306978717361960560000014823215036224798640_);}
	.st23{fill:url(#XMLID_00000112598683412416247600000004496151554552733087_);}
	.st24{fill:url(#XMLID_00000034787546189786639160000017347113144071278761_);}
	.st25{fill:url(#XMLID_00000049181577571952218740000016582425460322097081_);}
	.st26{fill:url(#XMLID_00000046311494404394475510000008594003321150170014_);}
	.st27{fill:url(#XMLID_00000109720709999355840790000015547439963418247868_);}
	.st28{fill:url(#XMLID_00000160168271639358257360000005925931799928035735_);}
	.st29{fill:url(#XMLID_00000160164963835030191370000008965464702557046675_);}
	.st30{fill:url(#XMLID_00000065778512363553575680000015905079744195793574_);}
	.st31{fill:url(#XMLID_00000129908603551614734500000008918395281900124815_);}
	.st32{fill:url(#XMLID_00000059271625369136328160000005686036294834643630_);}
	.st33{fill:url(#XMLID_00000084515758102809629750000012225232253012288179_);}
	.st34{fill:url(#XMLID_00000102531319956461946450000011564583101922553780_);}
	.st35{fill:url(#XMLID_00000111178931873366629000000000618749345027027334_);}
	.st36{fill:url(#XMLID_00000109720618680654401400000009446130211725311127_);}
	.st37{fill:url(#XMLID_00000170262528132380011590000005133096183794159276_);}
	.st38{fill:url(#XMLID_00000039856445232691390110000006694527897849466040_);}
	.st39{fill:url(#XMLID_00000011754071368126926760000018106525042955061132_);}
	.st40{fill:#FFCC00;}
	.st41{fill:url(#XMLID_00000150092120260360767600000000438933821008560000_);}
</style>
<metadata>
	<sfw  xmlns="&ns_sfw;">
		<slices></slices>
		<sliceSourceBounds  bottomLeftOrigin="true" height="117.8" width="110" x="9" y="8"></sliceSourceBounds>
	</sfw>
</metadata>
<g>
	<g>
		<g>
			<g>
				<g>
					
						<linearGradient id="XMLID_00000129915244438472560520000002270259358311687300_" gradientUnits="userSpaceOnUse" x1="531.6326" y1="93.21" x2="534.2795" y2="93.21" gradientTransform="matrix(1 0 0 -1 -502.9386 128)">
						<stop  offset="0" style="stop-color:#B9E5FB"/>
						<stop  offset="1" style="stop-color:#FFFFFF"/>
					</linearGradient>
					<path id="XMLID_2715_" style="fill:url(#XMLID_00000129915244438472560520000002270259358311687300_);" d="M31.3,34.8
						c0,11.1-0.6,20-1.3,20s-1.3-9-1.3-20s0.6-20,1.3-20S31.3,23.7,31.3,34.8z"/>
					
						<linearGradient id="XMLID_00000120547735050891219660000004534269949007696054_" gradientUnits="userSpaceOnUse" x1="-2275.0469" y1="1191.7164" x2="-2272.3999" y2="1191.7164" gradientTransform="matrix(4.489659e-11 -1 -1 -4.489659e-11 1221.7365 -2238.9338)">
						<stop  offset="0" style="stop-color:#B9E5FB"/>
						<stop  offset="1" style="stop-color:#FFFFFF"/>
					</linearGradient>
					<path id="XMLID_2676_" style="fill:url(#XMLID_00000120547735050891219660000004534269949007696054_);" d="M30,33.5
						c11.1,0,20,0.6,20,1.3s-9,1.3-20,1.3s-20-0.6-20-1.3S19,33.5,30,33.5z"/>
				</g>
				<g>
					
						<linearGradient id="XMLID_00000055669394251399568550000008858873763874017166_" gradientUnits="userSpaceOnUse" x1="571.5665" y1="-74.8066" x2="572.965" y2="-74.8066" gradientTransform="matrix(0.7071 -0.7071 -0.7071 -0.7071 -427.5259 386.5445)">
						<stop  offset="0" style="stop-color:#B9E5FB"/>
						<stop  offset="1" style="stop-color:#FFFFFF"/>
					</linearGradient>
					<path id="XMLID_2674_" style="fill:url(#XMLID_00000055669394251399568550000008858873763874017166_);" d="M30.5,34.3
						c4.1,4.1,7.3,7.7,7,8c-0.3,0.3-3.8-2.8-8-7s-7.3-7.7-7-8C22.8,27,26.4,30.2,30.5,34.3z"/>
					
						<linearGradient id="XMLID_00000109713554470022309000000017239597918520154558_" gradientUnits="userSpaceOnUse" x1="-2442.303" y1="1152.4302" x2="-2440.9045" y2="1152.4302" gradientTransform="matrix(-0.7071 -0.7071 -0.7071 0.7071 -881.5612 -2506.5479)">
						<stop  offset="0" style="stop-color:#B9E5FB"/>
						<stop  offset="1" style="stop-color:#FFFFFF"/>
					</linearGradient>
					<path id="XMLID_2673_" style="fill:url(#XMLID_00000109713554470022309000000017239597918520154558_);" d="M29.5,34.3
						c4.1-4.1,7.7-7.3,8-7c0.3,0.3-2.8,3.8-7,8s-7.7,7.3-8,7C22.3,42,25.4,38.4,29.5,34.3z"/>
				</g>
				<g>
					
						<linearGradient id="XMLID_00000149375861197423490950000006679468040475794831_" gradientUnits="userSpaceOnUse" x1="562.132" y1="75.95" x2="563.612" y2="75.95" gradientTransform="matrix(1 0 0 -1 -502.9386 128)">
						<stop  offset="0" style="stop-color:#B9E5FB"/>
						<stop  offset="1" style="stop-color:#FFFFFF"/>
					</linearGradient>
					<path id="XMLID_2671_" style="fill:url(#XMLID_00000149375861197423490950000006679468040475794831_);" d="M60.7,52
						c0,6.2-0.3,11.2-0.7,11.2s-0.7-5-0.7-11.2s0.3-11.2,0.7-11.2C60.3,40.9,60.7,45.9,60.7,52z"/>
					
						<linearGradient id="XMLID_00000080184981829898560790000001698211543472551306_" gradientUnits="userSpaceOnUse" x1="-2291.7239" y1="1161.8064" x2="-2290.2439" y2="1161.8064" gradientTransform="matrix(4.489659e-11 -1 -1 -4.489659e-11 1221.7365 -2238.9338)">
						<stop  offset="0" style="stop-color:#B9E5FB"/>
						<stop  offset="1" style="stop-color:#FFFFFF"/>
					</linearGradient>
					
						<ellipse id="XMLID_2670_" style="fill:url(#XMLID_00000080184981829898560790000001698211543472551306_);" cx="59.9" cy="52" rx="11.2" ry="0.7"/>
				</g>
				<g>
					
						<linearGradient id="XMLID_00000013903022882925168550000001734960664406452610_" gradientUnits="userSpaceOnUse" x1="633.1412" y1="-67.9053" x2="634.1488" y2="-67.9053" gradientTransform="matrix(0.7071 -0.7071 -0.7071 -0.7071 -436.1345 452.0829)">
						<stop  offset="0" style="stop-color:#B9E5FB"/>
						<stop  offset="1" style="stop-color:#FFFFFF"/>
					</linearGradient>
					<path id="XMLID_2668_" style="fill:url(#XMLID_00000013903022882925168550000001734960664406452610_);" d="M60.3,51.7
						c3,3,5.2,5.5,5,5.7c-0.2,0.2-2.8-2.1-5.7-5c-3-3-5.2-5.5-5-5.7C54.7,46.5,57.3,48.7,60.3,51.7z"/>
					
						<linearGradient id="XMLID_00000158733504862023182420000013812624054471029948_" gradientUnits="userSpaceOnUse" x1="-2435.21" y1="1091.0405" x2="-2434.2024" y2="1091.0405" gradientTransform="matrix(-0.7071 -0.7071 -0.7071 0.7071 -890.1698 -2441.0093)">
						<stop  offset="0" style="stop-color:#B9E5FB"/>
						<stop  offset="1" style="stop-color:#FFFFFF"/>
					</linearGradient>
					<path id="XMLID_2667_" style="fill:url(#XMLID_00000158733504862023182420000013812624054471029948_);" d="M59.6,51.7
						c3-3,5.6-5.2,5.7-5c0.2,0.2-2.1,2.8-5,5.7c-3,3-5.5,5.2-5.7,5C54.3,57.2,56.6,54.7,59.6,51.7z"/>
				</g>
				<g>
					
						<linearGradient id="XMLID_00000182527127154965087530000013672133259071220630_" gradientUnits="userSpaceOnUse" x1="569.5686" y1="108.45" x2="571.8686" y2="108.45" gradientTransform="matrix(1 0 0 -1 -502.9386 128)">
						<stop  offset="0" style="stop-color:#B9E5FB"/>
						<stop  offset="1" style="stop-color:#FFFFFF"/>
					</linearGradient>
					<path id="XMLID_2633_" style="fill:url(#XMLID_00000182527127154965087530000013672133259071220630_);" d="M68.9,19.5
						c0,9.6-0.5,17.4-1.2,17.4s-1.2-7.8-1.2-17.4s0.5-17.4,1.2-17.4C68.4,2.2,68.9,9.9,68.9,19.5z"/>
					
						<linearGradient id="XMLID_00000172436122790213801900000013126843472923624835_" gradientUnits="userSpaceOnUse" x1="-2259.6338" y1="1153.9564" x2="-2257.3337" y2="1153.9564" gradientTransform="matrix(4.489659e-11 -1 -1 -4.489659e-11 1221.7365 -2238.9338)">
						<stop  offset="0" style="stop-color:#B9E5FB"/>
						<stop  offset="1" style="stop-color:#FFFFFF"/>
					</linearGradient>
					<path id="XMLID_2632_" style="fill:url(#XMLID_00000172436122790213801900000013126843472923624835_);" d="M67.8,18.4
						c9.6,0,17.4,0.5,17.4,1.1s-7.8,1.1-17.4,1.1s-17.4-0.5-17.4-1.1S58.2,18.4,67.8,18.4z"/>
				</g>
				<g>
					
						<linearGradient id="XMLID_00000150788217395968339040000017934350211822350774_" gradientUnits="userSpaceOnUse" x1="609.8738" y1="-12.796" x2="611.0364" y2="-12.796" gradientTransform="matrix(0.7071 -0.7071 -0.7071 -0.7071 -372.9209 442.1548)">
						<stop  offset="0" style="stop-color:#B9E5FB"/>
						<stop  offset="1" style="stop-color:#FFFFFF"/>
					</linearGradient>
					<path id="XMLID_2630_" style="fill:url(#XMLID_00000150788217395968339040000017934350211822350774_);" d="M68.2,19.1
						c3.4,3.4,6,6.4,5.8,6.6c-0.2,0.2-3.2-2.4-6.6-5.8c-3.4-3.4-6-6.4-5.8-6.6C61.8,13.1,64.8,15.7,68.2,19.1z"/>
					
						<linearGradient id="XMLID_00000116201329992207009940000013545936988672194434_" gradientUnits="userSpaceOnUse" x1="-2380.1753" y1="1114.2351" x2="-2379.0129" y2="1114.2351" gradientTransform="matrix(-0.7071 -0.7071 -0.7071 0.7071 -826.9562 -2450.9375)">
						<stop  offset="0" style="stop-color:#B9E5FB"/>
						<stop  offset="1" style="stop-color:#FFFFFF"/>
					</linearGradient>
					<path id="XMLID_2629_" style="fill:url(#XMLID_00000116201329992207009940000013545936988672194434_);" d="M67.4,19.1
						c3.4-3.4,6.4-6,6.6-5.8c0.2,0.2-2.4,3.2-5.8,6.6c-3.4,3.4-6.4,6-6.6,5.8C61.3,25.5,63.9,22.6,67.4,19.1z"/>
				</g>
				<g>
					
						<linearGradient id="XMLID_00000161620263887836521720000008160194368758532021_" gradientUnits="userSpaceOnUse" x1="577.9044" y1="70.2" x2="578.6363" y2="70.2" gradientTransform="matrix(1 0 0 -1 -502.9386 128)">
						<stop  offset="0" style="stop-color:#B9E5FB"/>
						<stop  offset="1" style="stop-color:#FFFFFF"/>
					</linearGradient>
					<path id="XMLID_2627_" style="fill:url(#XMLID_00000161620263887836521720000008160194368758532021_);" d="M75.7,57.8
						c0,3.1-0.2,5.5-0.4,5.5c-0.2,0-0.4-2.5-0.4-5.5s0.2-5.5,0.4-5.5C75.5,52.3,75.7,54.7,75.7,57.8z"/>
					
						<linearGradient id="XMLID_00000104691916129408210290000003174413739451465147_" gradientUnits="userSpaceOnUse" x1="-2297.0979" y1="1146.4015" x2="-2296.366" y2="1146.4015" gradientTransform="matrix(4.489659e-11 -1 -1 -4.489659e-11 1221.7365 -2238.9338)">
						<stop  offset="0" style="stop-color:#B9E5FB"/>
						<stop  offset="1" style="stop-color:#FFFFFF"/>
					</linearGradient>
					<path id="XMLID_2626_" style="fill:url(#XMLID_00000104691916129408210290000003174413739451465147_);" d="M75.3,57.4
						c3.1,0,5.5,0.2,5.5,0.4c0,0.2-2.5,0.4-5.5,0.4s-5.5-0.2-5.5-0.4S72.3,57.4,75.3,57.4z"/>
				</g>
				<g>
					
						<linearGradient id="XMLID_00000047026493885620123890000004660268001610509244_" gradientUnits="userSpaceOnUse" x1="661.6851" y1="-59.8424" x2="662.14" y2="-59.8424" gradientTransform="matrix(0.7071 -0.7071 -0.7071 -0.7071 -435.0212 483.5221)">
						<stop  offset="0" style="stop-color:#B9E5FB"/>
						<stop  offset="1" style="stop-color:#FFFFFF"/>
					</linearGradient>
					<path id="XMLID_2624_" style="fill:url(#XMLID_00000047026493885620123890000004660268001610509244_);" d="M75.5,57.6
						c1.3,1.3,2.4,2.5,2.3,2.6c-0.1,0.1-1.2-0.9-2.6-2.3s-2.4-2.5-2.3-2.6C73,55.3,74.2,56.3,75.5,57.6z"/>
					
						<linearGradient id="XMLID_00000109007738807431408020000014419682115453213112_" gradientUnits="userSpaceOnUse" x1="-2426.8691" y1="1062.7802" x2="-2426.4143" y2="1062.7802" gradientTransform="matrix(-0.7071 -0.7071 -0.7071 0.7071 -889.0565 -2409.5701)">
						<stop  offset="0" style="stop-color:#B9E5FB"/>
						<stop  offset="1" style="stop-color:#FFFFFF"/>
					</linearGradient>
					<path id="XMLID_2623_" style="fill:url(#XMLID_00000109007738807431408020000014419682115453213112_);" d="M75.2,57.6
						c1.3-1.3,2.5-2.4,2.6-2.3s-0.9,1.2-2.3,2.6s-2.5,2.4-2.6,2.3C72.8,60.1,73.8,59,75.2,57.6z"/>
				</g>
				<g>
					
						<linearGradient id="XMLID_00000160886087809296087450000001508055663510682557_" gradientUnits="userSpaceOnUse" x1="586.312" y1="83.28" x2="587.4507" y2="83.28" gradientTransform="matrix(1 0 0 -1 -502.9386 128)">
						<stop  offset="0" style="stop-color:#B9E5FB"/>
						<stop  offset="1" style="stop-color:#FFFFFF"/>
					</linearGradient>
					
						<ellipse id="XMLID_2621_" style="fill:url(#XMLID_00000160886087809296087450000001508055663510682557_);" cx="83.9" cy="44.7" rx="0.6" ry="8.6"/>
					
						<linearGradient id="XMLID_00000000195184268186201190000017535329563155645569_" gradientUnits="userSpaceOnUse" x1="-2284.2271" y1="1137.7964" x2="-2283.0884" y2="1137.7964" gradientTransform="matrix(4.489659e-11 -1 -1 -4.489659e-11 1221.7365 -2238.9338)">
						<stop  offset="0" style="stop-color:#B9E5FB"/>
						<stop  offset="1" style="stop-color:#FFFFFF"/>
					</linearGradient>
					
						<ellipse id="XMLID_2620_" style="fill:url(#XMLID_00000000195184268186201190000017535329563155645569_);" cx="83.9" cy="44.7" rx="8.6" ry="0.6"/>
				</g>
				<g>
					
						<linearGradient id="XMLID_00000173869190230056853820000007702596013748150448_" gradientUnits="userSpaceOnUse" x1="660.1187" y1="-31.8864" x2="660.7515" y2="-31.8864" gradientTransform="matrix(0.7071 -0.7071 -0.7071 -0.7071 -405.5962 489.1724)">
						<stop  offset="0" style="stop-color:#B9E5FB"/>
						<stop  offset="1" style="stop-color:#FFFFFF"/>
					</linearGradient>
					<path id="XMLID_2618_" style="fill:url(#XMLID_00000173869190230056853820000007702596013748150448_);" d="M84.2,44.5
						c1.9,1.9,3.3,3.5,3.2,3.6c-0.1,0.1-1.7-1.3-3.6-3.2s-3.3-3.5-3.2-3.6C80.7,41.2,82.3,42.6,84.2,44.5z"/>
					
						<linearGradient id="XMLID_00000085251924975087497730000010081026261726638237_" gradientUnits="userSpaceOnUse" x1="-2398.9998" y1="1064.2543" x2="-2398.3669" y2="1064.2543" gradientTransform="matrix(-0.7071 -0.7071 -0.7071 0.7071 -859.6315 -2403.9199)">
						<stop  offset="0" style="stop-color:#B9E5FB"/>
						<stop  offset="1" style="stop-color:#FFFFFF"/>
					</linearGradient>
					<path id="XMLID_2617_" style="fill:url(#XMLID_00000085251924975087497730000010081026261726638237_);" d="M83.7,44.5
						c1.9-1.9,3.5-3.3,3.6-3.2c0.1,0.1-1.3,1.7-3.2,3.6s-3.5,3.3-3.6,3.2C80.4,48,81.8,46.4,83.7,44.5z"/>
				</g>
			</g>
			
				<linearGradient id="XMLID_00000158018891013400898610000010256432562199236488_" gradientUnits="userSpaceOnUse" x1="553.0077" y1="-43.5725" x2="553.0077" y2="10.7838" gradientTransform="matrix(0.9213 0.3888 0.3888 -0.9213 -409.1529 -176.8006)">
				<stop  offset="0" style="stop-color:#B9E5FB"/>
				<stop  offset="1" style="stop-color:#FFFFFF"/>
			</linearGradient>
			<path id="XMLID_2586_" style="fill:url(#XMLID_00000158018891013400898610000010256432562199236488_);" d="M93.4,23.6
				c-0.9-0.4-1.9-0.7-2.8-1c9.5,5.6,12.8,19.5,7.4,32.4c-5.4,12.9-17.7,20.2-28.4,17.3c0.9,0.5,1.8,0.9,2.7,1.3
				c13.8,5.8,29.8-0.6,35.6-14.5C113.7,45.3,107.2,29.4,93.4,23.6z"/>
			<path id="XMLID_2585_" class="st21" d="M97.9,30.7c3.3,6.7,3.6,15.7,0,24.3c-2.5,6-6.6,10.8-11.2,13.9c7-1.5,13.2-6.2,16.2-13.3
				C106.6,46.8,104.3,37,97.9,30.7z"/>
		</g>
		<g>
			<g>
				<g>
					
						<linearGradient id="XMLID_00000016035078401361747790000017558851774140106909_" gradientUnits="userSpaceOnUse" x1="236.7322" y1="-439.0425" x2="236.7322" y2="-426.0672" gradientTransform="matrix(0.9072 0.4206 0.4206 -0.9072 2.0485 -392.5586)">
						<stop  offset="0" style="stop-color:#96B9CC"/>
						<stop  offset="1" style="stop-color:#E6E6E6"/>
					</linearGradient>
					<path id="XMLID_3528_" style="fill:url(#XMLID_00000016035078401361747790000017558851774140106909_);" d="M37.6,93.5
						c0,0,1.2,14.8-5.5,11.8S37.6,93.5,37.6,93.5z"/>
					
						<linearGradient id="XMLID_00000001639226559376268450000003328412470698158258_" gradientUnits="userSpaceOnUse" x1="236.5453" y1="-437.1444" x2="236.5453" y2="-427.2249" gradientTransform="matrix(0.9072 0.4206 0.4206 -0.9072 2.0485 -392.5586)">
						<stop  offset="0" style="stop-color:#96B9CC"/>
						<stop  offset="1" style="stop-color:#E6E6E6"/>
					</linearGradient>
					<path id="XMLID_3527_" style="fill:url(#XMLID_00000001639226559376268450000003328412470698158258_);" d="M37,94.5
						c0,0,0.9,11.3-4.2,9S37,94.5,37,94.5z"/>
				</g>
				<g>
					
						<linearGradient id="XMLID_00000084518436825765474670000015579351584140575379_" gradientUnits="userSpaceOnUse" x1="282.2241" y1="-417.9518" x2="282.2241" y2="-404.9766" gradientTransform="matrix(0.9072 0.4206 0.4206 -0.9072 2.0485 -392.5586)">
						<stop  offset="0" style="stop-color:#96B9CC"/>
						<stop  offset="1" style="stop-color:#E6E6E6"/>
					</linearGradient>
					<path id="XMLID_3519_" style="fill:url(#XMLID_00000084518436825765474670000015579351584140575379_);" d="M87.8,93.5
						c0,0,1.2,14.8-5.5,11.8C75.7,102.2,87.8,93.5,87.8,93.5z"/>
					
						<linearGradient id="XMLID_00000128443664614335139410000001982282481568238730_" gradientUnits="userSpaceOnUse" x1="282.0361" y1="-416.0538" x2="282.0361" y2="-406.1342" gradientTransform="matrix(0.9072 0.4206 0.4206 -0.9072 2.0485 -392.5586)">
						<stop  offset="0" style="stop-color:#96B9CC"/>
						<stop  offset="1" style="stop-color:#E6E6E6"/>
					</linearGradient>
					<path id="XMLID_3518_" style="fill:url(#XMLID_00000128443664614335139410000001982282481568238730_);" d="M87.1,94.5
						c0,0,0.9,11.3-4.2,9S87.1,94.5,87.1,94.5z"/>
				</g>
			</g>
			<g>
				<g>
					
						<linearGradient id="XMLID_00000031200603074474390660000005087004210115797417_" gradientUnits="userSpaceOnUse" x1="251.8276" y1="-447.7746" x2="251.8276" y2="-434.7993" gradientTransform="matrix(0.9072 0.4206 0.4206 -0.9072 2.0485 -392.5586)">
						<stop  offset="0" style="stop-color:#96B9CC"/>
						<stop  offset="1" style="stop-color:#E6E6E6"/>
					</linearGradient>
					<path id="XMLID_3515_" style="fill:url(#XMLID_00000031200603074474390660000005087004210115797417_);" d="M47.6,107.8
						c0,0,1.2,14.8-5.5,11.8C35.6,116.5,47.6,107.8,47.6,107.8z"/>
					
						<linearGradient id="XMLID_00000099637081367638174390000018413305785792916139_" gradientUnits="userSpaceOnUse" x1="251.6519" y1="-445.8813" x2="251.6519" y2="-435.9618" gradientTransform="matrix(0.9072 0.4206 0.4206 -0.9072 2.0485 -392.5586)">
						<stop  offset="0" style="stop-color:#96B9CC"/>
						<stop  offset="1" style="stop-color:#E6E6E6"/>
					</linearGradient>
					<path id="XMLID_3514_" style="fill:url(#XMLID_00000099637081367638174390000018413305785792916139_);" d="M47,108.8
						c0,0,0.9,11.3-4.2,9S47,108.8,47,108.8z"/>
				</g>
				<g>
					
						<linearGradient id="XMLID_00000119092844846689243860000017317976961204129152_" gradientUnits="userSpaceOnUse" x1="270.0185" y1="-439.3409" x2="270.0185" y2="-426.3655" gradientTransform="matrix(0.9072 0.4206 0.4206 -0.9072 2.0485 -392.5586)">
						<stop  offset="0" style="stop-color:#96B9CC"/>
						<stop  offset="1" style="stop-color:#E6E6E6"/>
					</linearGradient>
					<path id="XMLID_3512_" style="fill:url(#XMLID_00000119092844846689243860000017317976961204129152_);" d="M67.7,107.8
						c0,0,1.2,14.8-5.5,11.8C55.6,116.5,67.7,107.8,67.7,107.8z"/>
					
						<linearGradient id="XMLID_00000128449227006001932900000004649240796836625069_" gradientUnits="userSpaceOnUse" x1="269.8337" y1="-437.4518" x2="269.8337" y2="-427.5323" gradientTransform="matrix(0.9072 0.4206 0.4206 -0.9072 2.0485 -392.5586)">
						<stop  offset="0" style="stop-color:#96B9CC"/>
						<stop  offset="1" style="stop-color:#E6E6E6"/>
					</linearGradient>
					<path id="XMLID_3511_" style="fill:url(#XMLID_00000128449227006001932900000004649240796836625069_);" d="M67,108.8
						c0,0,0.9,11.3-4.2,9S67,108.8,67,108.8z"/>
				</g>
			</g>
			<g>
				
					<linearGradient id="XMLID_00000127748666891360074640000008232948517193175482_" gradientUnits="userSpaceOnUse" x1="64.0011" y1="38.386" x2="64.0011" y2="87.4543" gradientTransform="matrix(1 0 0 -1 0 128)">
					<stop  offset="0" style="stop-color:#96B9CC"/>
					<stop  offset="1" style="stop-color:#E6E6E6"/>
				</linearGradient>
				<path id="XMLID_3488_" style="fill:url(#XMLID_00000127748666891360074640000008232948517193175482_);" d="M100.1,89.6H26
					c0,0-17,0.6-17-13.6c0-14.2,18.7-11.9,18.7-11.9S29.3,47,46.3,50.8c13.4-18.5,32.8-8.1,36.7,2c0,0,23.9-9.3,24.4,15.6
					C120.7,66.2,127.4,89.6,100.1,89.6z"/>
				
					<linearGradient id="XMLID_00000017507514726059828450000017982744450759828151_" gradientUnits="userSpaceOnUse" x1="23.56" y1="40.26" x2="23.56" y2="60.16" gradientTransform="matrix(1 0 0 -1 0 128)">
					<stop  offset="0" style="stop-color:#96B9CC"/>
					<stop  offset="1" style="stop-color:#E6E6E6"/>
				</linearGradient>
				
					<ellipse id="XMLID_3487_" style="fill:url(#XMLID_00000017507514726059828450000017982744450759828151_);" cx="23.6" cy="77.8" rx="9.6" ry="9.9"/>
				
					<linearGradient id="XMLID_00000018945568163691383660000006121269878053177248_" gradientUnits="userSpaceOnUse" x1="48.36" y1="43.1" x2="48.36" y2="74.38" gradientTransform="matrix(1 0 0 -1 0 128)">
					<stop  offset="0" style="stop-color:#96B9CC"/>
					<stop  offset="1" style="stop-color:#E6E6E6"/>
				</linearGradient>
				<path id="XMLID_3486_" style="fill:url(#XMLID_00000018945568163691383660000006121269878053177248_);" d="M63.5,69.3
					c0-8.6-6.8-15.6-15.1-15.6s-15.2,7-15.2,15.6S40,84.9,48.4,84.9S63.5,77.9,63.5,69.3z"/>
				
					<linearGradient id="XMLID_00000128459859103420836360000006218695152591752127_" gradientUnits="userSpaceOnUse" x1="65.07" y1="62.47" x2="65.07" y2="85.23" gradientTransform="matrix(1 0 0 -1 0 128)">
					<stop  offset="0" style="stop-color:#96B9CC"/>
					<stop  offset="1" style="stop-color:#E6E6E6"/>
				</linearGradient>
				
					<ellipse id="XMLID_3485_" style="fill:url(#XMLID_00000128459859103420836360000006218695152591752127_);" cx="65.1" cy="54.2" rx="11" ry="11.4"/>
				
					<linearGradient id="XMLID_00000066494815671358562980000013434832953271298225_" gradientUnits="userSpaceOnUse" x1="82.11" y1="52.87" x2="82.11" y2="72.07" gradientTransform="matrix(1 0 0 -1 0 128)">
					<stop  offset="0" style="stop-color:#96B9CC"/>
					<stop  offset="1" style="stop-color:#E6E6E6"/>
				</linearGradient>
				<path id="XMLID_3484_" style="fill:url(#XMLID_00000066494815671358562980000013434832953271298225_);" d="M91.4,65.5
					c0-5.3-4.2-9.6-9.3-9.6s-9.3,4.3-9.3,9.6s4.2,9.6,9.3,9.6S91.4,70.8,91.4,65.5z"/>
				
					<linearGradient id="XMLID_00000158738455017188397050000008432623587430877352_" gradientUnits="userSpaceOnUse" x1="64" y1="44.66" x2="64" y2="72.82" gradientTransform="matrix(1 0 0 -1 0 128)">
					<stop  offset="0" style="stop-color:#96B9CC"/>
					<stop  offset="1" style="stop-color:#E6E6E6"/>
				</linearGradient>
				<path id="XMLID_3483_" style="fill:url(#XMLID_00000158738455017188397050000008432623587430877352_);" d="M77.6,69.3
					c0-7.8-6.1-14.1-13.6-14.1s-13.6,6.3-13.6,14.1S56.5,83.3,64,83.3S77.6,77,77.6,69.3z"/>
				
					<linearGradient id="XMLID_00000067221127360030494040000000066642505568445063_" gradientUnits="userSpaceOnUse" x1="35.54" y1="42.92" x2="35.54" y2="62.82" gradientTransform="matrix(1 0 0 -1 0 128)">
					<stop  offset="0" style="stop-color:#96B9CC"/>
					<stop  offset="1" style="stop-color:#E6E6E6"/>
				</linearGradient>
				<path id="XMLID_3482_" style="fill:url(#XMLID_00000067221127360030494040000000066642505568445063_);" d="M45.2,75.1
					c0-5.5-4.3-9.9-9.6-9.9c-5.3,0-9.6,4.5-9.6,9.9c0,5.5,4.3,9.9,9.6,9.9C40.9,85.1,45.2,80.6,45.2,75.1z"/>
				
					<linearGradient id="XMLID_00000114783568061388094920000010946996528920261010_" gradientUnits="userSpaceOnUse" x1="81.77" y1="42.03" x2="81.77" y2="63.71" gradientTransform="matrix(1 0 0 -1 0 128)">
					<stop  offset="0" style="stop-color:#96B9CC"/>
					<stop  offset="1" style="stop-color:#E6E6E6"/>
				</linearGradient>
				<path id="XMLID_3481_" style="fill:url(#XMLID_00000114783568061388094920000010946996528920261010_);" d="M92.3,75.1
					c0-6-4.7-10.8-10.5-10.8s-10.5,4.9-10.5,10.8c0,6,4.7,10.8,10.5,10.8S92.3,81.1,92.3,75.1z"/>
				
					<linearGradient id="XMLID_00000040555631655842599180000002595091932876052102_" gradientUnits="userSpaceOnUse" x1="91.41" y1="45.94" x2="91.41" y2="71.54" gradientTransform="matrix(1 0 0 -1 0 128)">
					<stop  offset="0" style="stop-color:#96B9CC"/>
					<stop  offset="1" style="stop-color:#E6E6E6"/>
				</linearGradient>
				<path id="XMLID_3480_" style="fill:url(#XMLID_00000040555631655842599180000002595091932876052102_);" d="M103.8,69.3
					c0-7.1-5.6-12.8-12.4-12.8S79,62.2,79,69.3s5.6,12.8,12.4,12.8C98.3,82.1,103.8,76.3,103.8,69.3z"/>
				
					<linearGradient id="XMLID_00000157283129405722831530000002419603077078965392_" gradientUnits="userSpaceOnUse" x1="105.53" y1="42.39" x2="105.53" y2="58.03" gradientTransform="matrix(1 0 0 -1 0 128)">
					<stop  offset="0" style="stop-color:#96B9CC"/>
					<stop  offset="1" style="stop-color:#E6E6E6"/>
				</linearGradient>
				<path id="XMLID_3479_" style="fill:url(#XMLID_00000157283129405722831530000002419603077078965392_);" d="M113.1,77.8
					c0-4.3-3.4-7.8-7.6-7.8s-7.6,3.5-7.6,7.8s3.4,7.8,7.6,7.8S113.1,82.1,113.1,77.8z"/>
			</g>
			<g>
				<path id="XMLID_3477_" class="st40" d="M77.5,78.4c0,0-26,19.7-26.8,21.6c-0.8,1.9,0.8,2.2,2.2,2.2s12.2,0,12.2,0L54,116.7
					c0,0,16.4-14.3,18-15.6c1.6-1.3,1.9-4.1-1.4-4.1S61,97,61,97L77.5,78.4z"/>
				
					<linearGradient id="XMLID_00000039121924530639442980000002568382712548335506_" gradientUnits="userSpaceOnUse" x1="64.5331" y1="11.26" x2="64.5331" y2="49.62" gradientTransform="matrix(1 0 0 -1 0 128)">
					<stop  offset="0" style="stop-color:#FFCC00"/>
					<stop  offset="1" style="stop-color:#FFFFFF"/>
				</linearGradient>
				<path id="XMLID_3476_" style="fill:url(#XMLID_00000039121924530639442980000002568382712548335506_);" d="M77.5,78.4
					c0,0-24.9,18.8-25.7,20.7c-0.8,1.9,0.8,2.2,2.2,2.2s10.2,0,10.2,0L54,116.7c0,0,15.5-15.2,17.1-16.5c1.6-1.3,1.1-3.2-2.2-3.2
					c-3.3,0-9.5,0-9.5,0L77.5,78.4z"/>
			</g>
		</g>
	</g>
</g>
</svg>
