<svg version="1.1" xmlns="http://www.w3.org/2000/svg" xmlns:xlink="http://www.w3.org/1999/xlink" x="0px" y="0px" viewBox="0 0 128 128" style="enable-background:new 0 0 128 128;"><style type="text/css"> .st0{fill:#FFCC00;} </style><g><ellipse id="XMLID_3964_" transform="matrix(0.5488 -0.8359 0.8359 0.5488 6.2666 91.6106)" class="st0" cx="88" cy="40" rx="25" ry="25"/><linearGradient id="XMLID_00000016763891958584596860000017860340171935270041_" gradientUnits="userSpaceOnUse" x1="86.7253" y1="59.5078" x2="86.7253" y2="17.9426"><stop offset="0" style="stop-color:#FFCC00"/><stop offset="1" style="stop-color:#FFFFFF"/></linearGradient><circle id="XMLID_3963_" style="fill:url(#XMLID_00000016763891958584596860000017860340171935270041_);" cx="86.73" cy="38.73" r="20.78"/></g><g><g><g><linearGradient id="XMLID_00000098208083587573795140000017304995927342667655_" gradientUnits="userSpaceOnUse" x1="236.7315" y1="567.0373" x2="236.7315" y2="554.066" gradientTransform="matrix(0.9072 0.4206 -0.4206 0.9072 55.8853 -508.6802)"><stop offset="0" style="stop-color:#96B9CC"/><stop offset="1" style="stop-color:#E6E6E6"/></linearGradient><path id="XMLID_3528_" style="fill:url(#XMLID_00000098208083587573795140000017304995927342667655_);" d="M37.61,93.54 c0,0,1.15,14.83-5.46,11.77S37.61,93.54,37.61,93.54z"/><linearGradient id="XMLID_00000098943291039132540110000008376620678587940752_" gradientUnits="userSpaceOnUse" x1="236.5478" y1="565.1424" x2="236.5478" y2="555.224" gradientTransform="matrix(0.9072 0.4206 -0.4206 0.9072 55.8853 -508.6802)"><stop offset="0" style="stop-color:#96B9CC"/><stop offset="1" style="stop-color:#E6E6E6"/></linearGradient><path id="XMLID_3527_" style="fill:url(#XMLID_00000098943291039132540110000008376620678587940752_);" d="M36.95,94.51 c0,0,0.88,11.34-4.17,9C27.73,101.17,36.95,94.51,36.95,94.51z"/></g><g><linearGradient id="XMLID_00000109737569970935581170000008948030869943645880_" gradientUnits="userSpaceOnUse" x1="254.9193" y1="558.605" x2="254.9193" y2="545.6337" gradientTransform="matrix(0.9072 0.4206 -0.4206 0.9072 55.8853 -508.6802)"><stop offset="0" style="stop-color:#96B9CC"/><stop offset="1" style="stop-color:#E6E6E6"/></linearGradient><path id="XMLID_3525_" style="fill:url(#XMLID_00000109737569970935581170000008948030869943645880_);" d="M57.65,93.54 c0,0,1.15,14.83-5.46,11.77C45.6,102.24,57.65,93.54,57.65,93.54z"/><linearGradient id="XMLID_00000108287782014037093410000012199437387125714348_" gradientUnits="userSpaceOnUse" x1="254.7355" y1="556.7101" x2="254.7355" y2="546.7917" gradientTransform="matrix(0.9072 0.4206 -0.4206 0.9072 55.8853 -508.6802)"><stop offset="0" style="stop-color:#96B9CC"/><stop offset="1" style="stop-color:#E6E6E6"/></linearGradient><path id="XMLID_3524_" style="fill:url(#XMLID_00000108287782014037093410000012199437387125714348_);" d="M57,94.51 c0,0,0.88,11.34-4.17,9C47.78,101.17,57,94.51,57,94.51z"/></g><g><linearGradient id="XMLID_00000157291474810747670340000016666577113735146405_" gradientUnits="userSpaceOnUse" x1="273.107" y1="550.1727" x2="273.107" y2="537.2015" gradientTransform="matrix(0.9072 0.4206 -0.4206 0.9072 55.8853 -508.6802)"><stop offset="0" style="stop-color:#96B9CC"/><stop offset="1" style="stop-color:#E6E6E6"/></linearGradient><path id="XMLID_3522_" style="fill:url(#XMLID_00000157291474810747670340000016666577113735146405_);" d="M77.7,93.54 c0,0,1.15,14.83-5.46,11.77C65.64,102.24,77.7,93.54,77.7,93.54z"/><linearGradient id="XMLID_00000158738895309986490430000004876642497801911741_" gradientUnits="userSpaceOnUse" x1="272.9232" y1="548.2779" x2="272.9232" y2="538.3595" gradientTransform="matrix(0.9072 0.4206 -0.4206 0.9072 55.8853 -508.6802)"><stop offset="0" style="stop-color:#96B9CC"/><stop offset="1" style="stop-color:#E6E6E6"/></linearGradient><path id="XMLID_3521_" style="fill:url(#XMLID_00000158738895309986490430000004876642497801911741_);" d="M77.05,94.51 c0,0,0.88,11.34-4.17,9C67.83,101.17,77.05,94.51,77.05,94.51z"/></g><g><linearGradient id="XMLID_00000098190465961896664600000008715215360535080594_" gradientUnits="userSpaceOnUse" x1="291.2946" y1="541.7404" x2="291.2946" y2="528.7693" gradientTransform="matrix(0.9072 0.4206 -0.4206 0.9072 55.8853 -508.6802)"><stop offset="0" style="stop-color:#96B9CC"/><stop offset="1" style="stop-color:#E6E6E6"/></linearGradient><path id="XMLID_3519_" style="fill:url(#XMLID_00000098190465961896664600000008715215360535080594_);" d="M97.75,93.54 c0,0,1.15,14.83-5.46,11.77C85.69,102.24,97.75,93.54,97.75,93.54z"/><linearGradient id="XMLID_00000181774740435640234430000016267970927038969472_" gradientUnits="userSpaceOnUse" x1="291.1109" y1="539.8456" x2="291.1109" y2="529.9272" gradientTransform="matrix(0.9072 0.4206 -0.4206 0.9072 55.8853 -508.6802)"><stop offset="0" style="stop-color:#96B9CC"/><stop offset="1" style="stop-color:#E6E6E6"/></linearGradient><path id="XMLID_3518_" style="fill:url(#XMLID_00000181774740435640234430000016267970927038969472_);" d="M97.09,94.51 c0,0,0.88,11.34-4.17,9C87.87,101.17,97.09,94.51,97.09,94.51z"/></g></g><g><g><linearGradient id="XMLID_00000090265094769738681210000003700373248321190529_" gradientUnits="userSpaceOnUse" x1="251.8309" y1="575.7745" x2="251.8309" y2="562.8033" gradientTransform="matrix(0.9072 0.4206 -0.4206 0.9072 55.8853 -508.6802)"><stop offset="0" style="stop-color:#96B9CC"/><stop offset="1" style="stop-color:#E6E6E6"/></linearGradient><path id="XMLID_3515_" style="fill:url(#XMLID_00000090265094769738681210000003700373248321190529_);" d="M47.63,107.81 c0,0,1.15,14.83-5.46,11.77C35.57,116.52,47.63,107.81,47.63,107.81z"/><linearGradient id="XMLID_00000084518944109589311320000018394173781548419518_" gradientUnits="userSpaceOnUse" x1="251.6472" y1="573.8797" x2="251.6472" y2="563.9612" gradientTransform="matrix(0.9072 0.4206 -0.4206 0.9072 55.8853 -508.6802)"><stop offset="0" style="stop-color:#96B9CC"/><stop offset="1" style="stop-color:#E6E6E6"/></linearGradient><path id="XMLID_3514_" style="fill:url(#XMLID_00000084518944109589311320000018394173781548419518_);" d="M46.98,108.79 c0,0,0.88,11.34-4.17,9C37.76,115.45,46.98,108.79,46.98,108.79z"/></g><g><linearGradient id="XMLID_00000015354411601039277850000012517749953369187478_" gradientUnits="userSpaceOnUse" x1="270.0186" y1="567.3423" x2="270.0186" y2="554.371" gradientTransform="matrix(0.9072 0.4206 -0.4206 0.9072 55.8853 -508.6802)"><stop offset="0" style="stop-color:#96B9CC"/><stop offset="1" style="stop-color:#E6E6E6"/></linearGradient><path id="XMLID_3512_" style="fill:url(#XMLID_00000015354411601039277850000012517749953369187478_);" d="M67.68,107.81 c0,0,1.15,14.83-5.46,11.77C55.62,116.52,67.68,107.81,67.68,107.81z"/><linearGradient id="XMLID_00000040550832131136599270000001357426905924495246_" gradientUnits="userSpaceOnUse" x1="269.8348" y1="565.4474" x2="269.8348" y2="555.5289" gradientTransform="matrix(0.9072 0.4206 -0.4206 0.9072 55.8853 -508.6802)"><stop offset="0" style="stop-color:#96B9CC"/><stop offset="1" style="stop-color:#E6E6E6"/></linearGradient><path id="XMLID_3511_" style="fill:url(#XMLID_00000040550832131136599270000001357426905924495246_);" d="M67.02,108.79 c0,0,0.88,11.34-4.17,9C57.8,115.45,67.02,108.79,67.02,108.79z"/></g><g><linearGradient id="XMLID_00000179637143672144466130000015936947656466023306_" gradientUnits="userSpaceOnUse" x1="288.2063" y1="558.91" x2="288.2063" y2="545.9388" gradientTransform="matrix(0.9072 0.4206 -0.4206 0.9072 55.8853 -508.6802)"><stop offset="0" style="stop-color:#96B9CC"/><stop offset="1" style="stop-color:#E6E6E6"/></linearGradient><path id="XMLID_3509_" style="fill:url(#XMLID_00000179637143672144466130000015936947656466023306_);" d="M87.72,107.81 c0,0,1.15,14.83-5.46,11.77C75.67,116.52,87.72,107.81,87.72,107.81z"/><linearGradient id="XMLID_00000127018879983938745690000006448263344899115653_" gradientUnits="userSpaceOnUse" x1="288.0226" y1="557.0151" x2="288.0226" y2="547.0967" gradientTransform="matrix(0.9072 0.4206 -0.4206 0.9072 55.8853 -508.6802)"><stop offset="0" style="stop-color:#96B9CC"/><stop offset="1" style="stop-color:#E6E6E6"/></linearGradient><path id="XMLID_3508_" style="fill:url(#XMLID_00000127018879983938745690000006448263344899115653_);" d="M87.07,108.79 c0,0,0.88,11.34-4.17,9C77.85,115.45,87.07,108.79,87.07,108.79z"/></g></g><g><linearGradient id="XMLID_00000146474709589184386810000018381627391231392932_" gradientUnits="userSpaceOnUse" x1="64" y1="89.6178" x2="64" y2="40.5456"><stop offset="0" style="stop-color:#96B9CC"/><stop offset="1" style="stop-color:#E6E6E6"/></linearGradient><path id="XMLID_3488_" style="fill:url(#XMLID_00000146474709589184386810000018381627391231392932_);" d="M100.07,89.61H26 c0,0-17,0.62-17-13.57c0-14.18,18.72-11.91,18.72-11.91s1.55-17.17,18.58-13.37c13.37-18.55,32.8-8.09,36.66,2.02 c0,0,23.88-9.32,24.44,15.64C120.73,66.16,127.45,89.61,100.07,89.61z"/><linearGradient id="XMLID_00000075885336361423625400000011566119215525550239_" gradientUnits="userSpaceOnUse" x1="23.5645" y1="87.7461" x2="23.5645" y2="67.8379"><stop offset="0" style="stop-color:#96B9CC"/><stop offset="1" style="stop-color:#E6E6E6"/></linearGradient><ellipse id="XMLID_3487_" style="fill:url(#XMLID_00000075885336361423625400000011566119215525550239_);" cx="23.56" cy="77.79" rx="9.64" ry="9.95"/><linearGradient id="XMLID_00000170257802558228337740000011918567766663913900_" gradientUnits="userSpaceOnUse" x1="48.3599" y1="84.8996" x2="48.3599" y2="53.6209"><stop offset="0" style="stop-color:#96B9CC"/><stop offset="1" style="stop-color:#E6E6E6"/></linearGradient><path id="XMLID_3486_" style="fill:url(#XMLID_00000170257802558228337740000011918567766663913900_);" d="M63.51,69.26 c0-8.64-6.78-15.64-15.15-15.64c-8.37,0-15.15,7-15.15,15.64c0,8.64,6.78,15.64,15.15,15.64C56.73,84.9,63.51,77.9,63.51,69.26 z"/><linearGradient id="XMLID_00000162333110095054996630000005532422990681638071_" gradientUnits="userSpaceOnUse" x1="65.0658" y1="65.5285" x2="65.0658" y2="42.7773"><stop offset="0" style="stop-color:#96B9CC"/><stop offset="1" style="stop-color:#E6E6E6"/></linearGradient><ellipse id="XMLID_3485_" style="fill:url(#XMLID_00000162333110095054996630000005532422990681638071_);" cx="65.07" cy="54.15" rx="11.02" ry="11.38"/><linearGradient id="XMLID_00000076591674009575929780000017624314558958122882_" gradientUnits="userSpaceOnUse" x1="82.115" y1="75.1268" x2="82.115" y2="55.9301"><stop offset="0" style="stop-color:#96B9CC"/><stop offset="1" style="stop-color:#E6E6E6"/></linearGradient><path id="XMLID_3484_" style="fill:url(#XMLID_00000076591674009575929780000017624314558958122882_);" d="M91.41,65.53 c0-5.3-4.16-9.6-9.3-9.6c-5.14,0-9.3,4.3-9.3,9.6c0,5.3,4.16,9.6,9.3,9.6C87.25,75.13,91.41,70.83,91.41,65.53z"/><linearGradient id="XMLID_00000158711151349966789500000011678888822419540618_" gradientUnits="userSpaceOnUse" x1="64.0001" y1="83.3354" x2="64.0001" y2="55.1851"><stop offset="0" style="stop-color:#96B9CC"/><stop offset="1" style="stop-color:#E6E6E6"/></linearGradient><path id="XMLID_3483_" style="fill:url(#XMLID_00000158711151349966789500000011678888822419540618_);" d="M77.64,69.26 c0-7.77-6.11-14.08-13.64-14.08c-7.53,0-13.64,6.3-13.64,14.08S56.47,83.34,64,83.34C71.53,83.34,77.64,77.04,77.64,69.26z"/><linearGradient id="XMLID_00000127039053856642938780000018294180318206907836_" gradientUnits="userSpaceOnUse" x1="35.5326" y1="85.0792" x2="35.5326" y2="65.1727"><stop offset="0" style="stop-color:#96B9CC"/><stop offset="1" style="stop-color:#E6E6E6"/></linearGradient><path id="XMLID_3482_" style="fill:url(#XMLID_00000127039053856642938780000018294180318206907836_);" d="M45.18,75.13 c0-5.5-4.32-9.95-9.64-9.95c-5.33,0-9.64,4.46-9.64,9.95c0,5.5,4.32,9.95,9.64,9.95C40.86,85.08,45.18,80.62,45.18,75.13z"/><linearGradient id="XMLID_00000020390786311188461280000012440634365107372674_" gradientUnits="userSpaceOnUse" x1="81.7701" y1="85.9687" x2="81.7701" y2="64.2831"><stop offset="0" style="stop-color:#96B9CC"/><stop offset="1" style="stop-color:#E6E6E6"/></linearGradient><path id="XMLID_3481_" style="fill:url(#XMLID_00000020390786311188461280000012440634365107372674_);" d="M92.27,75.13 c0-5.99-4.7-10.84-10.5-10.84s-10.5,4.86-10.5,10.84c0,5.99,4.7,10.84,10.5,10.84S92.27,81.12,92.27,75.13z"/><linearGradient id="XMLID_00000075844832749081480390000005818788716882312121_" gradientUnits="userSpaceOnUse" x1="91.4137" y1="82.0582" x2="91.4137" y2="56.4623"><stop offset="0" style="stop-color:#96B9CC"/><stop offset="1" style="stop-color:#E6E6E6"/></linearGradient><path id="XMLID_3480_" style="fill:url(#XMLID_00000075844832749081480390000005818788716882312121_);" d="M103.81,69.26 c0-7.07-5.55-12.8-12.4-12.8c-6.85,0-12.4,5.73-12.4,12.8c0,7.07,5.55,12.8,12.4,12.8C98.26,82.06,103.81,76.33,103.81,69.26z" /><linearGradient id="XMLID_00000007389614258338538330000015735742729209276316_" gradientUnits="userSpaceOnUse" x1="105.535" y1="85.6129" x2="105.535" y2="69.971"><stop offset="0" style="stop-color:#96B9CC"/><stop offset="1" style="stop-color:#E6E6E6"/></linearGradient><path id="XMLID_3479_" style="fill:url(#XMLID_00000007389614258338538330000015735742729209276316_);" d="M113.11,77.79 c0-4.32-3.39-7.82-7.58-7.82s-7.58,3.5-7.58,7.82c0,4.32,3.39,7.82,7.58,7.82S113.11,82.11,113.11,77.79z"/></g><g><path id="XMLID_3477_" class="st0" d="M77.51,78.38c0,0-26.01,19.73-26.81,21.64c-0.8,1.91,0.8,2.23,2.23,2.23 c1.43,0,12.16,0,12.16,0l-11.14,14.48c0,0,16.39-14.32,17.98-15.6c1.59-1.27,1.95-4.11-1.39-4.11c-3.34,0-9.55,0-9.55,0 L77.51,78.38z"/><linearGradient id="XMLID_00000062880181884887979660000017370987992379532988_" gradientUnits="userSpaceOnUse" x1="64.5328" y1="116.7328" x2="64.5328" y2="78.3775"><stop offset="0" style="stop-color:#FFCC00"/><stop offset="1" style="stop-color:#FFFFFF"/></linearGradient><path id="XMLID_3476_" style="fill:url(#XMLID_00000062880181884887979660000017370987992379532988_);" d="M77.51,78.38 c0,0-24.94,18.82-25.74,20.73c-0.8,1.91,0.8,2.23,2.23,2.23c1.43,0,10.19,0,10.19,0l-10.23,15.4c0,0,15.48-15.24,17.07-16.51 c1.59-1.27,1.11-3.18-2.23-3.18c-3.34,0-9.55,0-9.55,0L77.51,78.38z"/></g></g></svg>
