<svg version="1.1" id="Isolation_Mode" xmlns="http://www.w3.org/2000/svg" xmlns:xlink="http://www.w3.org/1999/xlink" x="0px" y="0px" viewBox="0 0 128 128" style="enable-background:new 0 0 128 128;" xml:space="preserve"><style type="text/css">.st21{fill:#FFFFFF;} .st46{fill:#FFCC00;}</style><g><g><g><g><g><linearGradient id="XMLID_00000117661919200737310610000002969970692336693377_" gradientUnits="userSpaceOnUse" x1="531.6326" y1="34.7895" x2="534.2795" y2="34.7895" gradientTransform="matrix(1 0 0 1 -502.9386 0)"><stop offset="0" style="stop-color:#B9E5FB"/><stop offset="1" style="stop-color:#FFFFFF"/></linearGradient><path id="XMLID_2715_" style="fill:url(#XMLID_00000117661919200737310610000002969970692336693377_);" d="M31.34,34.79 c0,11.06-0.59,20.02-1.32,20.02c-0.73,0-1.32-8.96-1.32-20.02c0-11.06,0.59-20.02,1.32-20.02 C30.75,14.77,31.34,23.73,31.34,34.79z"/><linearGradient id="XMLID_00000018221980041058072450000015003512498750635392_" gradientUnits="userSpaceOnUse" x1="-2275.0469" y1="-1063.719" x2="-2272.3999" y2="-1063.719" gradientTransform="matrix(4.489659e-11 -1 1 4.489659e-11 1093.7365 -2238.9338)"><stop offset="0" style="stop-color:#B9E5FB"/><stop offset="1" style="stop-color:#FFFFFF"/></linearGradient><path id="XMLID_2676_" style="fill:url(#XMLID_00000018221980041058072450000015003512498750635392_);" d="M30.02,33.47 c11.06,0,20.02,0.59,20.02,1.32c0,0.73-8.96,1.32-20.02,1.32C18.96,36.11,10,35.52,10,34.79C10,34.06,18.96,33.47,30.02,33.47 z"/></g><g><linearGradient id="XMLID_00000102511162329052734210000008912759198069620652_" gradientUnits="userSpaceOnUse" x1="571.5665" y1="202.8045" x2="572.965" y2="202.8045" gradientTransform="matrix(0.7071 -0.7071 0.7071 0.7071 -518.0347 296.0357)"><stop offset="0" style="stop-color:#B9E5FB"/><stop offset="1" style="stop-color:#FFFFFF"/></linearGradient><path id="XMLID_2674_" style="fill:url(#XMLID_00000102511162329052734210000008912759198069620652_);" d="M30.51,34.3 c4.13,4.13,7.26,7.7,6.98,7.97c-0.27,0.27-3.84-2.85-7.97-6.98c-4.13-4.13-7.26-7.7-6.98-7.97 C22.81,27.04,26.38,30.16,30.51,34.3z"/><linearGradient id="XMLID_00000180356638213789498840000003937302401830125449_" gradientUnits="userSpaceOnUse" x1="-2442.303" y1="-1024.4246" x2="-2440.9045" y2="-1024.4246" gradientTransform="matrix(-0.7071 -0.7071 0.7071 -0.7071 -972.07 -2416.0391)"><stop offset="0" style="stop-color:#B9E5FB"/><stop offset="1" style="stop-color:#FFFFFF"/></linearGradient><path id="XMLID_2673_" style="fill:url(#XMLID_00000180356638213789498840000003937302401830125449_);" d="M29.52,34.3 c4.13-4.13,7.7-7.26,7.97-6.98c0.27,0.27-2.85,3.84-6.98,7.97c-4.13,4.13-7.7,7.26-7.97,6.98C22.27,42,25.39,38.43,29.52,34.3 z"/></g><g><linearGradient id="XMLID_00000071554911267696537470000008580323329037660839_" gradientUnits="userSpaceOnUse" x1="562.132" y1="52.0494" x2="563.6108" y2="52.0494" gradientTransform="matrix(1 0 0 1 -502.9386 0)"><stop offset="0" style="stop-color:#B9E5FB"/><stop offset="1" style="stop-color:#FFFFFF"/></linearGradient><path id="XMLID_2671_" style="fill:url(#XMLID_00000071554911267696537470000008580323329037660839_);" d="M60.67,52.05 c0,6.18-0.33,11.18-0.74,11.18c-0.41,0-0.74-5.01-0.74-11.18s0.33-11.18,0.74-11.18C60.34,40.87,60.67,45.87,60.67,52.05z"/><linearGradient id="XMLID_00000114073935712092125490000001696617380255590587_" gradientUnits="userSpaceOnUse" x1="-2291.7227" y1="-1033.8036" x2="-2290.2439" y2="-1033.8036" gradientTransform="matrix(4.489659e-11 -1 1 4.489659e-11 1093.7365 -2238.9338)"><stop offset="0" style="stop-color:#B9E5FB"/><stop offset="1" style="stop-color:#FFFFFF"/></linearGradient><ellipse id="XMLID_2670_" style="fill:url(#XMLID_00000114073935712092125490000001696617380255590587_);" cx="59.93" cy="52.05" rx="11.18" ry="0.74"/></g><g><linearGradient id="XMLID_00000157269571724244585330000000517348729606582444_" gradientUnits="userSpaceOnUse" x1="633.1412" y1="195.9068" x2="634.1488" y2="195.9068" gradientTransform="matrix(0.7071 -0.7071 0.7071 0.7071 -526.6433 361.5741)"><stop offset="0" style="stop-color:#B9E5FB"/><stop offset="1" style="stop-color:#FFFFFF"/></linearGradient><path id="XMLID_2668_" style="fill:url(#XMLID_00000157269571724244585330000000517348729606582444_);" d="M60.29,51.69 c2.98,2.98,5.23,5.55,5.03,5.74c-0.2,0.2-2.77-2.06-5.74-5.03c-2.98-2.98-5.23-5.55-5.03-5.74 C54.74,46.46,57.31,48.72,60.29,51.69z"/><linearGradient id="XMLID_00000170271075731298271050000001336192161943738523_" gradientUnits="userSpaceOnUse" x1="-2435.21" y1="-963.0453" x2="-2434.2024" y2="-963.0453" gradientTransform="matrix(-0.7071 -0.7071 0.7071 -0.7071 -980.6786 -2350.5005)"><stop offset="0" style="stop-color:#B9E5FB"/><stop offset="1" style="stop-color:#FFFFFF"/></linearGradient><path id="XMLID_2667_" style="fill:url(#XMLID_00000170271075731298271050000001336192161943738523_);" d="M59.58,51.69 c2.98-2.98,5.55-5.23,5.74-5.03c0.2,0.2-2.06,2.77-5.03,5.74c-2.98,2.98-5.55,5.23-5.74,5.03 C54.35,57.24,56.6,54.67,59.58,51.69z"/></g><g><linearGradient id="XMLID_00000052807649462331954400000013071982468723585172_" gradientUnits="userSpaceOnUse" x1="569.5682" y1="19.55" x2="571.8685" y2="19.55" gradientTransform="matrix(1 0 0 1 -502.9386 0)"><stop offset="0" style="stop-color:#B9E5FB"/><stop offset="1" style="stop-color:#FFFFFF"/></linearGradient><path id="XMLID_2633_" style="fill:url(#XMLID_00000052807649462331954400000013071982468723585172_);" d="M68.93,19.55 c0,9.61-0.51,17.4-1.15,17.4c-0.64,0-1.15-7.79-1.15-17.4c0-9.61,0.51-17.4,1.15-17.4C68.42,2.15,68.93,9.94,68.93,19.55z"/><linearGradient id="XMLID_00000020357551498704038000000005778845620909577917_" gradientUnits="userSpaceOnUse" x1="-2259.6338" y1="-1025.9565" x2="-2257.3335" y2="-1025.9565" gradientTransform="matrix(4.489659e-11 -1 1 4.489659e-11 1093.7365 -2238.9338)"><stop offset="0" style="stop-color:#B9E5FB"/><stop offset="1" style="stop-color:#FFFFFF"/></linearGradient><path id="XMLID_2632_" style="fill:url(#XMLID_00000020357551498704038000000005778845620909577917_);" d="M67.78,18.4 c9.61,0,17.4,0.51,17.4,1.15s-7.79,1.15-17.4,1.15c-9.61,0-17.4-0.51-17.4-1.15S58.17,18.4,67.78,18.4z"/></g><g><linearGradient id="XMLID_00000178169782570945273230000000166141743031703999_" gradientUnits="userSpaceOnUse" x1="609.8738" y1="140.7958" x2="611.0364" y2="140.7958" gradientTransform="matrix(0.7071 -0.7071 0.7071 0.7071 -463.4297 351.646)"><stop offset="0" style="stop-color:#B9E5FB"/><stop offset="1" style="stop-color:#FFFFFF"/></linearGradient><path id="XMLID_2630_" style="fill:url(#XMLID_00000178169782570945273230000000166141743031703999_);" d="M68.19,19.14 c3.43,3.43,6.03,6.4,5.81,6.63c-0.23,0.23-3.19-2.37-6.63-5.81c-3.43-3.43-6.03-6.4-5.81-6.63 C61.79,13.11,64.76,15.71,68.19,19.14z"/><linearGradient id="XMLID_00000149381958786126786640000017793911285149043092_" gradientUnits="userSpaceOnUse" x1="-2380.1763" y1="-986.2352" x2="-2379.0139" y2="-986.2352" gradientTransform="matrix(-0.7071 -0.7071 0.7071 -0.7071 -917.465 -2360.4287)"><stop offset="0" style="stop-color:#B9E5FB"/><stop offset="1" style="stop-color:#FFFFFF"/></linearGradient><path id="XMLID_2629_" style="fill:url(#XMLID_00000149381958786126786640000017793911285149043092_);" d="M67.37,19.14 c3.43-3.43,6.4-6.03,6.63-5.81c0.23,0.23-2.37,3.19-5.81,6.63c-3.43,3.43-6.4,6.03-6.63,5.81 C61.34,25.54,63.94,22.57,67.37,19.14z"/></g><g><linearGradient id="XMLID_00000093886780638728282450000000356461501679036814_" gradientUnits="userSpaceOnUse" x1="577.9044" y1="57.7983" x2="578.6363" y2="57.7983" gradientTransform="matrix(1 0 0 1 -502.9386 0)"><stop offset="0" style="stop-color:#B9E5FB"/><stop offset="1" style="stop-color:#FFFFFF"/></linearGradient><path id="XMLID_2627_" style="fill:url(#XMLID_00000093886780638728282450000000356461501679036814_);" d="M75.7,57.8 c0,3.06-0.16,5.54-0.37,5.54c-0.2,0-0.37-2.48-0.37-5.54c0-3.06,0.16-5.54,0.37-5.54C75.53,52.26,75.7,54.74,75.7,57.8z"/><linearGradient id="XMLID_00000058577871881783069150000002292998210161373362_" gradientUnits="userSpaceOnUse" x1="-2297.0979" y1="-1018.4047" x2="-2296.366" y2="-1018.4047" gradientTransform="matrix(4.489659e-11 -1 1 4.489659e-11 1093.7365 -2238.9338)"><stop offset="0" style="stop-color:#B9E5FB"/><stop offset="1" style="stop-color:#FFFFFF"/></linearGradient><path id="XMLID_2626_" style="fill:url(#XMLID_00000058577871881783069150000002292998210161373362_);" d="M75.33,57.43 c3.06,0,5.54,0.16,5.54,0.37c0,0.2-2.48,0.37-5.54,0.37S69.8,58,69.8,57.8C69.8,57.6,72.27,57.43,75.33,57.43z"/></g><g><linearGradient id="XMLID_00000030465982696995033460000015740790234084303238_" gradientUnits="userSpaceOnUse" x1="661.6851" y1="187.8423" x2="662.14" y2="187.8423" gradientTransform="matrix(0.7071 -0.7071 0.7071 0.7071 -525.53 393.0133)"><stop offset="0" style="stop-color:#B9E5FB"/><stop offset="1" style="stop-color:#FFFFFF"/></linearGradient><path id="XMLID_2624_" style="fill:url(#XMLID_00000030465982696995033460000015740790234084303238_);" d="M75.49,57.64 c1.34,1.34,2.36,2.5,2.27,2.59c-0.09,0.09-1.25-0.93-2.59-2.27c-1.34-1.34-2.36-2.5-2.27-2.59 C72.99,55.28,74.15,56.29,75.49,57.64z"/><linearGradient id="XMLID_00000103239905373435170160000014101766152272337287_" gradientUnits="userSpaceOnUse" x1="-2426.8691" y1="-934.7777" x2="-2426.4143" y2="-934.7777" gradientTransform="matrix(-0.7071 -0.7071 0.7071 -0.7071 -979.5653 -2319.0613)"><stop offset="0" style="stop-color:#B9E5FB"/><stop offset="1" style="stop-color:#FFFFFF"/></linearGradient><path id="XMLID_2623_" style="fill:url(#XMLID_00000103239905373435170160000014101766152272337287_);" d="M75.17,57.64 c1.34-1.34,2.5-2.36,2.59-2.27c0.09,0.09-0.93,1.25-2.27,2.59c-1.34,1.34-2.5,2.36-2.59,2.27 C72.81,60.14,73.83,58.98,75.17,57.64z"/></g><g><linearGradient id="XMLID_00000172431048402276373840000014970776044400119713_" gradientUnits="userSpaceOnUse" x1="586.312" y1="44.724" x2="587.4507" y2="44.724" gradientTransform="matrix(1 0 0 1 -502.9386 0)"><stop offset="0" style="stop-color:#B9E5FB"/><stop offset="1" style="stop-color:#FFFFFF"/></linearGradient><ellipse id="XMLID_2621_" style="fill:url(#XMLID_00000172431048402276373840000014970776044400119713_);" cx="83.94" cy="44.72" rx="0.57" ry="8.61"/><linearGradient id="XMLID_00000120527803469180770820000002897234498127481522_" gradientUnits="userSpaceOnUse" x1="-2284.2271" y1="-1009.7937" x2="-2283.0884" y2="-1009.7937" gradientTransform="matrix(4.489659e-11 -1 1 4.489659e-11 1093.7365 -2238.9338)"><stop offset="0" style="stop-color:#B9E5FB"/><stop offset="1" style="stop-color:#FFFFFF"/></linearGradient><ellipse id="XMLID_2620_" style="fill:url(#XMLID_00000120527803469180770820000002897234498127481522_);" cx="83.94" cy="44.72" rx="8.61" ry="0.57"/></g><g><linearGradient id="XMLID_00000145038320545141393440000005074591476708004230_" gradientUnits="userSpaceOnUse" x1="660.1187" y1="159.8841" x2="660.7515" y2="159.8841" gradientTransform="matrix(0.7071 -0.7071 0.7071 0.7071 -496.105 398.6636)"><stop offset="0" style="stop-color:#B9E5FB"/><stop offset="1" style="stop-color:#FFFFFF"/></linearGradient><path id="XMLID_2618_" style="fill:url(#XMLID_00000145038320545141393440000005074591476708004230_);" d="M84.17,44.5 c1.87,1.87,3.28,3.48,3.16,3.61c-0.12,0.12-1.74-1.29-3.61-3.16s-3.28-3.48-3.16-3.61C80.68,41.22,82.3,42.63,84.17,44.5z"/><linearGradient id="XMLID_00000131329204018209822890000009505454420156281730_" gradientUnits="userSpaceOnUse" x1="-2398.9998" y1="-936.2552" x2="-2398.3669" y2="-936.2552" gradientTransform="matrix(-0.7071 -0.7071 0.7071 -0.7071 -950.1403 -2313.4111)"><stop offset="0" style="stop-color:#B9E5FB"/><stop offset="1" style="stop-color:#FFFFFF"/></linearGradient><path id="XMLID_2617_" style="fill:url(#XMLID_00000131329204018209822890000009505454420156281730_);" d="M83.72,44.5 c1.87-1.87,3.48-3.28,3.61-3.16c0.12,0.12-1.29,1.74-3.16,3.61c-1.87,1.87-3.48,3.28-3.61,3.16 C80.44,47.98,81.85,46.37,83.72,44.5z"/></g></g><linearGradient id="XMLID_00000081622151358061261020000003966918385411218071_" gradientUnits="userSpaceOnUse" x1="553.0023" y1="171.5727" x2="553.0023" y2="117.213" gradientTransform="matrix(0.9213 0.3888 -0.3888 0.9213 -359.3865 -294.727)"><stop offset="0" style="stop-color:#B9E5FB"/><stop offset="1" style="stop-color:#FFFFFF"/></linearGradient><path id="XMLID_2586_" style="fill:url(#XMLID_00000081622151358061261020000003966918385411218071_);" d="M93.38,23.57 c-0.93-0.39-1.88-0.73-2.82-1.01c9.46,5.61,12.8,19.53,7.36,32.42c-5.44,12.9-17.74,20.21-28.36,17.35 c0.86,0.48,1.76,0.93,2.69,1.32c13.83,5.84,29.77-0.64,35.61-14.47C113.69,45.35,107.21,29.4,93.38,23.57z"/><path id="XMLID_2585_" class="st21" d="M97.93,30.7c3.34,6.73,3.59,15.73-0.02,24.28c-2.53,6.01-6.56,10.8-11.2,13.92 c7-1.47,13.19-6.24,16.18-13.33C106.6,46.8,104.33,37,97.93,30.7z"/></g><g><g><g><linearGradient id="XMLID_00000055696555007781845040000016852125891822951303_" gradientUnits="userSpaceOnUse" x1="236.7315" y1="567.0373" x2="236.7315" y2="554.066" gradientTransform="matrix(0.9072 0.4206 -0.4206 0.9072 55.8853 -508.6802)"><stop offset="0" style="stop-color:#96B9CC"/><stop offset="1" style="stop-color:#E6E6E6"/></linearGradient><path id="XMLID_3528_" style="fill:url(#XMLID_00000055696555007781845040000016852125891822951303_);" d="M37.61,93.54 c0,0,1.15,14.83-5.46,11.77S37.61,93.54,37.61,93.54z"/><linearGradient id="XMLID_00000113345811571484877400000013940884882724906155_" gradientUnits="userSpaceOnUse" x1="236.5478" y1="565.1424" x2="236.5478" y2="555.224" gradientTransform="matrix(0.9072 0.4206 -0.4206 0.9072 55.8853 -508.6802)"><stop offset="0" style="stop-color:#96B9CC"/><stop offset="1" style="stop-color:#E6E6E6"/></linearGradient><path id="XMLID_3527_" style="fill:url(#XMLID_00000113345811571484877400000013940884882724906155_);" d="M36.95,94.51 c0,0,0.88,11.34-4.17,9C27.73,101.17,36.95,94.51,36.95,94.51z"/></g><g><linearGradient id="XMLID_00000074405836489258677930000009212386340721967509_" gradientUnits="userSpaceOnUse" x1="254.9193" y1="558.605" x2="254.9193" y2="545.6337" gradientTransform="matrix(0.9072 0.4206 -0.4206 0.9072 55.8853 -508.6802)"><stop offset="0" style="stop-color:#96B9CC"/><stop offset="1" style="stop-color:#E6E6E6"/></linearGradient><path id="XMLID_3525_" style="fill:url(#XMLID_00000074405836489258677930000009212386340721967509_);" d="M57.65,93.54 c0,0,1.15,14.83-5.46,11.77C45.6,102.24,57.65,93.54,57.65,93.54z"/><linearGradient id="XMLID_00000047061815757334683800000000025421704399274133_" gradientUnits="userSpaceOnUse" x1="254.7355" y1="556.7101" x2="254.7355" y2="546.7917" gradientTransform="matrix(0.9072 0.4206 -0.4206 0.9072 55.8853 -508.6802)"><stop offset="0" style="stop-color:#96B9CC"/><stop offset="1" style="stop-color:#E6E6E6"/></linearGradient><path id="XMLID_3524_" style="fill:url(#XMLID_00000047061815757334683800000000025421704399274133_);" d="M57,94.51 c0,0,0.88,11.34-4.17,9C47.78,101.17,57,94.51,57,94.51z"/></g><g><linearGradient id="XMLID_00000076594730537685098820000003027599293520964250_" gradientUnits="userSpaceOnUse" x1="273.107" y1="550.1727" x2="273.107" y2="537.2015" gradientTransform="matrix(0.9072 0.4206 -0.4206 0.9072 55.8853 -508.6802)"><stop offset="0" style="stop-color:#96B9CC"/><stop offset="1" style="stop-color:#E6E6E6"/></linearGradient><path id="XMLID_3522_" style="fill:url(#XMLID_00000076594730537685098820000003027599293520964250_);" d="M77.7,93.54 c0,0,1.15,14.83-5.46,11.77C65.64,102.24,77.7,93.54,77.7,93.54z"/><linearGradient id="XMLID_00000148636682066543637680000006314786433305301403_" gradientUnits="userSpaceOnUse" x1="272.9232" y1="548.2779" x2="272.9232" y2="538.3595" gradientTransform="matrix(0.9072 0.4206 -0.4206 0.9072 55.8853 -508.6802)"><stop offset="0" style="stop-color:#96B9CC"/><stop offset="1" style="stop-color:#E6E6E6"/></linearGradient><path id="XMLID_3521_" style="fill:url(#XMLID_00000148636682066543637680000006314786433305301403_);" d="M77.05,94.51 c0,0,0.88,11.34-4.17,9C67.83,101.17,77.05,94.51,77.05,94.51z"/></g><g><linearGradient id="XMLID_00000103253241837565557090000018383653638871803530_" gradientUnits="userSpaceOnUse" x1="291.2946" y1="541.7404" x2="291.2946" y2="528.7693" gradientTransform="matrix(0.9072 0.4206 -0.4206 0.9072 55.8853 -508.6802)"><stop offset="0" style="stop-color:#96B9CC"/><stop offset="1" style="stop-color:#E6E6E6"/></linearGradient><path id="XMLID_3519_" style="fill:url(#XMLID_00000103253241837565557090000018383653638871803530_);" d="M97.75,93.54 c0,0,1.15,14.83-5.46,11.77C85.69,102.24,97.75,93.54,97.75,93.54z"/><linearGradient id="XMLID_00000007407007081032957620000001537374146294963646_" gradientUnits="userSpaceOnUse" x1="291.1109" y1="539.8456" x2="291.1109" y2="529.9272" gradientTransform="matrix(0.9072 0.4206 -0.4206 0.9072 55.8853 -508.6802)"><stop offset="0" style="stop-color:#96B9CC"/><stop offset="1" style="stop-color:#E6E6E6"/></linearGradient><path id="XMLID_3518_" style="fill:url(#XMLID_00000007407007081032957620000001537374146294963646_);" d="M97.09,94.51 c0,0,0.88,11.34-4.17,9C87.87,101.17,97.09,94.51,97.09,94.51z"/></g></g><g><g><linearGradient id="XMLID_00000064332147039593200290000014112518012284089997_" gradientUnits="userSpaceOnUse" x1="251.8309" y1="575.7745" x2="251.8309" y2="562.8033" gradientTransform="matrix(0.9072 0.4206 -0.4206 0.9072 55.8853 -508.6802)"><stop offset="0" style="stop-color:#96B9CC"/><stop offset="1" style="stop-color:#E6E6E6"/></linearGradient><path id="XMLID_3515_" style="fill:url(#XMLID_00000064332147039593200290000014112518012284089997_);" d="M47.63,107.81 c0,0,1.15,14.83-5.46,11.77C35.57,116.52,47.63,107.81,47.63,107.81z"/><linearGradient id="XMLID_00000161625141498637654210000008793421593560067487_" gradientUnits="userSpaceOnUse" x1="251.6472" y1="573.8797" x2="251.6472" y2="563.9612" gradientTransform="matrix(0.9072 0.4206 -0.4206 0.9072 55.8853 -508.6802)"><stop offset="0" style="stop-color:#96B9CC"/><stop offset="1" style="stop-color:#E6E6E6"/></linearGradient><path id="XMLID_3514_" style="fill:url(#XMLID_00000161625141498637654210000008793421593560067487_);" d="M46.98,108.79 c0,0,0.88,11.34-4.17,9C37.76,115.45,46.98,108.79,46.98,108.79z"/></g><g><linearGradient id="XMLID_00000162339901522990753100000005138061909405604761_" gradientUnits="userSpaceOnUse" x1="270.0186" y1="567.3423" x2="270.0186" y2="554.371" gradientTransform="matrix(0.9072 0.4206 -0.4206 0.9072 55.8853 -508.6802)"><stop offset="0" style="stop-color:#96B9CC"/><stop offset="1" style="stop-color:#E6E6E6"/></linearGradient><path id="XMLID_3512_" style="fill:url(#XMLID_00000162339901522990753100000005138061909405604761_);" d="M67.68,107.81 c0,0,1.15,14.83-5.46,11.77C55.62,116.52,67.68,107.81,67.68,107.81z"/><linearGradient id="XMLID_00000078751145972957783030000013715896799387792302_" gradientUnits="userSpaceOnUse" x1="269.8348" y1="565.4474" x2="269.8348" y2="555.5289" gradientTransform="matrix(0.9072 0.4206 -0.4206 0.9072 55.8853 -508.6802)"><stop offset="0" style="stop-color:#96B9CC"/><stop offset="1" style="stop-color:#E6E6E6"/></linearGradient><path id="XMLID_3511_" style="fill:url(#XMLID_00000078751145972957783030000013715896799387792302_);" d="M67.02,108.79 c0,0,0.88,11.34-4.17,9C57.8,115.45,67.02,108.79,67.02,108.79z"/></g><g><linearGradient id="XMLID_00000132792743178645048020000002714545841080362932_" gradientUnits="userSpaceOnUse" x1="288.2063" y1="558.91" x2="288.2063" y2="545.9388" gradientTransform="matrix(0.9072 0.4206 -0.4206 0.9072 55.8853 -508.6802)"><stop offset="0" style="stop-color:#96B9CC"/><stop offset="1" style="stop-color:#E6E6E6"/></linearGradient><path id="XMLID_3509_" style="fill:url(#XMLID_00000132792743178645048020000002714545841080362932_);" d="M87.72,107.81 c0,0,1.15,14.83-5.46,11.77C75.67,116.52,87.72,107.81,87.72,107.81z"/><linearGradient id="XMLID_00000067224525023243802780000007668256492903907763_" gradientUnits="userSpaceOnUse" x1="288.0226" y1="557.0151" x2="288.0226" y2="547.0967" gradientTransform="matrix(0.9072 0.4206 -0.4206 0.9072 55.8853 -508.6802)"><stop offset="0" style="stop-color:#96B9CC"/><stop offset="1" style="stop-color:#E6E6E6"/></linearGradient><path id="XMLID_3508_" style="fill:url(#XMLID_00000067224525023243802780000007668256492903907763_);" d="M87.07,108.79 c0,0,0.88,11.34-4.17,9C77.85,115.45,87.07,108.79,87.07,108.79z"/></g></g><g><linearGradient id="XMLID_00000153676491075723872740000012853221267196933047_" gradientUnits="userSpaceOnUse" x1="64" y1="89.6178" x2="64" y2="40.5456"><stop offset="0" style="stop-color:#96B9CC"/><stop offset="1" style="stop-color:#E6E6E6"/></linearGradient><path id="XMLID_3488_" style="fill:url(#XMLID_00000153676491075723872740000012853221267196933047_);" d="M100.07,89.61H26 c0,0-17,0.62-17-13.57c0-14.18,18.72-11.91,18.72-11.91s1.55-17.17,18.58-13.37c13.37-18.55,32.8-8.09,36.66,2.02 c0,0,23.88-9.32,24.44,15.64C120.73,66.16,127.45,89.61,100.07,89.61z"/><linearGradient id="XMLID_00000026843699082152276420000001563929869545796508_" gradientUnits="userSpaceOnUse" x1="23.5645" y1="87.7461" x2="23.5645" y2="67.8379"><stop offset="0" style="stop-color:#96B9CC"/><stop offset="1" style="stop-color:#E6E6E6"/></linearGradient><ellipse id="XMLID_3487_" style="fill:url(#XMLID_00000026843699082152276420000001563929869545796508_);" cx="23.56" cy="77.79" rx="9.64" ry="9.95"/><linearGradient id="XMLID_00000106108130318730905650000004243963891137283741_" gradientUnits="userSpaceOnUse" x1="48.3599" y1="84.8996" x2="48.3599" y2="53.6209"><stop offset="0" style="stop-color:#96B9CC"/><stop offset="1" style="stop-color:#E6E6E6"/></linearGradient><path id="XMLID_3486_" style="fill:url(#XMLID_00000106108130318730905650000004243963891137283741_);" d="M63.51,69.26 c0-8.64-6.78-15.64-15.15-15.64c-8.37,0-15.15,7-15.15,15.64c0,8.64,6.78,15.64,15.15,15.64C56.73,84.9,63.51,77.9,63.51,69.26 z"/><linearGradient id="XMLID_00000053531072428927328230000015608647607127716737_" gradientUnits="userSpaceOnUse" x1="65.0658" y1="65.5285" x2="65.0658" y2="42.7773"><stop offset="0" style="stop-color:#96B9CC"/><stop offset="1" style="stop-color:#E6E6E6"/></linearGradient><ellipse id="XMLID_3485_" style="fill:url(#XMLID_00000053531072428927328230000015608647607127716737_);" cx="65.07" cy="54.15" rx="11.02" ry="11.38"/><linearGradient id="XMLID_00000123410330856770542480000017738837865240559262_" gradientUnits="userSpaceOnUse" x1="82.115" y1="75.1268" x2="82.115" y2="55.9301"><stop offset="0" style="stop-color:#96B9CC"/><stop offset="1" style="stop-color:#E6E6E6"/></linearGradient><path id="XMLID_3484_" style="fill:url(#XMLID_00000123410330856770542480000017738837865240559262_);" d="M91.41,65.53 c0-5.3-4.16-9.6-9.3-9.6c-5.14,0-9.3,4.3-9.3,9.6c0,5.3,4.16,9.6,9.3,9.6C87.25,75.13,91.41,70.83,91.41,65.53z"/><linearGradient id="XMLID_00000065034670397678429840000009439432906739445380_" gradientUnits="userSpaceOnUse" x1="64.0001" y1="83.3354" x2="64.0001" y2="55.1851"><stop offset="0" style="stop-color:#96B9CC"/><stop offset="1" style="stop-color:#E6E6E6"/></linearGradient><path id="XMLID_3483_" style="fill:url(#XMLID_00000065034670397678429840000009439432906739445380_);" d="M77.64,69.26 c0-7.77-6.11-14.08-13.64-14.08c-7.53,0-13.64,6.3-13.64,14.08S56.47,83.34,64,83.34C71.53,83.34,77.64,77.04,77.64,69.26z"/><linearGradient id="XMLID_00000079468175689052383180000002721170449121065650_" gradientUnits="userSpaceOnUse" x1="35.5326" y1="85.0792" x2="35.5326" y2="65.1727"><stop offset="0" style="stop-color:#96B9CC"/><stop offset="1" style="stop-color:#E6E6E6"/></linearGradient><path id="XMLID_3482_" style="fill:url(#XMLID_00000079468175689052383180000002721170449121065650_);" d="M45.18,75.13 c0-5.5-4.32-9.95-9.64-9.95c-5.33,0-9.64,4.46-9.64,9.95c0,5.5,4.32,9.95,9.64,9.95C40.86,85.08,45.18,80.62,45.18,75.13z"/><linearGradient id="XMLID_00000143575299691648114170000006390289000702820260_" gradientUnits="userSpaceOnUse" x1="81.7701" y1="85.9687" x2="81.7701" y2="64.2831"><stop offset="0" style="stop-color:#96B9CC"/><stop offset="1" style="stop-color:#E6E6E6"/></linearGradient><path id="XMLID_3481_" style="fill:url(#XMLID_00000143575299691648114170000006390289000702820260_);" d="M92.27,75.13 c0-5.99-4.7-10.84-10.5-10.84s-10.5,4.86-10.5,10.84c0,5.99,4.7,10.84,10.5,10.84S92.27,81.12,92.27,75.13z"/><linearGradient id="XMLID_00000042008160453317079010000010773714554960400038_" gradientUnits="userSpaceOnUse" x1="91.4137" y1="82.0582" x2="91.4137" y2="56.4623"><stop offset="0" style="stop-color:#96B9CC"/><stop offset="1" style="stop-color:#E6E6E6"/></linearGradient><path id="XMLID_3480_" style="fill:url(#XMLID_00000042008160453317079010000010773714554960400038_);" d="M103.81,69.26 c0-7.07-5.55-12.8-12.4-12.8c-6.85,0-12.4,5.73-12.4,12.8c0,7.07,5.55,12.8,12.4,12.8C98.26,82.06,103.81,76.33,103.81,69.26z" /><linearGradient id="XMLID_00000021814424590042092240000006988424502458830238_" gradientUnits="userSpaceOnUse" x1="105.535" y1="85.6129" x2="105.535" y2="69.971"><stop offset="0" style="stop-color:#96B9CC"/><stop offset="1" style="stop-color:#E6E6E6"/></linearGradient><path id="XMLID_3479_" style="fill:url(#XMLID_00000021814424590042092240000006988424502458830238_);" d="M113.11,77.79 c0-4.32-3.39-7.82-7.58-7.82s-7.58,3.5-7.58,7.82c0,4.32,3.39,7.82,7.58,7.82S113.11,82.11,113.11,77.79z"/></g><g><path id="XMLID_3477_" class="st46" d="M77.51,78.38c0,0-26.01,19.73-26.81,21.64c-0.8,1.91,0.8,2.23,2.23,2.23 c1.43,0,12.16,0,12.16,0l-11.14,14.48c0,0,16.39-14.32,17.98-15.6c1.59-1.27,1.95-4.11-1.39-4.11c-3.34,0-9.55,0-9.55,0 L77.51,78.38z"/><linearGradient id="XMLID_00000034053396808799805050000005837449477927898763_" gradientUnits="userSpaceOnUse" x1="64.5328" y1="116.7328" x2="64.5328" y2="78.3775"><stop offset="0" style="stop-color:#FFCC00"/><stop offset="1" style="stop-color:#FFFFFF"/></linearGradient><path id="XMLID_3476_" style="fill:url(#XMLID_00000034053396808799805050000005837449477927898763_);" d="M77.51,78.38 c0,0-24.94,18.82-25.74,20.73c-0.8,1.91,0.8,2.23,2.23,2.23c1.43,0,10.19,0,10.19,0l-10.23,15.4c0,0,15.48-15.24,17.07-16.51 c1.59-1.27,1.11-3.18-2.23-3.18c-3.34,0-9.55,0-9.55,0L77.51,78.38z"/></g></g></g></g></svg>
