<?xml version="1.0" encoding="utf-8"?>
<!-- Generator: Adobe Illustrator 27.1.1, SVG Export Plug-In . SVG Version: 6.00 Build 0)  -->
<!DOCTYPE svg PUBLIC "-//W3C//DTD SVG 1.1//EN" "http://www.w3.org/Graphics/SVG/1.1/DTD/svg11.dtd" [
	<!ENTITY ns_extend "http://ns.adobe.com/Extensibility/1.0/">
	<!ENTITY ns_ai "http://ns.adobe.com/AdobeIllustrator/10.0/">
	<!ENTITY ns_graphs "http://ns.adobe.com/Graphs/1.0/">
	<!ENTITY ns_vars "http://ns.adobe.com/Variables/1.0/">
	<!ENTITY ns_imrep "http://ns.adobe.com/ImageReplacement/1.0/">
	<!ENTITY ns_sfw "http://ns.adobe.com/SaveForWeb/1.0/">
	<!ENTITY ns_custom "http://ns.adobe.com/GenericCustomNamespace/1.0/">
	<!ENTITY ns_adobe_xpath "http://ns.adobe.com/XPath/1.0/">
]>
<svg version="1.1" id="Layer_1" xmlns:x="&ns_extend;" xmlns:i="&ns_ai;" xmlns:graph="&ns_graphs;"
	 xmlns="http://www.w3.org/2000/svg" xmlns:xlink="http://www.w3.org/1999/xlink" x="0px" y="0px" viewBox="0 0 128 128"
	 style="enable-background:new 0 0 128 128;" xml:space="preserve">
<style type="text/css">
	.st0{fill:#FFCC00;}
	.st1{fill:url(#XMLID_00000047771884793081223780000004081386553325796251_);}
	.st2{fill:url(#XMLID_00000039123718113076336570000007252581849929429424_);}
	.st3{fill:url(#XMLID_00000119118108282643286220000001141017412109759920_);}
	.st4{fill:url(#XMLID_00000044874422114418309230000006609061460939434132_);}
	.st5{fill:url(#XMLID_00000174604100110464038630000005778205786045582762_);}
	.st6{fill:url(#XMLID_00000016757130673398319030000002759162861507166133_);}
	.st7{fill:url(#XMLID_00000156567288529926395400000017578493650918687413_);}
	.st8{fill:url(#XMLID_00000054255904135605363070000005220717223510186915_);}
	.st9{fill:url(#XMLID_00000011019270856063257500000006188002301468329867_);}
	.st10{fill:url(#XMLID_00000013892094111218960850000005632438646725669046_);}
	.st11{fill:url(#XMLID_00000117676506041701267880000001594920595371776672_);}
	.st12{fill:url(#XMLID_00000135674560222316372050000010001554607459733653_);}
	.st13{fill:url(#XMLID_00000085249251190846410130000001924846706597241779_);}
	.st14{fill:url(#XMLID_00000003788745680408827430000005421495651254227329_);}
	.st15{fill:url(#XMLID_00000147939244573950402320000007377710704037522345_);}
	.st16{fill:url(#XMLID_00000121277447759287799890000003263372003914139013_);}
	.st17{fill:url(#XMLID_00000023987501526924086710000016441519680801049506_);}
	.st18{fill:url(#XMLID_00000044890314061391973030000010820844841347248796_);}
	.st19{fill:url(#XMLID_00000158723937253493146660000014189352197205212092_);}
	.st20{fill:url(#XMLID_00000072241642298902276060000012671345146142299043_);}
	.st21{fill:url(#XMLID_00000153663553576140710070000001766747155727557050_);}
	.st22{fill:url(#XMLID_00000174577316148291361430000001656799988268298396_);}
	.st23{fill:url(#XMLID_00000158027760383229606100000014237136355641815445_);}
	.st24{fill:url(#XMLID_00000162353170165891979210000011596156521210808968_);}
	.st25{fill:url(#XMLID_00000140016508800623778130000004338629918464308150_);}
	.st26{fill:url(#XMLID_00000081645085473394252070000001570728457739575481_);}
	.st27{fill:url(#XMLID_00000072261710210423818810000014570913880992533637_);}
	.st28{fill:url(#XMLID_00000137124024824124797000000010181790457451906692_);}
</style>
<metadata>
	<sfw  xmlns="&ns_sfw;">
		<slices></slices>
		<sliceSourceBounds  bottomLeftOrigin="true" height="105" width="110" x="9" y="8"></sliceSourceBounds>
	</sfw>
</metadata>
<g>
	<ellipse id="XMLID_3964_" class="st0" cx="88" cy="40" rx="25" ry="25"/>
	
		<linearGradient id="XMLID_00000159456409777241038700000014771122540836533949_" gradientUnits="userSpaceOnUse" x1="86.73" y1="68.49" x2="86.73" y2="110.05" gradientTransform="matrix(1 0 0 -1 0 128)">
		<stop  offset="0" style="stop-color:#FFCC00"/>
		<stop  offset="1" style="stop-color:#FFFFFF"/>
	</linearGradient>
	
		<circle id="XMLID_3963_" style="fill:url(#XMLID_00000159456409777241038700000014771122540836533949_);" cx="86.7" cy="38.7" r="20.8"/>
</g>
<g>
	<g>
		<g>
			
				<linearGradient id="XMLID_00000018220947764919601650000002336451974712672437_" gradientUnits="userSpaceOnUse" x1="245.805" y1="-434.8362" x2="245.805" y2="-421.8608" gradientTransform="matrix(0.9072 0.4206 0.4206 -0.9072 2.0485 -392.5586)">
				<stop  offset="0" style="stop-color:#96B9CC"/>
				<stop  offset="1" style="stop-color:#E6E6E6"/>
			</linearGradient>
			<path id="XMLID_3528_" style="fill:url(#XMLID_00000018220947764919601650000002336451974712672437_);" d="M47.6,93.5
				c0,0,1.2,14.8-5.5,11.8S47.6,93.5,47.6,93.5z"/>
			
				<linearGradient id="XMLID_00000090254656486138383130000016446502350397547673_" gradientUnits="userSpaceOnUse" x1="245.618" y1="-432.938" x2="245.618" y2="-423.0185" gradientTransform="matrix(0.9072 0.4206 0.4206 -0.9072 2.0485 -392.5586)">
				<stop  offset="0" style="stop-color:#96B9CC"/>
				<stop  offset="1" style="stop-color:#E6E6E6"/>
			</linearGradient>
			<path id="XMLID_3527_" style="fill:url(#XMLID_00000090254656486138383130000016446502350397547673_);" d="M47,94.5
				c0,0,0.9,11.3-4.2,9S47,94.5,47,94.5z"/>
		</g>
		<g>
			
				<linearGradient id="XMLID_00000058571759116504302550000002790685737173460102_" gradientUnits="userSpaceOnUse" x1="282.1787" y1="-417.9729" x2="282.1787" y2="-404.9976" gradientTransform="matrix(0.9072 0.4206 0.4206 -0.9072 2.0485 -392.5586)">
				<stop  offset="0" style="stop-color:#96B9CC"/>
				<stop  offset="1" style="stop-color:#E6E6E6"/>
			</linearGradient>
			<path id="XMLID_3522_" style="fill:url(#XMLID_00000058571759116504302550000002790685737173460102_);" d="M87.7,93.5
				c0,0,1.2,14.8-5.5,11.8C75.6,102.2,87.7,93.5,87.7,93.5z"/>
			
				<linearGradient id="XMLID_00000009563105349028360670000015351783791276925867_" gradientUnits="userSpaceOnUse" x1="281.9998" y1="-416.0706" x2="281.9998" y2="-406.1511" gradientTransform="matrix(0.9072 0.4206 0.4206 -0.9072 2.0485 -392.5586)">
				<stop  offset="0" style="stop-color:#96B9CC"/>
				<stop  offset="1" style="stop-color:#E6E6E6"/>
			</linearGradient>
			<path id="XMLID_3521_" style="fill:url(#XMLID_00000009563105349028360670000015351783791276925867_);" d="M87.1,94.5
				c0,0,0.9,11.3-4.2,9C77.8,101.2,87.1,94.5,87.1,94.5z"/>
		</g>
		<g>
			
				<linearGradient id="XMLID_00000107584276808692918360000000876106334820586918_" gradientUnits="userSpaceOnUse" x1="300.3696" y1="-409.5392" x2="300.3696" y2="-396.5638" gradientTransform="matrix(0.9072 0.4206 0.4206 -0.9072 2.0485 -392.5586)">
				<stop  offset="0" style="stop-color:#96B9CC"/>
				<stop  offset="1" style="stop-color:#E6E6E6"/>
			</linearGradient>
			<path id="XMLID_3519_" style="fill:url(#XMLID_00000107584276808692918360000000876106334820586918_);" d="M107.8,93.5
				c0,0,1.2,14.8-5.5,11.8C95.7,102.2,107.8,93.5,107.8,93.5z"/>
			
				<linearGradient id="XMLID_00000129911168770276840920000004934539900000554372_" gradientUnits="userSpaceOnUse" x1="300.1816" y1="-407.6411" x2="300.1816" y2="-397.7215" gradientTransform="matrix(0.9072 0.4206 0.4206 -0.9072 2.0485 -392.5586)">
				<stop  offset="0" style="stop-color:#96B9CC"/>
				<stop  offset="1" style="stop-color:#E6E6E6"/>
			</linearGradient>
			<path id="XMLID_3518_" style="fill:url(#XMLID_00000129911168770276840920000004934539900000554372_);" d="M107.1,94.5
				c0,0,0.9,11.3-4.2,9S107.1,94.5,107.1,94.5z"/>
		</g>
		<g>
			
				<linearGradient id="XMLID_00000006698412654304579560000004207432016193242752_" gradientUnits="userSpaceOnUse" x1="260.9004" y1="-443.5682" x2="260.9004" y2="-430.5929" gradientTransform="matrix(0.9072 0.4206 0.4206 -0.9072 2.0485 -392.5586)">
				<stop  offset="0" style="stop-color:#96B9CC"/>
				<stop  offset="1" style="stop-color:#E6E6E6"/>
			</linearGradient>
			<path id="XMLID_3515_" style="fill:url(#XMLID_00000006698412654304579560000004207432016193242752_);" d="M57.6,107.8
				c0,0,1.2,14.8-5.5,11.8C45.6,116.5,57.6,107.8,57.6,107.8z"/>
			
				<linearGradient id="XMLID_00000029744998014847408160000015198680967462114689_" gradientUnits="userSpaceOnUse" x1="260.7247" y1="-441.675" x2="260.7247" y2="-431.7555" gradientTransform="matrix(0.9072 0.4206 0.4206 -0.9072 2.0485 -392.5586)">
				<stop  offset="0" style="stop-color:#96B9CC"/>
				<stop  offset="1" style="stop-color:#E6E6E6"/>
			</linearGradient>
			<path id="XMLID_3514_" style="fill:url(#XMLID_00000029744998014847408160000015198680967462114689_);" d="M57,108.8
				c0,0,0.9,11.3-4.2,9S57,108.8,57,108.8z"/>
		</g>
		<g>
			
				<linearGradient id="XMLID_00000174582495356833808980000000470150494378400435_" gradientUnits="userSpaceOnUse" x1="227.6594" y1="-443.2489" x2="227.6594" y2="-430.2736" gradientTransform="matrix(0.9072 0.4206 0.4206 -0.9072 2.0485 -392.5586)">
				<stop  offset="0" style="stop-color:#96B9CC"/>
				<stop  offset="1" style="stop-color:#E6E6E6"/>
			</linearGradient>
			
				<path id="XMLID_00000030485775983114391640000008414070605373969340_" style="fill:url(#XMLID_00000174582495356833808980000000470150494378400435_);" d="
				M27.6,93.5c0,0,1.2,14.8-5.5,11.8S27.6,93.5,27.6,93.5z"/>
			
				<linearGradient id="XMLID_00000152952025798159436540000000074443088107043728_" gradientUnits="userSpaceOnUse" x1="227.4725" y1="-441.3508" x2="227.4725" y2="-431.4312" gradientTransform="matrix(0.9072 0.4206 0.4206 -0.9072 2.0485 -392.5586)">
				<stop  offset="0" style="stop-color:#96B9CC"/>
				<stop  offset="1" style="stop-color:#E6E6E6"/>
			</linearGradient>
			
				<path id="XMLID_00000070818703297978606590000007477052512707111305_" style="fill:url(#XMLID_00000152952025798159436540000000074443088107043728_);" d="
				M27,94.5c0,0,0.9,11.3-4.2,9S27,94.5,27,94.5z"/>
		</g>
		<g>
			
				<linearGradient id="XMLID_00000019665109456406973750000001763750212717999276_" gradientUnits="userSpaceOnUse" x1="242.7548" y1="-451.9809" x2="242.7548" y2="-439.0056" gradientTransform="matrix(0.9072 0.4206 0.4206 -0.9072 2.0485 -392.5586)">
				<stop  offset="0" style="stop-color:#96B9CC"/>
				<stop  offset="1" style="stop-color:#E6E6E6"/>
			</linearGradient>
			
				<path id="XMLID_00000147191224370277818400000010250772683933879216_" style="fill:url(#XMLID_00000019665109456406973750000001763750212717999276_);" d="
				M37.6,107.8c0,0,1.2,14.8-5.5,11.8C25.6,116.5,37.6,107.8,37.6,107.8z"/>
			
				<linearGradient id="XMLID_00000054240108989906162090000016200798086796548006_" gradientUnits="userSpaceOnUse" x1="242.5792" y1="-450.0877" x2="242.5792" y2="-440.1682" gradientTransform="matrix(0.9072 0.4206 0.4206 -0.9072 2.0485 -392.5586)">
				<stop  offset="0" style="stop-color:#96B9CC"/>
				<stop  offset="1" style="stop-color:#E6E6E6"/>
			</linearGradient>
			
				<path id="XMLID_00000060031949627216150550000002885375387738975132_" style="fill:url(#XMLID_00000054240108989906162090000016200798086796548006_);" d="
				M37,108.8c0,0,0.9,11.3-4.2,9S37,108.8,37,108.8z"/>
		</g>
		<g>
			
				<linearGradient id="XMLID_00000124155817927202421570000010152071651154854031_" gradientUnits="userSpaceOnUse" x1="279.0912" y1="-435.1345" x2="279.0912" y2="-422.1592" gradientTransform="matrix(0.9072 0.4206 0.4206 -0.9072 2.0485 -392.5586)">
				<stop  offset="0" style="stop-color:#96B9CC"/>
				<stop  offset="1" style="stop-color:#E6E6E6"/>
			</linearGradient>
			<path id="XMLID_3512_" style="fill:url(#XMLID_00000124155817927202421570000010152071651154854031_);" d="M77.7,107.8
				c0,0,1.2,14.8-5.5,11.8C65.6,116.5,77.7,107.8,77.7,107.8z"/>
			
				<linearGradient id="XMLID_00000134246775823555824780000006668283634686898361_" gradientUnits="userSpaceOnUse" x1="278.9065" y1="-433.2455" x2="278.9065" y2="-423.3259" gradientTransform="matrix(0.9072 0.4206 0.4206 -0.9072 2.0485 -392.5586)">
				<stop  offset="0" style="stop-color:#96B9CC"/>
				<stop  offset="1" style="stop-color:#E6E6E6"/>
			</linearGradient>
			<path id="XMLID_3511_" style="fill:url(#XMLID_00000134246775823555824780000006668283634686898361_);" d="M77,108.8
				c0,0,0.9,11.3-4.2,9S77,108.8,77,108.8z"/>
		</g>
		<g>
			
				<linearGradient id="XMLID_00000034077264911827518020000001529857043162502800_" gradientUnits="userSpaceOnUse" x1="297.2751" y1="-426.705" x2="297.2751" y2="-413.7296" gradientTransform="matrix(0.9072 0.4206 0.4206 -0.9072 2.0485 -392.5586)">
				<stop  offset="0" style="stop-color:#96B9CC"/>
				<stop  offset="1" style="stop-color:#E6E6E6"/>
			</linearGradient>
			<path id="XMLID_3509_" style="fill:url(#XMLID_00000034077264911827518020000001529857043162502800_);" d="M97.7,107.8
				c0,0,1.2,14.8-5.5,11.8C85.7,116.5,97.7,107.8,97.7,107.8z"/>
			
				<linearGradient id="XMLID_00000047769773138451112230000013827121411191969700_" gradientUnits="userSpaceOnUse" x1="297.0974" y1="-424.8117" x2="297.0974" y2="-414.8922" gradientTransform="matrix(0.9072 0.4206 0.4206 -0.9072 2.0485 -392.5586)">
				<stop  offset="0" style="stop-color:#96B9CC"/>
				<stop  offset="1" style="stop-color:#E6E6E6"/>
			</linearGradient>
			<path id="XMLID_3508_" style="fill:url(#XMLID_00000047769773138451112230000013827121411191969700_);" d="M97.1,108.8
				c0,0,0.9,11.3-4.2,9C87.8,115.4,97.1,108.8,97.1,108.8z"/>
		</g>
	</g>
	<g>
		
			<linearGradient id="XMLID_00000005958002746014657490000008814549667583768981_" gradientUnits="userSpaceOnUse" x1="64.0011" y1="38.386" x2="64.0011" y2="87.4543" gradientTransform="matrix(1 0 0 -1 0 128)">
			<stop  offset="0" style="stop-color:#96B9CC"/>
			<stop  offset="1" style="stop-color:#E6E6E6"/>
		</linearGradient>
		<path id="XMLID_3488_" style="fill:url(#XMLID_00000005958002746014657490000008814549667583768981_);" d="M100.1,89.6H26
			c0,0-17,0.6-17-13.6c0-14.2,18.7-11.9,18.7-11.9S29.3,47,46.3,50.8c13.4-18.5,32.8-8.1,36.7,2c0,0,23.9-9.3,24.4,15.6
			C120.7,66.2,127.4,89.6,100.1,89.6z"/>
		
			<linearGradient id="XMLID_00000165227863448777646260000008116856332712496563_" gradientUnits="userSpaceOnUse" x1="23.56" y1="40.26" x2="23.56" y2="60.16" gradientTransform="matrix(1 0 0 -1 0 128)">
			<stop  offset="0" style="stop-color:#96B9CC"/>
			<stop  offset="1" style="stop-color:#E6E6E6"/>
		</linearGradient>
		
			<ellipse id="XMLID_3487_" style="fill:url(#XMLID_00000165227863448777646260000008116856332712496563_);" cx="23.6" cy="77.8" rx="9.6" ry="9.9"/>
		
			<linearGradient id="XMLID_00000176026531647396802140000002807123059469049279_" gradientUnits="userSpaceOnUse" x1="48.36" y1="43.1" x2="48.36" y2="74.38" gradientTransform="matrix(1 0 0 -1 0 128)">
			<stop  offset="0" style="stop-color:#96B9CC"/>
			<stop  offset="1" style="stop-color:#E6E6E6"/>
		</linearGradient>
		<path id="XMLID_3486_" style="fill:url(#XMLID_00000176026531647396802140000002807123059469049279_);" d="M63.5,69.3
			c0-8.6-6.8-15.6-15.1-15.6s-15.2,7-15.2,15.6S40,84.9,48.4,84.9S63.5,77.9,63.5,69.3z"/>
		
			<linearGradient id="XMLID_00000171697233523259286970000000695428040303878280_" gradientUnits="userSpaceOnUse" x1="65.07" y1="62.47" x2="65.07" y2="85.23" gradientTransform="matrix(1 0 0 -1 0 128)">
			<stop  offset="0" style="stop-color:#96B9CC"/>
			<stop  offset="1" style="stop-color:#E6E6E6"/>
		</linearGradient>
		
			<ellipse id="XMLID_3485_" style="fill:url(#XMLID_00000171697233523259286970000000695428040303878280_);" cx="65.1" cy="54.2" rx="11" ry="11.4"/>
		
			<linearGradient id="XMLID_00000051345389279445308140000012822030449652475550_" gradientUnits="userSpaceOnUse" x1="82.11" y1="52.87" x2="82.11" y2="72.07" gradientTransform="matrix(1 0 0 -1 0 128)">
			<stop  offset="0" style="stop-color:#96B9CC"/>
			<stop  offset="1" style="stop-color:#E6E6E6"/>
		</linearGradient>
		<path id="XMLID_3484_" style="fill:url(#XMLID_00000051345389279445308140000012822030449652475550_);" d="M91.4,65.5
			c0-5.3-4.2-9.6-9.3-9.6s-9.3,4.3-9.3,9.6s4.2,9.6,9.3,9.6S91.4,70.8,91.4,65.5z"/>
		
			<linearGradient id="XMLID_00000104696605309530381060000009436998345431798414_" gradientUnits="userSpaceOnUse" x1="64" y1="44.66" x2="64" y2="72.82" gradientTransform="matrix(1 0 0 -1 0 128)">
			<stop  offset="0" style="stop-color:#96B9CC"/>
			<stop  offset="1" style="stop-color:#E6E6E6"/>
		</linearGradient>
		<path id="XMLID_3483_" style="fill:url(#XMLID_00000104696605309530381060000009436998345431798414_);" d="M77.6,69.3
			c0-7.8-6.1-14.1-13.6-14.1s-13.6,6.3-13.6,14.1S56.5,83.3,64,83.3S77.6,77,77.6,69.3z"/>
		
			<linearGradient id="XMLID_00000013880300958164464500000017514337304798605447_" gradientUnits="userSpaceOnUse" x1="35.54" y1="42.92" x2="35.54" y2="62.82" gradientTransform="matrix(1 0 0 -1 0 128)">
			<stop  offset="0" style="stop-color:#96B9CC"/>
			<stop  offset="1" style="stop-color:#E6E6E6"/>
		</linearGradient>
		<path id="XMLID_3482_" style="fill:url(#XMLID_00000013880300958164464500000017514337304798605447_);" d="M45.2,75.1
			c0-5.5-4.3-9.9-9.6-9.9c-5.3,0-9.6,4.5-9.6,9.9c0,5.5,4.3,9.9,9.6,9.9C40.9,85.1,45.2,80.6,45.2,75.1z"/>
		
			<linearGradient id="XMLID_00000132806794944558174560000002873305199129207225_" gradientUnits="userSpaceOnUse" x1="81.77" y1="42.03" x2="81.77" y2="63.71" gradientTransform="matrix(1 0 0 -1 0 128)">
			<stop  offset="0" style="stop-color:#96B9CC"/>
			<stop  offset="1" style="stop-color:#E6E6E6"/>
		</linearGradient>
		<path id="XMLID_3481_" style="fill:url(#XMLID_00000132806794944558174560000002873305199129207225_);" d="M92.3,75.1
			c0-6-4.7-10.8-10.5-10.8s-10.5,4.9-10.5,10.8c0,6,4.7,10.8,10.5,10.8S92.3,81.1,92.3,75.1z"/>
		
			<linearGradient id="XMLID_00000003791552461373264890000001140652285489825177_" gradientUnits="userSpaceOnUse" x1="91.41" y1="45.94" x2="91.41" y2="71.54" gradientTransform="matrix(1 0 0 -1 0 128)">
			<stop  offset="0" style="stop-color:#96B9CC"/>
			<stop  offset="1" style="stop-color:#E6E6E6"/>
		</linearGradient>
		<path id="XMLID_3480_" style="fill:url(#XMLID_00000003791552461373264890000001140652285489825177_);" d="M103.8,69.3
			c0-7.1-5.6-12.8-12.4-12.8S79,62.2,79,69.3s5.6,12.8,12.4,12.8C98.3,82.1,103.8,76.3,103.8,69.3z"/>
		
			<linearGradient id="XMLID_00000137106783633438339880000001936975967299391934_" gradientUnits="userSpaceOnUse" x1="105.53" y1="42.39" x2="105.53" y2="58.03" gradientTransform="matrix(1 0 0 -1 0 128)">
			<stop  offset="0" style="stop-color:#96B9CC"/>
			<stop  offset="1" style="stop-color:#E6E6E6"/>
		</linearGradient>
		<path id="XMLID_3479_" style="fill:url(#XMLID_00000137106783633438339880000001936975967299391934_);" d="M113.1,77.8
			c0-4.3-3.4-7.8-7.6-7.8s-7.6,3.5-7.6,7.8s3.4,7.8,7.6,7.8S113.1,82.1,113.1,77.8z"/>
	</g>
	<g>
		<path id="XMLID_3477_" class="st0" d="M77.5,78.4c0,0-26,19.7-26.8,21.6c-0.8,1.9,0.8,2.2,2.2,2.2s12.2,0,12.2,0L54,116.7
			c0,0,16.4-14.3,18-15.6c1.6-1.3,1.9-4.1-1.4-4.1S61,97,61,97L77.5,78.4z"/>
		
			<linearGradient id="XMLID_00000044863167663629435710000004480851225347883396_" gradientUnits="userSpaceOnUse" x1="64.5331" y1="11.26" x2="64.5331" y2="49.62" gradientTransform="matrix(1 0 0 -1 0 128)">
			<stop  offset="0" style="stop-color:#FFCC00"/>
			<stop  offset="1" style="stop-color:#FFFFFF"/>
		</linearGradient>
		<path id="XMLID_3476_" style="fill:url(#XMLID_00000044863167663629435710000004480851225347883396_);" d="M77.5,78.4
			c0,0-24.9,18.8-25.7,20.7c-0.8,1.9,0.8,2.2,2.2,2.2s10.2,0,10.2,0L54,116.7c0,0,15.5-15.2,17.1-16.5c1.6-1.3,1.1-3.2-2.2-3.2
			c-3.3,0-9.5,0-9.5,0L77.5,78.4z"/>
	</g>
</g>
</svg>
