<svg version="1.1" xmlns="http://www.w3.org/2000/svg" xmlns:xlink="http://www.w3.org/1999/xlink" viewBox="0 0 32 32" style="enable-background:new 0 0 32 32;" xml:space="preserve">
	<path d="M15.3,11.3v8.6l-0.7,0.4c-0.8,0.5-1.3,1.4-1.3,2.3c0,1.5,1.2,2.7,2.7,2.7s2.7-1.2,2.7-2.7c0-1-0.5-1.9-1.3-2.3l-0.7-0.4
		v-8.6"/>
	<path d="M19.3,18.4V7.3C19.3,6.2,18.6,4,16,4s-3.3,2.2-3.3,3.3v11.1c-1.2,1-2,2.5-2,4.2c0,3,2.4,5.4,5.3,5.4s5.3-2.4,5.3-5.4
		C21.3,20.9,20.6,19.4,19.3,18.4z M18,19.1c1.2,0.7,2,2,2,3.5c0,2.2-1.8,4-4,4s-4-1.8-4-4c0-1.5,0.8-2.8,2-3.5V7.3c0-0.3,0.1-2,2-2
		s2,1.7,2,2V19.1z"/>
	<path class="st0" d="M25.9,18.4c-1.1,0-2-0.9-2-2c0-1.6,1.6-3.1,1.7-3.2l0.2-0.2l0.2,0.2c0.1,0,1.7,1.5,1.7,3.2
		C27.8,17.5,26.9,18.4,25.9,18.4z M25.9,14c-0.4,0.4-1.3,1.4-1.3,2.5c0,0.7,0.6,1.3,1.3,1.3c0.7,0,1.3-0.6,1.3-1.3
		C27.1,15.5,26.2,14.4,25.9,14z"/>
	<path class="st0" d="M22.6,13.1c-1.1,0-2-0.9-2-2c0-1.6,1.6-3.1,1.7-3.2l0.2-0.2L22.8,8c0.1,0,1.7,1.5,1.7,3.2
		C24.5,12.2,23.6,13.1,22.6,13.1z M22.6,8.7c-0.4,0.4-1.3,1.4-1.3,2.5c0,0.7,0.6,1.3,1.3,1.3c0.7,0,1.3-0.6,1.3-1.3
		C23.8,10.1,23,9.1,22.6,8.7z"/>
</svg>
