<svg version="1.1" xmlns="http://www.w3.org/2000/svg" xmlns:xlink="http://www.w3.org/1999/xlink" viewBox="0 0 32 32" style="enable-background:new 0 0 32 32;" xml:space="preserve"><path class="st0" d="M18.1,15.3c-2.3,0-4.2-1.9-4.2-4.2c0-3.5,3.5-6.6,3.7-6.8L18.1,4l0.5,0.4c0.2,0.1,3.7,3.3,3.7,6.8
			C22.2,13.4,20.4,15.3,18.1,15.3z M18.1,5.9c-0.9,0.9-2.8,3.1-2.8,5.3c0,1.5,1.2,2.8,2.8,2.8c1.5,0,2.8-1.2,2.8-2.8
			C20.8,9,19,6.8,18.1,5.9z"/><path class="st0" d="M11.2,23.6c-2.3,0-4.2-1.9-4.2-4.2c0-3.5,3.5-6.6,3.7-6.8l0.5-0.4l0.5,0.4c0.2,0.1,3.7,3.3,3.7,6.8
			C15.3,21.7,13.4,23.6,11.2,23.6z M11.2,14.2c-0.9,0.9-2.8,3.1-2.8,5.3c0,1.5,1.2,2.8,2.8,2.8c1.5,0,2.8-1.2,2.8-2.8
			C13.9,17.3,12,15.1,11.2,14.2z"/><path class="st0" d="M20.8,27.8c-2.3,0-4.2-1.9-4.2-4.2c0-3.5,3.5-6.6,3.7-6.8l0.5-0.4l0.5,0.4c0.2,0.1,3.7,3.3,3.7,6.8
			C25,25.9,23.1,27.8,20.8,27.8z M20.8,18.3c-0.9,0.9-2.8,3.1-2.8,5.3c0,1.5,1.2,2.8,2.8,2.8c1.5,0,2.8-1.2,2.8-2.8
			C23.6,21.4,21.7,19.2,20.8,18.3z"/></svg>
