<svg version="1.1" id="Layer_1" xmlns="http://www.w3.org/2000/svg" xmlns:xlink="http://www.w3.org/1999/xlink" viewBox="0 0 32 32" style="enable-background:new 0 0 32 32;" xml:space="preserve"><path class="st0" d="M16,4.6c-8.2,0-12.8,7.5-13,13c-0.1,2.2,0.5,4.5,1.8,6.7l0.3,0.5l21.6,0.1l0.3-0.4c0.7-1,2-3.6,2-6.9C29,10.4,23.2,4.6,16,4.6z M25.6,22.9L6.3,22.8c-0.3-0.6-0.8-1.7-1.1-3l2.7-0.5l-0.1-0.7l-2.7,0.5C5,18.7,5,18.2,5,17.6c0-1.3,0.4-2.7,1-4.1l2.3,1.1l0.3-0.7l-2.3-1.1c0.8-1.5,1.8-2.9,3.2-4L11,11l0.6-0.4l-1.5-2.2c1.5-1.1,3.3-1.7,5.5-1.8v2.7h0.7V6.6c2,0.1,3.8,0.6,5.4,1.6l-1.5,2.3l0.6,0.4l1.5-2.3c1.5,1.1,2.8,2.6,3.6,4.3L23.4,14l0.3,0.7l2.5-1.1c0.5,1.2,0.8,2.6,0.8,4c0,0.5,0,0.9-0.1,1.3l-2.7-0.4l-0.1,0.7l2.7,0.4C26.5,21.2,26,22.3,25.6,22.9z"/><path class="st0" d="M16.2,16.5c-0.3-1-0.7-2.1-1-3.1c-0.4-1.4-0.9-2.7-1.3-4.1l-0.9,0.3c0.4,1.3,0.9,2.7,1.3,4c0.3,1,0.7,2.1,1,3.1c-0.2,0.2-0.3,0.5-0.3,0.8c0,0.6,0.5,1.1,1.1,1.1c0.6,0,1.1-0.5,1.1-1.1C17.1,17.1,16.7,16.6,16.2,16.5z"/>
</svg>
