<svg version="1.1" id="Layer_1" xmlns="http://www.w3.org/2000/svg" xmlns:xlink="http://www.w3.org/1999/xlink" viewBox="0 0 32 32" style="enable-background:new 0 0 32 32;" xml:space="preserve"><style type="text/css">.st0{fill:none;}</style><path class="st0" d="M16,21.5c4,0,7.6-2.2,9.5-5.5c-1.9-3.3-5.4-5.5-9.5-5.5S8.4,12.7,6.5,16C8.4,19.3,12,21.5,16,21.5z"/><path d="M26.2,14.5C24,11.3,20.3,9.1,16,9.1c-4.2,0-7.9,2.1-10.2,5.4C5.5,15,5.3,15.5,5,16c0.3,0.5,0.5,1,0.8,1.5c2.2,3.2,5.9,5.4,10.2,5.4s7.9-2.1,10.2-5.4c0.3-0.5,0.6-1,0.8-1.5C26.7,15.5,26.5,15,26.2,14.5z M16,21.5c-4,0-7.6-2.2-9.5-5.5c1.9-3.3,5.4-5.5,9.5-5.5s7.6,2.2,9.5,5.5C23.6,19.3,20,21.5,16,21.5z"/><path d="M16,19.4c-1.9,0-3.4-1.5-3.4-3.4s1.5-3.4,3.4-3.4s3.4,1.5,3.4,3.4S17.9,19.4,16,19.4z M16,14c-1.1,0-2,0.9-2,2s0.9,2,2,2s2-0.9,2-2S17.1,14,16,14z"/></svg>
