<?xml version="1.0" encoding="utf-8"?>
<!-- Generator: Adobe Illustrator 27.1.1, SVG Export Plug-In . SVG Version: 6.00 Build 0)  -->
<svg version="1.1" id="Layer_1" xmlns="http://www.w3.org/2000/svg" xmlns:xlink="http://www.w3.org/1999/xlink" x="0px" y="0px"
	 width="32px" height="32px" viewBox="0 0 32 32" style="enable-background:new 0 0 32 32;" xml:space="preserve">
<g>
	<path d="M16.4,13.4c1.9,0,3.5-1.6,3.5-3.5s-1.5-3.4-3.4-3.4c-1.1,0-2.2,0.6-2.8,1.5c-0.2,0.3-0.1,0.7,0.2,1
		c0.1,0.1,0.2,0.1,0.4,0.1s0.4-0.1,0.6-0.3c0.4-0.6,1-0.9,1.7-0.9c1.1,0,2,0.9,2,2c0,1.2-1,2.2-2.2,2.2H5.7c-0.4,0-0.7,0.3-0.7,0.7
		s0.3,0.7,0.7,0.7h10.7V13.4z"/>
	<path d="M23.9,16.6c1.7,0,3.1-1.4,3.1-3.1s-1.3-3-3-3c-1,0-1.9,0.5-2.5,1.3c-0.2,0.3-0.1,0.7,0.2,1c0.1,0.1,0.2,0.1,0.4,0.1
		c0.2,0,0.4-0.1,0.6-0.3c0.3-0.5,0.8-0.7,1.4-0.7c0.9,0,1.6,0.7,1.6,1.6c0,1-0.8,1.8-1.8,1.8H5.7C5.3,15.3,5,15.6,5,16
		c0,0.4,0.3,0.7,0.7,0.7h18.2V16.6z"/>
	<path d="M14.6,25.8c0.1,0,0.2,0,0.3-0.1c1.2-0.6,1.9-1.8,1.9-3.2c0-2.1-1.7-3.8-3.8-3.8H5.7C5.3,18.7,5,19,5,19.4s0.3,0.7,0.7,0.7
		h7.4c1.3,0,2.4,1.1,2.4,2.4c0,0.8-0.4,1.6-1.2,2c-0.3,0.2-0.5,0.6-0.3,0.9C14.1,25.7,14.4,25.8,14.6,25.8z"/>
	<path d="M21.4,24.2c1.5,0,2.7-1.2,2.7-2.7s-1.3-2.8-2.8-2.8h-3c-0.4,0-0.7,0.3-0.7,0.7s0.3,0.7,0.7,0.7h3c0.8,0,1.4,0.6,1.4,1.4
		c0,0.7-0.6,1.3-1.3,1.3c-0.5,0-1-0.3-1.2-0.7c-0.1-0.2-0.4-0.4-0.6-0.4c-0.1,0-0.2,0-0.3,0.1C19,22,18.8,22.4,19,22.7
		C19.5,23.6,20.4,24.2,21.4,24.2z"/>
</g>
</svg>
