<svg version="1.1" id="Layer_1" xmlns="http://www.w3.org/2000/svg" xmlns:xlink="http://www.w3.org/1999/xlink" viewBox="0 0 32 32" style="enable-background:new 0 0 32 32;" xml:space="preserve"><path d="M5.4,22.2c-1.2,0-2.3-0.5-3.2-1.4C1.4,20,1,18.9,1,17.6s0.5-2.3,1.3-3.2c0.8-0.8,2-1.3,3.1-1.3h0.1c0-1.4,0.6-2.7,1.6-3.7 s2.3-1.5,3.7-1.5H11c2.1,0,4.1,1.4,4.9,3.3c0.4-0.1,0.8-0.1,1.1-0.1l0,0c1.3,0,2.4,0.4,3.2,1.3c0.7,0.7,1.1,1.6,1.2,2.6h0.1 c2,0,3.6,1.6,3.5,3.6c0,2-1.6,3.5-3.6,3.5L5.4,22.2z M5.5,14.4c-0.9,0-1.7,0.3-2.3,0.9c-0.6,0.6-1,1.4-1,2.3s0.3,1.7,0.9,2.4 c0.6,0.6,1.4,1,2.3,1h16c1.3,0,2.4-1.1,2.4-2.4s-1-2.4-2.4-2.4h-0.6c-0.2,0-0.3-0.1-0.4-0.2c-0.1-0.1-0.2-0.3-0.2-0.4 c0-0.9-0.3-1.8-0.9-2.4s-1.4-0.9-2.4-0.9l0,0c-0.4,0-0.9,0.1-1.3,0.2c-0.1,0-0.1,0-0.2,0c-0.1,0-0.2,0-0.3-0.1s-0.3-0.2-0.3-0.4 c-0.5-1.8-2.1-3-4-3h-0.1c-1.1,0-2.1,0.4-2.9,1.2S6.6,12,6.6,13.1c0,0.1,0,0.3,0,0.4c0,0.2,0,0.3-0.2,0.5c-0.1,0.1-0.3,0.2-0.4,0.2 H5.5V14.4z"/><path d="M25.4,15.4c-0.1,0-0.3-0.1-0.4-0.2c-0.2-0.2-0.2-0.6,0-0.8c0.7-0.7,1.1-1.6,1.1-2.6C26,9.7,24.3,8,22.2,8 c-1.4,0-2.7,0.8-3.4,2.1c-0.1,0.2-0.3,0.3-0.5,0.3c-0.1,0-0.2,0-0.3-0.1c-0.3-0.1-0.4-0.5-0.3-0.8c0.9-1.7,2.5-2.7,4.4-2.7 c2.7,0,5,2.2,5,5c0,1.3-0.5,2.5-1.4,3.4C25.7,15.3,25.5,15.4,25.4,15.4z"/><path d="M22.2,6c-0.3,0-0.6-0.3-0.6-0.6V3.6c0-0.3,0.3-0.6,0.6-0.6s0.6,0.3,0.6,0.6v1.8C22.8,5.7,22.6,6,22.2,6z"/><path d="M17.8,7.9c-0.2,0-0.3-0.1-0.4-0.2l-1.3-1.3c-0.2-0.2-0.2-0.6,0-0.8c0.1-0.1,0.3-0.2,0.4-0.2c0.2,0,0.3,0.1,0.4,0.2l1.3,1.3 c0.2,0.2,0.2,0.6,0,0.8C18.1,7.8,17.9,7.9,17.8,7.9z"/><path d="M28,18.1c-0.2,0-0.3-0.1-0.4-0.2l-1.3-1.3c-0.2-0.2-0.2-0.6,0-0.8c0.1-0.1,0.3-0.2,0.4-0.2c0.2,0,0.3,0.1,0.4,0.2l1.3,1.3 c0.1,0.1,0.2,0.3,0.2,0.4c0,0.2-0.1,0.3-0.2,0.4C28.3,18.1,28.2,18.1,28,18.1z"/><path d="M28.6,12.3c-0.3,0-0.6-0.3-0.6-0.6s0.3-0.6,0.6-0.6h1.8c0.3,0,0.6,0.3,0.6,0.6s-0.3,0.6-0.6,0.6H28.6z"/><path d="M26.7,7.9c-0.2,0-0.3-0.1-0.4-0.2c-0.2-0.2-0.2-0.6,0-0.8l1.3-1.3c0.1-0.1,0.3-0.2,0.4-0.2c0.2,0,0.3,0.1,0.4,0.2 c0.2,0.2,0.2,0.6,0,0.8l-1.3,1.3C27,7.8,26.9,7.9,26.7,7.9z"/><path d="M6.9,24.7c-0.2,0-0.3-0.1-0.4-0.2s-0.2-0.3-0.2-0.4c0-0.3,0.3-0.6,0.6-0.6H19c0.3,0,0.6,0.3,0.6,0.6c0,0.3-0.3,0.6-0.6,0.6 H6.9z"/><path d="M6.9,26.9c-0.2,0-0.3-0.1-0.4-0.2s-0.2-0.3-0.2-0.4c0-0.3,0.3-0.6,0.6-0.6L19,25.8c0.2,0,0.3,0.1,0.4,0.2s0.2,0.3,0.2,0.4 c0,0.3-0.3,0.6-0.6,0.6L6.9,26.9z"/></svg>