<svg version="1.1" id="Layer_1" xmlns="http://www.w3.org/2000/svg" xmlns:xlink="http://www.w3.org/1999/xlink" viewBox="0 0 32 32" style="enable-background:new 0 0 32 32;" xml:space="preserve"><path d="M8.4,22.2c-1.2,0-2.3-0.5-3.2-1.4C4.4,20,4,18.9,4,17.6c0-1.2,0.5-2.3,1.3-3.2c0.8-0.8,2-1.3,3.1-1.3h0.1 c0-1.4,0.6-2.7,1.6-3.7c1-1,2.3-1.5,3.7-1.5H14c2.1,0,4.1,1.4,4.9,3.3c0.4-0.1,0.8-0.1,1.1-0.1h0c1.3,0,2.4,0.4,3.2,1.3 c0.7,0.7,1.1,1.6,1.2,2.6h0.1c2,0,3.6,1.6,3.5,3.6c0,2-1.6,3.5-3.6,3.5L8.4,22.2z M8.5,14.4c-0.9,0-1.7,0.3-2.3,0.9 c-0.6,0.6-1,1.4-1,2.3c0,0.9,0.3,1.7,0.9,2.4c0.6,0.6,1.4,1,2.3,1l16,0c1.3,0,2.4-1.1,2.4-2.4c0-1.3-1-2.4-2.4-2.4l-0.6,0 c-0.2,0-0.3-0.1-0.4-0.2c-0.1-0.1-0.2-0.3-0.2-0.4c0-0.9-0.3-1.8-0.9-2.4c-0.6-0.6-1.4-0.9-2.4-0.9c0,0,0,0,0,0 c-0.4,0-0.9,0.1-1.3,0.2c-0.1,0-0.1,0-0.2,0c-0.1,0-0.2,0-0.3-0.1c-0.1-0.1-0.3-0.2-0.3-0.4c-0.5-1.8-2.1-3-4-3h-0.1 c-1.1,0-2.1,0.4-2.9,1.2c-0.8,0.8-1.2,1.8-1.2,2.9c0,0.1,0,0.3,0,0.4c0,0.2,0,0.3-0.1,0.5c-0.1,0.1-0.3,0.2-0.4,0.2H8.5z"/><path d="M9.9,24.7c-0.2,0-0.3-0.1-0.4-0.2c-0.1-0.1-0.2-0.3-0.2-0.4c0-0.3,0.3-0.6,0.6-0.6c0,0,12.1,0,12.1,0c0.3,0,0.6,0.3,0.6,0.6 c0,0.3-0.3,0.6-0.6,0.6H9.9z"/><path d="M9.9,26.9c-0.2,0-0.3-0.1-0.4-0.2c-0.1-0.1-0.2-0.3-0.2-0.4c0-0.3,0.3-0.6,0.6-0.6L22,25.8c0.2,0,0.3,0.1,0.4,0.2 c0.1,0.1,0.2,0.3,0.2,0.4c0,0.3-0.3,0.6-0.6,0.6L9.9,26.9z"/><path d="M9.9,29.1c-0.2,0-0.3-0.1-0.4-0.2c-0.1-0.1-0.2-0.3-0.2-0.4c0-0.3,0.3-0.6,0.6-0.6H22c0.2,0,0.3,0.1,0.4,0.2 c0.1,0.1,0.2,0.3,0.2,0.4c0,0.3-0.3,0.6-0.6,0.6H9.9z"/></svg>