<svg version="1.1" id="Layer_1" xmlns="http://www.w3.org/2000/svg" xmlns:xlink="http://www.w3.org/1999/xlink" viewBox="0 0 32 32" style="enable-background:new 0 0 32 32;" xml:space="preserve"><path d="M14.6,9.2c1.6,0.2,2.9,1.4,3.4,3c0,0.2,0.2,0.3,0.3,0.4c0.1,0,0.2,0.1,0.3,0.1c0.1,0,0.1,0,0.2,0c0.4-0.2,0.8-0.2,1.3-0.2h0 c1.9,0,3.2,1.3,3.2,3.3c0,0.3,0.3,0.6,0.6,0.6l0.6,0c0.6,0,1.2,0.3,1.7,0.7c0.5,0.5,0.7,1.1,0.7,1.7c0,0.6-0.3,1.2-0.7,1.7 c-0.5,0.4-1,0.7-1.7,0.7h0l-1.5,0L10,21l-1.5,0c-1.8,0-3.3-1.5-3.3-3.4l-1.2,0c0,1.2,0.4,2.3,1.3,3.2s2,1.3,3.2,1.4l1.5,0l12.9,0 l1.5,0c0,0,0,0,0,0c0.9,0,1.8-0.4,2.5-1c0.7-0.7,1.1-1.6,1.1-2.5c0-1-0.4-1.9-1-2.5c-0.7-0.7-1.6-1.1-2.5-1.1h-0.1 c-0.2-2.3-2-3.8-4.4-3.9c0,0,0,0-0.1,0c-0.4,0-0.8,0-1.1,0.1c-0.7-1.7-2.3-3-4.1-3.3"/><path d="M9,18.4c-0.3,0-0.6-0.2-0.6-0.5v-0.8l-0.4,0.4c-0.1,0.1-0.2,0.2-0.4,0.2s-0.3-0.1-0.4-0.2c-0.2-0.2-0.2-0.6,0-0.8l1.2-1.2 v-1.9l-1.6,0.9l-0.4,1.6c-0.1,0.2-0.3,0.4-0.5,0.4c-0.1,0-0.1,0-0.1,0c-0.1,0-0.3-0.1-0.3-0.3c-0.1-0.1-0.1-0.3-0.1-0.4l0.1-0.5 l-0.7,0.4c-0.1,0.1-0.2,0.1-0.3,0.1c-0.2,0-0.4-0.1-0.5-0.3c-0.2-0.3-0.1-0.6,0.2-0.8l0.7-0.4l-0.5-0.1c-0.3-0.1-0.5-0.4-0.4-0.7 c0.1-0.2,0.3-0.4,0.5-0.4c0.1,0,0.1,0,0.1,0l1.6,0.4l1.6-0.9l-1.6-0.9l-1.6,0.4c0,0-0.1,0-0.1,0c-0.2,0-0.5-0.2-0.5-0.4 c0-0.1,0-0.3,0.1-0.4s0.2-0.2,0.3-0.3L4.9,11l-0.7-0.4c-0.1-0.1-0.2-0.2-0.3-0.3c0-0.1,0-0.3,0.1-0.4c0.1-0.2,0.3-0.3,0.5-0.3 c0.1,0,0.2,0,0.3,0.1L5.5,10L5.3,9.5c0-0.1,0-0.3,0.1-0.4s0.2-0.2,0.3-0.3c0,0,0.1,0,0.1,0c0.2,0,0.5,0.2,0.5,0.4l0.4,1.6l1.6,0.9 V9.9L7.3,8.7c-0.2-0.2-0.2-0.6,0-0.8c0.1-0.1,0.2-0.2,0.4-0.2S8,7.8,8.1,7.9l0.4,0.4V7.6C8.4,7.2,8.7,7,9,7s0.6,0.2,0.6,0.6v0.8 l0.4-0.4c0.1-0.1,0.2-0.2,0.4-0.2c0.1,0,0.3,0.1,0.4,0.2c0.2,0.2,0.2,0.6,0,0.8L9.6,9.9v1.9l1.6-0.9l0.4-1.6 c0.1-0.2,0.3-0.4,0.5-0.4c0.1,0,0.1,0,0.1,0c0.3,0.1,0.5,0.4,0.4,0.7L12.5,10l0.6-0.4c0.1-0.1,0.2-0.1,0.3-0.1 c0.2,0,0.4,0.1,0.5,0.3C14,10,14,10.1,14,10.3c0,0.1-0.1,0.3-0.3,0.3L13.1,11l0.5,0.1c0.3,0.1,0.5,0.4,0.4,0.7 c-0.1,0.2-0.3,0.4-0.5,0.4c-0.1,0-0.1,0-0.1,0l-1.6-0.4l-1.6,0.9l1.6,0.9l1.6-0.4c0.1,0,0.1,0,0.1,0c0.2,0,0.5,0.2,0.5,0.4 c0.1,0.3-0.1,0.6-0.4,0.7l-0.5,0.1l0.6,0.4c0.3,0.1,0.4,0.5,0.2,0.8c-0.1,0.2-0.3,0.3-0.5,0.3c-0.1,0-0.2,0-0.3-0.1l-0.6-0.4 l0.1,0.5c0.1,0.3-0.1,0.6-0.4,0.7c-0.1,0-0.1,0-0.1,0c-0.2,0-0.5-0.2-0.5-0.4l-0.4-1.6l-1.6-0.9v1.9l1.2,1.2c0.2,0.2,0.2,0.6,0,0.8 c-0.1,0.1-0.2,0.2-0.4,0.2c-0.1,0-0.3-0.1-0.4-0.2l-0.4-0.4v0.8C9.6,18.1,9.3,18.4,9,18.4z"/><path d="M9.9,24.7c-0.2,0-0.3-0.1-0.4-0.2c-0.1-0.1-0.2-0.3-0.2-0.4c0-0.3,0.3-0.6,0.6-0.6c0,0,12.1,0,12.1,0c0.3,0,0.6,0.3,0.6,0.6 c0,0.3-0.3,0.6-0.6,0.6H9.9z"/><path d="M9.9,26.9c-0.2,0-0.3-0.1-0.4-0.2c-0.1-0.1-0.2-0.3-0.2-0.4c0-0.3,0.3-0.6,0.6-0.6L22,25.8c0.2,0,0.3,0.1,0.4,0.2 c0.1,0.1,0.2,0.3,0.2,0.4c0,0.3-0.3,0.6-0.6,0.6L9.9,26.9z"/><path d="M9.9,29.1c-0.2,0-0.3-0.1-0.4-0.2c-0.1-0.1-0.2-0.3-0.2-0.4c0-0.3,0.3-0.6,0.6-0.6H22c0.2,0,0.3,0.1,0.4,0.2 c0.1,0.1,0.2,0.3,0.2,0.4c0,0.3-0.3,0.6-0.6,0.6H9.9z"/></svg>