<svg version="1.1" id="Layer_1" xmlns="http://www.w3.org/2000/svg" xmlns:xlink="http://www.w3.org/1999/xlink" viewBox="0 0 32 32" style="enable-background:new 0 0 32 32;" xml:space="preserve"><path d="M6.9,24.7c-0.2,0-0.3-0.1-0.4-0.2c-0.1-0.1-0.2-0.3-0.2-0.4c0-0.3,0.3-0.6,0.6-0.6c0,0,12.1,0,12.1,0c0.3,0,0.6,0.3,0.6,0.6 c0,0.3-0.3,0.6-0.6,0.6H6.9z"/><path d="M6.9,26.9c-0.2,0-0.3-0.1-0.4-0.2c-0.1-0.1-0.2-0.3-0.2-0.4c0-0.3,0.3-0.6,0.6-0.6L19,25.8c0.2,0,0.3,0.1,0.4,0.2 c0.1,0.1,0.2,0.3,0.2,0.4c0,0.3-0.3,0.6-0.6,0.6L6.9,26.9z"/><path d="M6.9,29.1c-0.2,0-0.3-0.1-0.4-0.2c-0.1-0.1-0.2-0.3-0.2-0.4c0-0.3,0.3-0.6,0.6-0.6H19c0.2,0,0.3,0.1,0.4,0.2 c0.1,0.1,0.2,0.3,0.2,0.4c0,0.3-0.3,0.6-0.6,0.6H6.9z"/><path d="M11.6,9.2c1.6,0.2,2.9,1.4,3.4,3c0,0.2,0.2,0.3,0.3,0.4c0.1,0,0.2,0.1,0.3,0.1c0.1,0,0.1,0,0.2,0c0.4-0.2,0.8-0.2,1.3-0.2h0 c1.9,0,3.2,1.3,3.2,3.3c0,0.3,0.3,0.6,0.6,0.6l0.6,0c0.6,0,1.2,0.3,1.7,0.7c0.5,0.5,0.7,1.1,0.7,1.7c0,0.6-0.3,1.2-0.7,1.7 c-0.5,0.4-1,0.7-1.7,0.7h0l-1.5,0L7,21l-1.5,0c-1.8,0-3.3-1.5-3.3-3.4l-1.2,0c0,1.2,0.4,2.3,1.3,3.2s2,1.3,3.2,1.4l1.5,0l12.9,0 l1.5,0c0,0,0,0,0,0c0.9,0,1.8-0.4,2.5-1c0.7-0.7,1.1-1.6,1.1-2.5c0-1-0.4-1.9-1-2.5c-0.7-0.7-1.6-1.1-2.5-1.1h-0.1 c-0.2-2.3-2-3.8-4.4-3.9c0,0,0,0-0.1,0c-0.4,0-0.8,0-1.1,0.1c-0.7-1.7-2.3-3-4.1-3.3"/><path d="M6,18.4c-0.3,0-0.6-0.2-0.6-0.5v-0.8l-0.4,0.4c-0.1,0.1-0.2,0.2-0.4,0.2s-0.3-0.1-0.4-0.2c-0.2-0.2-0.2-0.6,0-0.8l1.2-1.2 v-1.9l-1.6,0.9l-0.4,1.6c-0.1,0.2-0.3,0.4-0.5,0.4c0,0-0.1,0-0.1,0c-0.1,0-0.3-0.1-0.3-0.3c-0.1-0.1-0.1-0.3-0.1-0.4l0.1-0.5 l-0.6,0.4c-0.1,0.1-0.2,0.1-0.3,0.1c-0.2,0-0.4-0.1-0.5-0.3c-0.1-0.3-0.1-0.6,0.2-0.8l0.6-0.4l-0.5-0.1c-0.3-0.1-0.5-0.4-0.4-0.7 c0.1-0.2,0.3-0.4,0.5-0.4c0,0,0.1,0,0.1,0l1.6,0.4l1.6-0.9l-1.6-0.9l-1.6,0.4c-0.1,0-0.1,0-0.1,0c-0.2,0-0.5-0.2-0.5-0.4 c0-0.1,0-0.3,0.1-0.4s0.2-0.2,0.3-0.3L1.9,11l-0.7-0.4c-0.1-0.1-0.2-0.2-0.3-0.3c0-0.1,0-0.3,0.1-0.4c0.1-0.2,0.3-0.3,0.5-0.3 c0.1,0,0.2,0,0.3,0.1L2.5,10L2.3,9.5c0-0.1,0-0.3,0.1-0.4c0.1-0.1,0.2-0.2,0.3-0.3c0,0,0.1,0,0.1,0c0.2,0,0.5,0.2,0.5,0.4l0.4,1.6 l1.6,0.9V9.9L4.3,8.7c-0.2-0.2-0.2-0.6,0-0.8c0.1-0.1,0.2-0.2,0.4-0.2S5,7.8,5.1,7.9l0.4,0.4V7.6C5.4,7.2,5.7,7,6,7s0.6,0.2,0.6,0.6 v0.8l0.4-0.4C7,7.8,7.2,7.8,7.3,7.8s0.3,0.1,0.4,0.2c0.2,0.2,0.2,0.6,0,0.8L6.6,9.9v1.9l1.6-0.9l0.4-1.6C8.6,9,8.9,8.8,9.1,8.8 c0.1,0,0.1,0,0.1,0c0.3,0.1,0.5,0.4,0.4,0.7L9.5,10l0.6-0.4c0.1-0.1,0.2-0.1,0.3-0.1c0.2,0,0.4,0.1,0.5,0.3C11,10,11,10.1,11,10.3 c0,0.1-0.1,0.3-0.3,0.3L10.1,11l0.5,0.1c0.3,0.1,0.5,0.4,0.4,0.7c-0.1,0.2-0.3,0.4-0.5,0.4c-0.1,0-0.1,0-0.1,0l-1.6-0.4l-1.6,0.9 l1.6,0.9l1.6-0.4c0.1,0,0.1,0,0.1,0c0.2,0,0.5,0.2,0.5,0.4c0.1,0.3-0.1,0.6-0.4,0.7l-0.5,0.1l0.6,0.4c0.3,0.1,0.4,0.5,0.2,0.8 c-0.1,0.2-0.3,0.3-0.5,0.3c-0.1,0-0.2,0-0.3-0.1l-0.6-0.4l0.1,0.5c0.1,0.3-0.1,0.6-0.4,0.7c-0.1,0-0.1,0-0.1,0 c-0.2,0-0.5-0.2-0.5-0.4l-0.4-1.6l-1.6-0.9v1.9l1.2,1.2c0.2,0.2,0.2,0.6,0,0.8c-0.1,0.1-0.2,0.2-0.4,0.2S7,17.6,6.9,17.5l-0.4-0.4 v0.8C6.6,18.1,6.3,18.4,6,18.4z"/><path d="M25.6,16.5c-0.2,0-0.4-0.2-0.4-0.4c0-0.2,0.2-0.5,0.4-0.5c0.3,0,0.5-0.1,0.8-0.1c1.3-0.3,2.4-1,3.2-2.1 c-0.4,0.1-1,0.2-1.6,0.2c-0.6,0-1.2-0.1-1.7-0.2c-1.6-0.5-2.7-1.6-3.2-3.4c-0.6-1.8-0.1-3.7,1.1-4.9c0,0,0,0,0,0 c-2.5,0.6-4.3,2.8-4.2,5.4c0,0.2-0.2,0.4-0.4,0.5c0,0,0,0,0,0c-0.2,0-0.4-0.2-0.4-0.4c-0.1-3,1.9-5.7,4.9-6.3 C24.3,4.1,24.8,4,25.2,4c0.2,0,0.3,0,0.5,0c0.2,0,0.4,0.2,0.4,0.4c0,0.2-0.1,0.4-0.3,0.5c-1.8,0.8-2.6,2.8-2,4.8 c0.5,1.5,1.3,2.4,2.6,2.8c0.4,0.1,0.9,0.2,1.4,0.2c1.2,0,2.2-0.4,2.3-0.5c0.1-0.1,0.2-0.1,0.3-0.1s0.2,0,0.3,0.1 c0.2,0.1,0.2,0.3,0.1,0.5c-0.8,1.8-2.4,3.2-4.4,3.6c-0.1,0-0.2,0-0.2,0C26.1,16.4,25.9,16.4,25.6,16.5 C25.6,16.5,25.6,16.5,25.6,16.5z"/></svg>