<svg version="1.1" xmlns="http://www.w3.org/2000/svg" xmlns:xlink="http://www.w3.org/1999/xlink" viewBox="0 0 32 32" xml:space="preserve"><path d="M16,21.61c-3.09,0-5.61-2.52-5.61-5.61s2.52-5.61,5.61-5.61s5.61,2.52,5.61,5.61S19.09,21.61,16,21.61z M16,11.53c-2.46,0-4.47,2-4.47,4.47c0,2.46,2,4.47,4.47,4.47s4.47-2,4.47-4.47C20.47,13.54,18.46,11.53,16,11.53z"/><path d="M16,9.26c-0.32,0-0.57-0.26-0.57-0.57V6.57C15.43,6.26,15.68,6,16,6s0.57,0.26,0.57,0.57v2.12 C16.57,9.01,16.32,9.26,16,9.26z"/><path d="M10.83,11.4c-0.15,0-0.3-0.06-0.4-0.17l-1.5-1.5c-0.22-0.22-0.22-0.59,0-0.81 c0.11-0.11,0.25-0.17,0.4-0.17s0.3,0.06,0.4,0.17l1.5,1.5c0.22,0.22,0.22,0.59,0,0.81C11.13,11.34,10.98,11.4,10.83,11.4z"/><path d="M6.57,16.57C6.26,16.57,6,16.32,6,16s0.26-0.57,0.57-0.57h2.12c0.32,0,0.57,0.26,0.57,0.57 s-0.26,0.57-0.57,0.57H6.57z"/><path d="M9.33,23.24c-0.15,0-0.3-0.06-0.4-0.17c-0.22-0.22-0.22-0.59,0-0.81l1.5-1.5 c0.11-0.11,0.25-0.17,0.4-0.17c0.15,0,0.3,0.06,0.4,0.17c0.22,0.22,0.22,0.59,0,0.81l-1.5,1.5C9.63,23.18,9.49,23.24,9.33,23.24 z"/><path d="M16,26c-0.32,0-0.57-0.26-0.57-0.57v-2.12c0-0.32,0.26-0.57,0.57-0.57s0.57,0.26,0.57,0.57v2.12 C16.57,25.74,16.32,26,16,26z"/><path d="M22.67,23.24c-0.15,0-0.3-0.06-0.4-0.17l-1.5-1.5c-0.22-0.22-0.22-0.59,0-0.81 c0.11-0.11,0.25-0.17,0.4-0.17c0.15,0,0.3,0.06,0.4,0.17l1.5,1.5c0.22,0.22,0.22,0.59,0,0.81 C22.96,23.18,22.82,23.24,22.67,23.24z"/><path d="M23.31,16.57c-0.32,0-0.57-0.26-0.57-0.57s0.26-0.57,0.57-0.57h2.12c0.32,0,0.57,0.26,0.57,0.57 s-0.26,0.57-0.57,0.57H23.31z"/><path d="M21.17,11.4c-0.15,0-0.3-0.06-0.4-0.17c-0.22-0.22-0.22-0.59,0-0.81l1.5-1.5 c0.11-0.11,0.25-0.17,0.4-0.17c0.15,0,0.3,0.06,0.4,0.17c0.22,0.22,0.22,0.59,0,0.81l-1.5,1.5 C21.47,11.34,21.32,11.4,21.17,11.4z"/></svg>