<svg version="1.1" xmlns="http://www.w3.org/2000/svg" xmlns:xlink="http://www.w3.org/1999/xlink" viewBox="0 0 32 32" xml:space="preserve"><path d="M16.87,25.87C11.43,25.87,7,21.44,7,16c0-5.44,4.43-9.87,9.87-9.87c0.97,0,1.94,0.14,2.87,0.43 c0.26,0.08,0.43,0.32,0.41,0.59c-0.01,0.27-0.21,0.49-0.47,0.54c-3.27,0.65-5.65,3.55-5.65,6.89c0,3.87,3.15,7.03,7.03,7.03 c1.09,0,2.13-0.24,3.1-0.72c0.08-0.04,0.17-0.06,0.26-0.06c0.17,0,0.33,0.08,0.45,0.21c0.17,0.21,0.19,0.5,0.03,0.72 C23.04,24.33,20.04,25.87,16.87,25.87z M16.87,7.3c-4.8,0-8.7,3.9-8.7,8.7s3.9,8.7,8.7,8.7c2.04,0,4.04-0.74,5.6-2.05 c-0.46,0.08-0.94,0.12-1.41,0.12c-4.52,0-8.19-3.68-8.19-8.19c0-3.05,1.74-5.87,4.41-7.27C17.14,7.3,17,7.3,16.87,7.3z"/></svg>