<svg version="1.1" xmlns="http://www.w3.org/2000/svg" xmlns:xlink="http://www.w3.org/1999/xlink" viewBox="0 0 32 32" xml:space="preserve"><path d="M27.36,22.1l-0.43-1.11c0.47-0.09,0.9-0.31,1.25-0.65c0.46-0.45,0.71-1.05,0.72-1.7 c0-0.64-0.24-1.25-0.69-1.71c-0.45-0.46-1.05-0.71-1.7-0.72l-0.63,0c-0.16,0-0.31-0.07-0.42-0.18c-0.11-0.11-0.17-0.26-0.17-0.42 c0.01-0.95-0.3-1.77-0.88-2.35c-0.58-0.58-1.4-0.9-2.36-0.9l-0.04,0c-0.43,0-0.87,0.08-1.28,0.25c-0.07,0.03-0.14,0.04-0.22,0.04 c-0.09,0-0.18-0.02-0.26-0.06c-0.15-0.07-0.26-0.21-0.31-0.37c-0.51-1.77-2.15-3.02-3.99-3.03l-0.03,0 c-1.39,0-2.63,0.69-3.39,1.74l-0.91-0.77C12.59,8.85,14.15,8,15.89,8l0.06,0c2.15,0.02,4.1,1.34,4.92,3.31 c0.37-0.09,0.77-0.14,1.17-0.14c1.28,0.01,2.39,0.44,3.19,1.25c0.68,0.68,1.09,1.58,1.2,2.6l0.07,0 c0.96,0.01,1.86,0.39,2.53,1.07c0.67,0.68,1.04,1.59,1.03,2.55c-0.01,0.96-0.39,1.86-1.07,2.53 C28.51,21.66,28.03,21.96,27.36,22.1"/><path d="M6.47,26.25c-1.2-0.01-2.33-0.48-3.18-1.34c-0.84-0.86-1.3-1.99-1.3-3.19c0.01-1.2,0.48-2.33,1.34-3.17 c0.85-0.84,1.97-1.3,3.16-1.3l0.05,0C6.61,14.34,8.99,12,11.89,12l0.06,0c2.15,0.02,4.1,1.34,4.92,3.31 c0.37-0.09,0.77-0.14,1.17-0.14c1.28,0.01,2.39,0.44,3.19,1.25c0.68,0.68,1.09,1.58,1.2,2.6l0.07,0 c0.96,0.01,1.86,0.39,2.53,1.07c0.67,0.68,1.04,1.59,1.03,2.55c-0.01,0.96-0.39,1.86-1.07,2.53c-0.68,0.67-1.58,1.03-2.54,1.03 L6.47,26.25L6.47,26.25z M6.5,18.43c-0.88,0-1.7,0.34-2.33,0.95c-0.63,0.62-0.98,1.45-0.99,2.34c-0.01,0.89,0.33,1.72,0.95,2.35 c0.62,0.63,1.45,0.98,2.34,0.99l16-0.04c0.64,0,1.24-0.25,1.69-0.69c0.46-0.45,0.71-1.05,0.72-1.7c0-0.64-0.24-1.25-0.69-1.71 c-0.45-0.46-1.05-0.71-1.7-0.72l-0.63,0c-0.16,0-0.31-0.07-0.42-0.18c-0.11-0.11-0.17-0.26-0.17-0.42 c0.01-0.95-0.3-1.77-0.88-2.35c-0.58-0.58-1.4-0.9-2.36-0.9l-0.04,0c-0.43,0-0.87,0.08-1.28,0.25c-0.07,0.03-0.14,0.04-0.22,0.04 c-0.09,0-0.18-0.02-0.26-0.06c-0.15-0.07-0.26-0.21-0.31-0.37c-0.51-1.77-2.15-3.02-3.99-3.03l-0.03,0 c-2.29,0-4.17,1.86-4.18,4.15c0,0.15,0.01,0.3,0.02,0.44c0.02,0.17-0.04,0.33-0.15,0.46c-0.11,0.12-0.26,0.18-0.43,0.19l-0.01,0 L6.5,18.43z"/></svg>