<svg version="1.1" xmlns="http://www.w3.org/2000/svg" xmlns:xlink="http://www.w3.org/1999/xlink" viewBox="0 0 32 32" xml:space="preserve"><path d="M8.44,22.19c-1.2-0.01-2.32-0.49-3.16-1.35c-0.84-0.86-1.3-1.99-1.29-3.18 c0.02-2.45,2.04-4.44,4.49-4.44l0.06,0c0.04-1.4,0.6-2.7,1.6-3.68C11.15,8.54,12.49,8,13.91,8l0.03,0 c2.14,0.02,4.09,1.34,4.9,3.32c0.37-0.09,0.76-0.14,1.15-0.14l0.02,0c1.28,0.01,2.38,0.45,3.18,1.25 c0.67,0.68,1.08,1.57,1.19,2.6l0.07,0c0.95,0.01,1.85,0.39,2.52,1.07c0.67,0.68,1.03,1.59,1.03,2.54 c-0.02,1.96-1.62,3.55-3.58,3.55l-1.57-0.01c-0.33,0-0.59-0.27-0.59-0.6c0-0.32,0.27-0.59,0.59-0.59l1.56,0.01 c1.31,0,2.38-1.06,2.4-2.37c0.01-1.32-1.05-2.41-2.37-2.42l-0.63-0.01c-0.16,0-0.31-0.07-0.42-0.18 c-0.11-0.11-0.17-0.26-0.17-0.42c0.01-0.95-0.29-1.76-0.87-2.35c-0.58-0.58-1.39-0.9-2.35-0.9l-0.04,0 c-0.44,0-0.87,0.08-1.28,0.24c-0.07,0.03-0.14,0.04-0.22,0.04c-0.09,0-0.18-0.02-0.26-0.06c-0.15-0.07-0.26-0.21-0.31-0.37 c-0.5-1.77-2.13-3.01-3.97-3.03l-0.04,0c-1.1,0-2.13,0.42-2.92,1.19c-0.8,0.78-1.24,1.82-1.25,2.94c0,0.14,0.01,0.29,0.02,0.44 c0.02,0.17-0.04,0.33-0.15,0.46c-0.11,0.12-0.27,0.19-0.44,0.19L8.49,14.4c-1.8,0-3.29,1.47-3.3,3.27 c-0.01,0.88,0.33,1.71,0.95,2.34c0.62,0.63,1.44,0.98,2.33,0.99l1.54,0.01c0.33,0,0.59,0.27,0.59,0.6 c0,0.32-0.27,0.59-0.59,0.59L8.44,22.19z"/><path d="M11.72,23.64c-0.09,0-0.18-0.02-0.26-0.06c-0.14-0.07-0.25-0.19-0.3-0.34 c-0.05-0.15-0.04-0.31,0.03-0.45l0.29-0.59c0.1-0.2,0.31-0.33,0.54-0.33c0.09,0,0.17,0.02,0.25,0.06 c0.2,0.1,0.33,0.31,0.33,0.54c0,0.09-0.02,0.18-0.06,0.26l-0.29,0.59C12.15,23.51,11.94,23.64,11.72,23.64z M12.68,21.67 c-0.09,0-0.18-0.02-0.26-0.06c-0.14-0.07-0.25-0.19-0.3-0.34c-0.05-0.15-0.04-0.31,0.03-0.46l0.29-0.59 c0.1-0.2,0.31-0.33,0.54-0.33c0.09,0,0.17,0.02,0.25,0.06c0.29,0.15,0.42,0.5,0.28,0.79l-0.29,0.59 C13.11,21.54,12.91,21.67,12.68,21.67z"/><path d="M14.37,23.64c-0.07,0-0.16-0.01-0.26-0.06c-0.29-0.14-0.41-0.5-0.27-0.79l0.29-0.59 c0.1-0.2,0.31-0.33,0.54-0.33c0.09,0,0.18,0.02,0.26,0.06c0.2,0.09,0.33,0.3,0.33,0.53c0,0.09-0.02,0.18-0.06,0.26l-0.29,0.59 C14.81,23.51,14.6,23.64,14.37,23.64z M15.33,21.67c-0.09,0-0.18-0.02-0.26-0.06c-0.14-0.07-0.25-0.19-0.3-0.34 c-0.05-0.15-0.04-0.31,0.03-0.45l0.29-0.59c0.1-0.2,0.31-0.33,0.54-0.33c0.09,0,0.17,0.02,0.25,0.06 c0.29,0.14,0.42,0.5,0.27,0.79l-0.29,0.59C15.77,21.53,15.56,21.67,15.33,21.67z"/><path d="M19.68,23.64c-0.09,0-0.18-0.02-0.26-0.06c-0.14-0.07-0.25-0.19-0.3-0.34 c-0.05-0.15-0.04-0.31,0.03-0.45l0.29-0.59c0.1-0.2,0.31-0.33,0.54-0.33c0.09,0,0.18,0.02,0.26,0.06 c0.2,0.09,0.33,0.3,0.33,0.53c0,0.09-0.02,0.18-0.06,0.26l-0.29,0.59C20.11,23.51,19.91,23.64,19.68,23.64z M20.64,21.67 c-0.09,0-0.18-0.02-0.26-0.06c-0.29-0.14-0.41-0.5-0.27-0.79l0.29-0.59c0.1-0.2,0.31-0.33,0.54-0.33c0.09,0,0.18,0.02,0.26,0.06 c0.14,0.07,0.25,0.19,0.3,0.34c0.05,0.15,0.04,0.31-0.03,0.45l-0.29,0.59C21.07,21.54,20.87,21.67,20.64,21.67z"/><path d="M17.02,23.64c-0.09,0-0.18-0.02-0.26-0.06c-0.14-0.07-0.25-0.19-0.3-0.34 c-0.05-0.15-0.04-0.31,0.03-0.45l0.29-0.59c0.1-0.2,0.31-0.33,0.54-0.33c0.09,0,0.17,0.02,0.25,0.06 c0.2,0.1,0.33,0.31,0.33,0.54c0,0.08-0.02,0.17-0.06,0.25l-0.29,0.6C17.46,23.51,17.25,23.64,17.02,23.64z M17.99,21.67 c-0.09,0-0.18-0.02-0.26-0.06c-0.29-0.14-0.41-0.49-0.27-0.79l0.29-0.59c0.1-0.2,0.31-0.33,0.54-0.33 c0.09,0,0.17,0.02,0.25,0.06c0.29,0.14,0.42,0.5,0.27,0.79l-0.29,0.59C18.42,21.53,18.21,21.67,17.99,21.67z"/></svg>