<svg version="1.1" xmlns="http://www.w3.org/2000/svg" xmlns:xlink="http://www.w3.org/1999/xlink" viewBox="0 0 32 32" xml:space="preserve"><path d="M5.44,22.19c-1.2-0.01-2.32-0.49-3.16-1.35c-0.84-0.86-1.3-1.99-1.29-3.18 c0.02-2.45,2.04-4.44,4.49-4.44l0.06,0c0.04-1.4,0.6-2.7,1.6-3.68C8.15,8.54,9.49,8,10.91,8l0.03,0 c2.14,0.02,4.09,1.34,4.9,3.32c0.37-0.09,0.76-0.14,1.15-0.14l0.02,0c1.28,0.01,2.38,0.45,3.18,1.25 c0.67,0.68,1.08,1.57,1.19,2.6l0.07,0c0.95,0.01,1.85,0.39,2.52,1.07c0.67,0.68,1.03,1.59,1.03,2.54 c-0.02,1.96-1.62,3.55-3.58,3.55l-1.57-0.01c-0.33,0-0.59-0.27-0.59-0.6c0-0.32,0.27-0.59,0.59-0.59l1.56,0.01 c1.31,0,2.38-1.06,2.4-2.37c0.01-1.32-1.05-2.41-2.37-2.42l-0.63-0.01c-0.16,0-0.31-0.07-0.42-0.18 c-0.11-0.11-0.17-0.26-0.17-0.42c0.01-0.95-0.29-1.76-0.87-2.35c-0.58-0.58-1.39-0.9-2.35-0.9l-0.04,0 c-0.44,0-0.87,0.08-1.28,0.24c-0.07,0.03-0.14,0.04-0.22,0.04c-0.09,0-0.18-0.02-0.26-0.06c-0.15-0.07-0.26-0.21-0.31-0.37 c-0.5-1.77-2.13-3.01-3.97-3.03l-0.04,0c-1.1,0-2.13,0.42-2.92,1.19c-0.8,0.78-1.24,1.82-1.25,2.94c0,0.14,0.01,0.29,0.02,0.44 c0.02,0.17-0.04,0.33-0.15,0.46c-0.11,0.12-0.27,0.19-0.44,0.19L5.49,14.4c-1.8,0-3.29,1.47-3.3,3.27 c-0.01,0.88,0.33,1.71,0.95,2.34c0.62,0.63,1.44,0.98,2.33,0.99l1.54,0.01c0.33,0,0.59,0.27,0.59,0.6 c0,0.32-0.27,0.59-0.59,0.59L5.44,22.19z"/><path d="M8.72,23.64c-0.09,0-0.18-0.02-0.26-0.06c-0.14-0.07-0.25-0.19-0.3-0.34c-0.05-0.15-0.04-0.31,0.03-0.45 l0.29-0.59c0.1-0.2,0.31-0.33,0.54-0.33c0.09,0,0.17,0.02,0.25,0.06c0.2,0.1,0.33,0.31,0.33,0.54c0,0.09-0.02,0.18-0.06,0.26 l-0.29,0.59C9.15,23.51,8.94,23.64,8.72,23.64z M9.68,21.67c-0.09,0-0.18-0.02-0.26-0.06c-0.14-0.07-0.25-0.19-0.3-0.34 c-0.05-0.15-0.04-0.31,0.03-0.46l0.29-0.59c0.1-0.2,0.31-0.33,0.54-0.33c0.09,0,0.17,0.02,0.25,0.06 c0.29,0.15,0.42,0.5,0.28,0.79l-0.29,0.59C10.11,21.54,9.91,21.67,9.68,21.67z"/><path d="M11.37,23.64c-0.07,0-0.16-0.01-0.26-0.06c-0.29-0.14-0.41-0.5-0.27-0.79l0.29-0.59 c0.1-0.2,0.31-0.33,0.54-0.33c0.09,0,0.18,0.02,0.26,0.06c0.2,0.09,0.33,0.3,0.33,0.53c0,0.09-0.02,0.18-0.06,0.26l-0.29,0.59 C11.81,23.51,11.6,23.64,11.37,23.64z M12.33,21.67c-0.09,0-0.18-0.02-0.26-0.06c-0.14-0.07-0.25-0.19-0.3-0.34 c-0.05-0.15-0.04-0.31,0.03-0.45l0.29-0.59c0.1-0.2,0.31-0.33,0.54-0.33c0.09,0,0.17,0.02,0.25,0.06 c0.29,0.14,0.42,0.5,0.27,0.79l-0.29,0.59C12.77,21.53,12.56,21.67,12.33,21.67z"/><path d="M16.68,23.64c-0.09,0-0.18-0.02-0.26-0.06c-0.14-0.07-0.25-0.19-0.3-0.34 c-0.05-0.15-0.04-0.31,0.03-0.45l0.29-0.59c0.1-0.2,0.31-0.33,0.54-0.33c0.09,0,0.18,0.02,0.26,0.06 c0.2,0.09,0.33,0.3,0.33,0.53c0,0.09-0.02,0.18-0.06,0.26l-0.29,0.59C17.11,23.51,16.91,23.64,16.68,23.64z M17.64,21.67 c-0.09,0-0.18-0.02-0.26-0.06c-0.29-0.14-0.41-0.5-0.27-0.79l0.29-0.59c0.1-0.2,0.31-0.33,0.54-0.33c0.09,0,0.18,0.02,0.26,0.06 c0.14,0.07,0.25,0.19,0.3,0.34c0.05,0.15,0.04,0.31-0.03,0.45l-0.29,0.59C18.07,21.54,17.87,21.67,17.64,21.67z"/><path d="M14.02,23.64c-0.09,0-0.18-0.02-0.26-0.06c-0.14-0.07-0.25-0.19-0.3-0.34 c-0.05-0.15-0.04-0.31,0.03-0.45l0.29-0.59c0.1-0.2,0.31-0.33,0.54-0.33c0.09,0,0.17,0.02,0.25,0.06 c0.2,0.1,0.33,0.31,0.33,0.54c0,0.08-0.02,0.17-0.06,0.25l-0.29,0.6C14.46,23.51,14.25,23.64,14.02,23.64z M14.99,21.67 c-0.09,0-0.18-0.02-0.26-0.06c-0.29-0.14-0.41-0.49-0.27-0.79l0.29-0.59c0.1-0.2,0.31-0.33,0.54-0.33 c0.09,0,0.17,0.02,0.25,0.06c0.29,0.14,0.42,0.5,0.27,0.79l-0.29,0.59C15.42,21.53,15.21,21.67,14.99,21.67z"/><path d="M6.74,27.63c-0.09,0-0.18-0.02-0.26-0.06c-0.14-0.07-0.25-0.19-0.3-0.34c-0.05-0.15-0.04-0.31,0.03-0.45 l0.29-0.59c0.1-0.2,0.31-0.33,0.54-0.33c0.09,0,0.17,0.02,0.25,0.06c0.2,0.1,0.33,0.31,0.33,0.54c0,0.09-0.02,0.18-0.06,0.26 l-0.29,0.59C7.18,27.5,6.97,27.63,6.74,27.63z M7.71,25.65c-0.09,0-0.18-0.02-0.26-0.06c-0.14-0.07-0.25-0.19-0.3-0.34 c-0.05-0.15-0.04-0.31,0.03-0.46l0.29-0.59c0.1-0.2,0.31-0.33,0.54-0.33c0.09,0,0.17,0.02,0.25,0.06 c0.29,0.15,0.42,0.5,0.28,0.79l-0.29,0.59C8.14,25.53,7.93,25.65,7.71,25.65z"/><path d="M9.4,27.63c-0.07,0-0.16-0.01-0.26-0.06c-0.29-0.14-0.41-0.5-0.27-0.79l0.29-0.59 c0.1-0.2,0.31-0.33,0.54-0.33c0.09,0,0.18,0.02,0.26,0.06c0.2,0.09,0.33,0.3,0.33,0.53c0,0.09-0.02,0.18-0.06,0.26l-0.29,0.59 C9.83,27.5,9.63,27.63,9.4,27.63z M10.36,25.65c-0.09,0-0.18-0.02-0.26-0.06c-0.14-0.07-0.25-0.19-0.3-0.34 c-0.05-0.15-0.04-0.31,0.03-0.45l0.29-0.59c0.1-0.2,0.31-0.33,0.54-0.33c0.09,0,0.17,0.02,0.25,0.06 c0.29,0.14,0.42,0.5,0.27,0.79l-0.29,0.59C10.79,25.52,10.58,25.65,10.36,25.65z"/><path d="M14.7,27.63c-0.09,0-0.18-0.02-0.26-0.06c-0.14-0.07-0.25-0.19-0.3-0.34c-0.05-0.15-0.04-0.31,0.03-0.45 l0.29-0.59c0.1-0.2,0.31-0.33,0.54-0.33c0.09,0,0.18,0.02,0.26,0.06c0.2,0.09,0.33,0.3,0.33,0.53c0,0.09-0.02,0.18-0.06,0.26 l-0.29,0.59C15.14,27.5,14.93,27.63,14.7,27.63z M15.66,25.65c-0.09,0-0.18-0.02-0.26-0.06c-0.29-0.14-0.41-0.5-0.27-0.79 l0.29-0.59c0.1-0.2,0.31-0.33,0.54-0.33c0.09,0,0.18,0.02,0.26,0.06c0.14,0.07,0.25,0.19,0.3,0.34 c0.05,0.15,0.04,0.31-0.03,0.45l-0.29,0.59C16.1,25.53,15.89,25.65,15.66,25.65z"/><path d="M12.05,27.63c-0.09,0-0.18-0.02-0.26-0.06c-0.14-0.07-0.25-0.19-0.3-0.34 c-0.05-0.15-0.04-0.31,0.03-0.45l0.29-0.59c0.1-0.2,0.31-0.33,0.54-0.33c0.09,0,0.17,0.02,0.25,0.06 c0.2,0.1,0.33,0.31,0.33,0.54c0,0.08-0.02,0.17-0.06,0.25l-0.29,0.6C12.48,27.5,12.27,27.63,12.05,27.63z M13.01,25.65 c-0.09,0-0.18-0.02-0.26-0.06c-0.29-0.14-0.41-0.49-0.27-0.79l0.29-0.59c0.1-0.2,0.31-0.33,0.54-0.33 c0.09,0,0.17,0.02,0.25,0.06c0.29,0.14,0.42,0.5,0.27,0.79l-0.29,0.59C13.45,25.52,13.24,25.65,13.01,25.65z"/><path d="M25.61,16.46c-0.23,0-0.43-0.18-0.44-0.42c-0.02-0.24,0.17-0.46,0.41-0.47c0.26-0.02,0.53-0.06,0.79-0.11 c1.29-0.28,2.43-1.03,3.19-2.1c-0.42,0.1-0.99,0.19-1.64,0.19c-0.6,0-1.16-0.08-1.68-0.24c-1.58-0.48-2.66-1.62-3.21-3.39 c-0.58-1.83-0.15-3.69,1.08-4.92c-0.01,0-0.01,0-0.02,0c-2.53,0.55-4.3,2.83-4.2,5.42c0.01,0.24-0.18,0.45-0.43,0.46 c-0.01,0-0.01,0-0.02,0c-0.24,0-0.44-0.19-0.44-0.43c-0.12-3.02,1.94-5.68,4.9-6.33C24.34,4.05,24.79,4,25.24,4 c0.16,0,0.33,0.01,0.49,0.02c0.2,0.02,0.37,0.17,0.4,0.37c0.03,0.2-0.07,0.4-0.26,0.48c-1.78,0.78-2.62,2.79-1.99,4.79 c0.46,1.47,1.34,2.41,2.62,2.8c0.44,0.14,0.93,0.2,1.44,0.2c1.2,0,2.18-0.37,2.32-0.49c0.08-0.06,0.18-0.1,0.28-0.1 c0.1,0,0.19,0.03,0.27,0.09c0.16,0.12,0.22,0.34,0.14,0.53c-0.8,1.84-2.44,3.2-4.39,3.63c-0.08,0.02-0.17,0.04-0.25,0.05 c-0.22,0.04-0.45,0.07-0.67,0.08C25.63,16.46,25.62,16.46,25.61,16.46z"/></svg>