<svg version="1.1" xmlns="http://www.w3.org/2000/svg" xmlns:xlink="http://www.w3.org/1999/xlink" viewBox="0 0 32 32" xml:space="preserve"><path d="M14.74,8.06c1.84,0.29,3.43,1.53,4.14,3.28c0.36-0.09,0.73-0.13,1.11-0.13c0.02,0,0.04,0,0.06,0 c2.4,0.03,4.12,1.58,4.35,3.87l0.07,0c0.96,0.01,1.85,0.4,2.52,1.09c0.67,0.69,1.03,1.59,1.01,2.55 c-0.01,0.96-0.4,1.85-1.08,2.52c-0.67,0.65-1.56,1.01-2.49,1.01c-0.02,0-0.04,0-0.05,0l-1.53-0.02c-0.16,0-0.31-0.07-0.42-0.18 c-0.11-0.11-0.17-0.26-0.17-0.42c0-0.32,0.27-0.58,0.59-0.58l1.54,0.02l0.04,0c0.63,0,1.22-0.24,1.67-0.68 c0.46-0.45,0.72-1.04,0.73-1.68c0.01-0.64-0.23-1.25-0.68-1.7c-0.45-0.46-1.04-0.72-1.68-0.73l-0.63-0.01 c-0.33,0-0.59-0.27-0.58-0.6c0.03-1.93-1.26-3.24-3.2-3.27l-0.05,0c-0.43,0-0.86,0.08-1.27,0.24 c-0.07,0.03-0.14,0.04-0.21,0.04c-0.09,0-0.18-0.02-0.27-0.06c-0.15-0.08-0.26-0.21-0.3-0.37c-0.44-1.58-1.78-2.75-3.38-3"/><path d="M5.19,17.63c-0.03,1.82,1.43,3.33,3.26,3.35L9.98,21c0.33,0,0.59,0.27,0.58,0.6 c0,0.32-0.27,0.58-0.59,0.58l-1.54-0.02c-1.2-0.02-2.32-0.5-3.15-1.36C4.44,19.94,3.98,18.81,4,17.61"/><path d="M10.14,25.87c-0.09,0-0.18-0.02-0.26-0.06c-0.14-0.07-0.25-0.19-0.3-0.34 c-0.05-0.15-0.04-0.31,0.03-0.45l2.84-4.78c0.1-0.21,0.3-0.33,0.53-0.33c0.09,0,0.18,0.02,0.26,0.06 c0.14,0.07,0.25,0.19,0.3,0.34c0.05,0.15,0.04,0.31-0.03,0.45l-2.84,4.78C10.58,25.74,10.37,25.87,10.14,25.87z"/><path d="M12.8,25.87c-0.09,0-0.18-0.02-0.26-0.06c-0.14-0.07-0.25-0.19-0.3-0.34 c-0.05-0.15-0.04-0.31,0.03-0.45l2.84-4.78c0.1-0.2,0.31-0.33,0.53-0.33c0.09,0,0.18,0.02,0.26,0.06 c0.29,0.14,0.42,0.5,0.27,0.79l-2.84,4.78C13.23,25.74,13.02,25.87,12.8,25.87z"/><path d="M18.1,25.87c-0.09,0-0.18-0.02-0.26-0.06c-0.29-0.14-0.42-0.5-0.27-0.79l2.84-4.78 c0.1-0.21,0.3-0.33,0.53-0.33c0.09,0,0.18,0.02,0.26,0.06c0.14,0.07,0.25,0.19,0.3,0.34c0.05,0.15,0.04,0.31-0.03,0.45 l-2.84,4.78C18.54,25.74,18.33,25.87,18.1,25.87z"/><path d="M15.45,25.87c-0.09,0-0.18-0.02-0.26-0.06c-0.14-0.07-0.25-0.19-0.3-0.34 c-0.05-0.15-0.04-0.31,0.03-0.45l2.84-4.78c0.1-0.21,0.3-0.33,0.53-0.33c0.09,0,0.18,0.02,0.26,0.06 c0.14,0.07,0.25,0.19,0.3,0.34c0.05,0.15,0.04,0.31-0.03,0.45l-2.84,4.78C15.88,25.74,15.68,25.87,15.45,25.87z"/><path d="M9,18.37c-0.31,0-0.55-0.25-0.55-0.55v-0.75l-0.38,0.38c-0.1,0.1-0.24,0.16-0.39,0.16 c-0.15,0-0.29-0.06-0.39-0.16c-0.22-0.22-0.22-0.57,0-0.78l1.16-1.16v-1.85l-1.6,0.93l-0.43,1.59 c-0.07,0.24-0.29,0.41-0.54,0.41c-0.05,0-0.1-0.01-0.14-0.02c-0.14-0.04-0.26-0.13-0.34-0.26c-0.07-0.13-0.09-0.28-0.06-0.42 l0.14-0.52l-0.65,0.37c-0.08,0.05-0.18,0.07-0.28,0.07c-0.2,0-0.38-0.11-0.48-0.28c-0.15-0.27-0.06-0.61,0.2-0.76l0.65-0.37 l-0.52-0.14c-0.3-0.08-0.47-0.38-0.39-0.68c0.07-0.24,0.29-0.41,0.54-0.41c0.05,0,0.1,0.01,0.14,0.02l1.59,0.43l1.6-0.93 l-1.6-0.93L4.7,12.18C4.65,12.2,4.6,12.2,4.56,12.2c-0.25,0-0.47-0.17-0.54-0.41C3.98,11.65,4,11.5,4.07,11.37 c0.07-0.13,0.19-0.22,0.34-0.26l0.52-0.14L4.28,10.6c-0.13-0.07-0.22-0.19-0.26-0.34C3.98,10.12,4,9.97,4.08,9.84 c0.1-0.17,0.28-0.28,0.48-0.28c0.1,0,0.19,0.03,0.28,0.07l0.65,0.37L5.34,9.5C5.31,9.35,5.32,9.2,5.4,9.08s0.19-0.22,0.34-0.26 C5.78,8.8,5.83,8.8,5.88,8.8c0.25,0,0.47,0.17,0.54,0.41l0.43,1.59l1.6,0.93V9.87L7.28,8.71c-0.22-0.22-0.22-0.57,0-0.78 c0.1-0.1,0.24-0.16,0.39-0.16c0.15,0,0.29,0.06,0.39,0.16L8.45,8.3V7.55C8.45,7.25,8.69,7,9,7c0.31,0,0.55,0.25,0.55,0.55V8.3 l0.38-0.38c0.1-0.1,0.24-0.16,0.39-0.16c0.15,0,0.29,0.06,0.39,0.16c0.22,0.22,0.22,0.57,0,0.78L9.55,9.87v1.85l1.6-0.93 l0.43-1.59c0.07-0.24,0.29-0.41,0.54-0.41c0.05,0,0.1,0.01,0.14,0.02c0.3,0.08,0.47,0.38,0.39,0.68l-0.14,0.52l0.65-0.37 c0.08-0.05,0.18-0.07,0.28-0.07c0.2,0,0.38,0.11,0.48,0.28c0.07,0.13,0.09,0.28,0.06,0.42c-0.04,0.14-0.13,0.26-0.26,0.34 l-0.65,0.37l0.52,0.14c0.3,0.08,0.47,0.38,0.39,0.68c-0.07,0.24-0.29,0.41-0.54,0.41c-0.05,0-0.1-0.01-0.14-0.02l-1.59-0.43 l-1.6,0.93l1.6,0.93l1.59-0.43c0.05-0.01,0.1-0.02,0.14-0.02c0.25,0,0.47,0.17,0.54,0.41c0.08,0.3-0.1,0.6-0.39,0.68l-0.52,0.14 l0.65,0.37c0.26,0.15,0.36,0.49,0.2,0.76c-0.1,0.17-0.28,0.28-0.48,0.28c-0.1,0-0.19-0.03-0.28-0.07l-0.65-0.37l0.14,0.52 c0.08,0.3-0.1,0.6-0.39,0.68c-0.05,0.01-0.1,0.02-0.14,0.02c-0.25,0-0.47-0.17-0.54-0.41l-0.43-1.59l-1.6-0.93v1.85l1.16,1.16 c0.22,0.22,0.22,0.57,0,0.78c-0.1,0.1-0.24,0.16-0.39,0.16c-0.15,0-0.29-0.06-0.39-0.16l-0.38-0.38v0.75 C9.55,18.12,9.31,18.37,9,18.37z"/></svg>