<svg version="1.1" xmlns="http://www.w3.org/2000/svg" xmlns:xlink="http://www.w3.org/1999/xlink" viewBox="0 0 32 32" xml:space="preserve"><path d="M11.74,8.06c1.84,0.29,3.43,1.53,4.14,3.28c0.36-0.09,0.73-0.13,1.11-0.13c0.02,0,0.04,0,0.06,0 c2.4,0.03,4.12,1.58,4.35,3.87l0.07,0c0.96,0.01,1.85,0.4,2.52,1.09c0.67,0.69,1.03,1.59,1.01,2.55 c-0.01,0.96-0.4,1.85-1.08,2.52c-0.67,0.65-1.56,1.01-2.49,1.01c-0.02,0-0.04,0-0.05,0l-1.53-0.02c-0.16,0-0.31-0.07-0.42-0.18 c-0.11-0.11-0.17-0.26-0.17-0.42c0-0.32,0.27-0.58,0.59-0.58l1.54,0.02l0.04,0c0.63,0,1.22-0.24,1.67-0.68 c0.46-0.45,0.72-1.04,0.73-1.68c0.01-0.64-0.23-1.25-0.68-1.7c-0.45-0.46-1.04-0.72-1.68-0.73l-0.63-0.01 c-0.33,0-0.59-0.27-0.58-0.6c0.03-1.93-1.26-3.24-3.2-3.27l-0.05,0c-0.43,0-0.86,0.08-1.27,0.24 c-0.07,0.03-0.14,0.04-0.21,0.04c-0.09,0-0.18-0.02-0.27-0.06c-0.15-0.08-0.26-0.21-0.3-0.37c-0.44-1.58-1.78-2.75-3.38-3"/><path d="M2.19,17.63c-0.03,1.82,1.43,3.33,3.26,3.35L6.98,21c0.33,0,0.59,0.27,0.58,0.6 c0,0.32-0.27,0.58-0.59,0.58l-1.54-0.02c-1.2-0.02-2.32-0.5-3.15-1.36C1.44,19.94,0.98,18.81,1,17.61"/><path d="M7.14,25.87c-0.09,0-0.18-0.02-0.26-0.06c-0.14-0.07-0.25-0.19-0.3-0.34 c-0.05-0.15-0.04-0.31,0.03-0.45l2.84-4.78c0.1-0.21,0.3-0.33,0.53-0.33c0.09,0,0.18,0.02,0.26,0.06 c0.14,0.07,0.25,0.19,0.3,0.34c0.05,0.15,0.04,0.31-0.03,0.45l-2.84,4.78C7.58,25.74,7.37,25.87,7.14,25.87z"/><path d="M9.8,25.87c-0.09,0-0.18-0.02-0.26-0.06c-0.14-0.07-0.25-0.19-0.3-0.34c-0.05-0.15-0.04-0.31,0.03-0.45 l2.84-4.78c0.1-0.2,0.31-0.33,0.53-0.33c0.09,0,0.18,0.02,0.26,0.06c0.29,0.14,0.42,0.5,0.27,0.79l-2.84,4.78 C10.23,25.74,10.02,25.87,9.8,25.87z"/><path d="M15.1,25.87c-0.09,0-0.18-0.02-0.26-0.06c-0.29-0.14-0.42-0.5-0.27-0.79l2.84-4.78 c0.1-0.21,0.3-0.33,0.53-0.33c0.09,0,0.18,0.02,0.26,0.06c0.14,0.07,0.25,0.19,0.3,0.34c0.05,0.15,0.04,0.31-0.03,0.45 l-2.84,4.78C15.54,25.74,15.33,25.87,15.1,25.87z"/><path d="M12.45,25.87c-0.09,0-0.18-0.02-0.26-0.06c-0.14-0.07-0.25-0.19-0.3-0.34 c-0.05-0.15-0.04-0.31,0.03-0.45l2.84-4.78c0.1-0.21,0.3-0.33,0.53-0.33c0.09,0,0.18,0.02,0.26,0.06 c0.14,0.07,0.25,0.19,0.3,0.34c0.05,0.15,0.04,0.31-0.03,0.45l-2.84,4.78C12.88,25.74,12.68,25.87,12.45,25.87z"/><path d="M6,18.37c-0.31,0-0.55-0.25-0.55-0.55v-0.75l-0.38,0.38c-0.1,0.1-0.24,0.16-0.39,0.16 c-0.15,0-0.29-0.06-0.39-0.16c-0.22-0.22-0.22-0.57,0-0.78l1.16-1.16v-1.85l-1.6,0.93l-0.43,1.59 c-0.07,0.24-0.29,0.41-0.54,0.41c-0.05,0-0.1-0.01-0.14-0.02c-0.14-0.04-0.26-0.13-0.34-0.26c-0.07-0.13-0.09-0.28-0.06-0.42 l0.14-0.52l-0.65,0.37c-0.08,0.05-0.18,0.07-0.28,0.07c-0.2,0-0.38-0.11-0.48-0.28c-0.15-0.27-0.06-0.61,0.2-0.76l0.65-0.37 l-0.52-0.14c-0.3-0.08-0.47-0.38-0.39-0.68c0.07-0.24,0.29-0.41,0.54-0.41c0.05,0,0.1,0.01,0.14,0.02l1.59,0.43l1.6-0.93 l-1.6-0.93L1.7,12.18C1.65,12.2,1.6,12.2,1.56,12.2c-0.25,0-0.47-0.17-0.54-0.41C0.98,11.65,1,11.5,1.07,11.37 c0.07-0.13,0.19-0.22,0.34-0.26l0.52-0.14L1.28,10.6c-0.13-0.07-0.22-0.19-0.26-0.34C0.98,10.12,1,9.97,1.08,9.84 c0.1-0.17,0.28-0.28,0.48-0.28c0.1,0,0.19,0.03,0.28,0.07l0.65,0.37L2.34,9.5C2.31,9.35,2.32,9.2,2.4,9.08 c0.07-0.13,0.19-0.22,0.34-0.26C2.78,8.8,2.83,8.8,2.88,8.8c0.25,0,0.47,0.17,0.54,0.41l0.43,1.59l1.6,0.93V9.87L4.28,8.71 c-0.22-0.22-0.22-0.57,0-0.78c0.1-0.1,0.24-0.16,0.39-0.16c0.15,0,0.29,0.06,0.39,0.16L5.45,8.3V7.55C5.45,7.25,5.69,7,6,7 s0.55,0.25,0.55,0.55V8.3l0.38-0.38c0.1-0.1,0.24-0.16,0.39-0.16c0.15,0,0.29,0.06,0.39,0.16c0.22,0.22,0.22,0.57,0,0.78 L6.55,9.87v1.85l1.6-0.93l0.43-1.59C8.65,8.97,8.87,8.8,9.12,8.8c0.05,0,0.1,0.01,0.14,0.02C9.56,8.9,9.74,9.2,9.66,9.5 l-0.14,0.52l0.65-0.37c0.08-0.05,0.18-0.07,0.28-0.07c0.2,0,0.38,0.11,0.48,0.28c0.07,0.13,0.09,0.28,0.06,0.42 c-0.04,0.14-0.13,0.26-0.26,0.34l-0.65,0.37l0.52,0.14c0.3,0.08,0.47,0.38,0.39,0.68c-0.07,0.24-0.29,0.41-0.54,0.41 c-0.05,0-0.1-0.01-0.14-0.02l-1.59-0.43l-1.6,0.93l1.6,0.93l1.59-0.43c0.05-0.01,0.1-0.02,0.14-0.02c0.25,0,0.47,0.17,0.54,0.41 c0.08,0.3-0.1,0.6-0.39,0.68l-0.52,0.14l0.65,0.37c0.26,0.15,0.36,0.49,0.2,0.76c-0.1,0.17-0.28,0.28-0.48,0.28 c-0.1,0-0.19-0.03-0.28-0.07l-0.65-0.37l0.14,0.52c0.08,0.3-0.1,0.6-0.39,0.68c-0.05,0.01-0.1,0.02-0.14,0.02 c-0.25,0-0.47-0.17-0.54-0.41l-0.43-1.59l-1.6-0.93v1.85l1.16,1.16c0.22,0.22,0.22,0.57,0,0.78c-0.1,0.1-0.24,0.16-0.39,0.16 c-0.15,0-0.29-0.06-0.39-0.16l-0.38-0.38v0.75C6.55,18.12,6.31,18.37,6,18.37z"/><path d="M25.61,16.46c-0.23,0-0.43-0.18-0.44-0.42c-0.02-0.24,0.17-0.46,0.41-0.47c0.26-0.02,0.53-0.06,0.79-0.11 c1.29-0.28,2.43-1.03,3.19-2.1c-0.42,0.1-0.99,0.19-1.64,0.19c-0.6,0-1.16-0.08-1.68-0.24c-1.58-0.48-2.66-1.62-3.21-3.39 c-0.58-1.83-0.15-3.69,1.08-4.92c-0.01,0-0.01,0-0.02,0c-2.53,0.55-4.3,2.83-4.2,5.42c0.01,0.24-0.18,0.45-0.43,0.46 c-0.01,0-0.01,0-0.02,0c-0.24,0-0.44-0.19-0.44-0.43c-0.12-3.02,1.94-5.68,4.9-6.33C24.34,4.05,24.79,4,25.24,4 c0.16,0,0.33,0.01,0.49,0.02c0.2,0.02,0.37,0.17,0.4,0.37c0.03,0.2-0.07,0.4-0.26,0.48c-1.78,0.78-2.62,2.79-1.99,4.79 c0.46,1.47,1.34,2.41,2.62,2.8c0.44,0.14,0.93,0.2,1.44,0.2c1.2,0,2.18-0.37,2.32-0.49c0.08-0.06,0.18-0.1,0.28-0.1 c0.1,0,0.19,0.03,0.27,0.09c0.16,0.12,0.22,0.34,0.14,0.53c-0.8,1.84-2.44,3.2-4.39,3.63c-0.08,0.02-0.17,0.04-0.25,0.05 c-0.22,0.04-0.45,0.07-0.67,0.08C25.63,16.46,25.62,16.46,25.61,16.46z"/></svg>