<svg version="1.1" id="Layer_1" xmlns="http://www.w3.org/2000/svg" xmlns:xlink="http://www.w3.org/1999/xlink" viewBox="0 0 32 32" style="enable-background:new 0 0 32 32;" xml:space="preserve"><path d="M27.7,4.7H4.3C2.5,4.7,1,6.2,1,8.1v15.8c0,1.8,1.5,3.3,3.3,3.3h23.3c1.8,0,3.3-1.5,3.3-3.3V8.1C31,6.2,29.5,4.7,27.7,4.7z M29.8,23.6c0,1.7-0.8,2.4-2.4,2.4H4.7c-1.7,0-2.4-0.8-2.4-2.4V8.4C2.3,6.7,3,6,4.7,6h22.6c1.7,0,2.4,0.8,2.4,2.4V23.6z M10.4,13.5 l3.1,2.5l8.1-6.9l6.3,5.6v9.4H4.1v-5.6L10.4,13.5z M6.6,7.9c-1.4,0-2.5,1.1-2.5,2.5s1.1,2.5,2.5,2.5s2.5-1.1,2.5-2.5S8,7.9,6.6,7.9z"/></svg>