<svg version="1.1" xmlns="http://www.w3.org/2000/svg" xmlns:xlink="http://www.w3.org/1999/xlink" viewBox="0 0 32 32" xml:space="preserve"><path d="M24.37,22.25l-1.53-0.02c-0.16,0-0.31-0.07-0.42-0.18c-0.11-0.11-0.17-0.26-0.17-0.42 c0-0.32,0.27-0.58,0.59-0.58l1.54,0.02l0.04,0c0.63,0,1.22-0.24,1.67-0.68c0.46-0.45,0.72-1.04,0.73-1.68 c0.01-0.64-0.23-1.25-0.68-1.7c-0.45-0.46-1.04-0.72-1.68-0.73l-0.63-0.01c-0.33,0-0.59-0.27-0.58-0.6 c0.03-1.93-1.26-3.24-3.2-3.27l-0.05,0c-0.43,0-0.86,0.08-1.27,0.24c-0.07,0.03-0.14,0.04-0.21,0.04 c-0.09,0-0.18-0.02-0.27-0.06c-0.15-0.08-0.26-0.21-0.3-0.37c-0.49-1.77-2.12-3.02-3.96-3.05l-0.05,0 c-2.27,0-4.15,1.84-4.18,4.11c0,0.15,0,0.3,0.02,0.44c0.02,0.17-0.04,0.33-0.16,0.46c-0.11,0.12-0.26,0.19-0.42,0.19 c-0.01,0-0.02,0-0.03,0l-0.63-0.01l-0.05,0c-1.8,0-3.28,1.46-3.3,3.26c-0.03,1.82,1.43,3.33,3.26,3.35L9.98,21 c0.33,0,0.59,0.27,0.58,0.6c0,0.32-0.27,0.58-0.59,0.58l-1.54-0.02c-1.2-0.02-2.32-0.5-3.15-1.36C4.43,19.94,3.98,18.81,4,17.61 c0.04-2.44,2.05-4.42,4.49-4.42c0.02,0,0.08,0,0.08,0C8.65,10.32,11.04,8,13.92,8c0.03,0,0.05,0,0.08,0 c2.14,0.03,4.08,1.36,4.88,3.34c0.36-0.09,0.73-0.13,1.11-0.13c0.02,0,0.04,0,0.06,0c2.4,0.03,4.12,1.58,4.35,3.87l0.07,0 c0.96,0.01,1.85,0.4,2.52,1.09c0.67,0.69,1.03,1.59,1.01,2.55c-0.01,0.96-0.4,1.85-1.08,2.52c-0.67,0.65-1.56,1.01-2.49,1.01 C24.4,22.25,24.38,22.25,24.37,22.25z"/><path d="M10.14,25.87c-0.09,0-0.18-0.02-0.26-0.06c-0.14-0.07-0.25-0.19-0.3-0.34 c-0.05-0.15-0.04-0.31,0.03-0.45l2.84-4.78c0.1-0.21,0.3-0.33,0.53-0.33c0.09,0,0.18,0.02,0.26,0.06 c0.14,0.07,0.25,0.19,0.3,0.34c0.05,0.15,0.04,0.31-0.03,0.45l-2.84,4.78C10.57,25.74,10.37,25.87,10.14,25.87z"/><path d="M12.8,25.87c-0.09,0-0.18-0.02-0.26-0.06c-0.14-0.07-0.25-0.19-0.3-0.34c-0.05-0.15-0.04-0.31,0.03-0.45 l2.84-4.78c0.1-0.2,0.31-0.33,0.53-0.33c0.09,0,0.18,0.02,0.26,0.06c0.29,0.14,0.42,0.5,0.27,0.79l-2.84,4.78 C13.23,25.74,13.02,25.87,12.8,25.87z"/><path d="M18.1,25.87c-0.09,0-0.18-0.02-0.26-0.06c-0.29-0.14-0.42-0.5-0.27-0.79l2.84-4.78 c0.1-0.21,0.3-0.33,0.53-0.33c0.09,0,0.18,0.02,0.26,0.06c0.14,0.07,0.25,0.19,0.3,0.34c0.05,0.15,0.04,0.31-0.03,0.45 l-2.84,4.78C18.54,25.74,18.33,25.87,18.1,25.87z"/><path d="M15.45,25.87c-0.09,0-0.18-0.02-0.26-0.06c-0.14-0.07-0.25-0.19-0.3-0.34 c-0.05-0.15-0.04-0.31,0.03-0.45l2.84-4.78c0.1-0.21,0.3-0.33,0.53-0.33c0.09,0,0.18,0.02,0.26,0.06 c0.14,0.07,0.25,0.19,0.3,0.34c0.05,0.15,0.04,0.31-0.03,0.45l-2.84,4.78C15.88,25.74,15.68,25.87,15.45,25.87z"/></svg>