<svg version="1.1" xmlns="http://www.w3.org/2000/svg" xmlns:xlink="http://www.w3.org/1999/xlink" viewBox="0 0 32 32" xml:space="preserve"><path d="M25.29,15.59c-0.15,0-0.3-0.06-0.41-0.17c-0.23-0.23-0.24-0.6-0.01-0.84c0.7-0.72,1.08-1.67,1.08-2.68 c0-2.13-1.73-3.86-3.86-3.86c-1.47,0-2.79,0.82-3.45,2.13c-0.1,0.2-0.3,0.33-0.53,0.33c-0.09,0-0.18-0.02-0.26-0.06 c-0.29-0.15-0.41-0.5-0.26-0.79c0.86-1.71,2.59-2.78,4.5-2.78c2.78,0,5.04,2.26,5.04,5.04c0,1.31-0.5,2.55-1.41,3.5 C25.6,15.53,25.45,15.59,25.29,15.59z"/><path d="M22.09,6.05c-0.33,0-0.59-0.27-0.59-0.59V3.59C21.5,3.27,21.76,3,22.09,3c0.33,0,0.59,0.27,0.59,0.59 v1.87C22.68,5.79,22.41,6.05,22.09,6.05z"/><path d="M17.53,7.94c-0.16,0-0.31-0.06-0.42-0.17l-1.32-1.32c-0.23-0.23-0.23-0.61,0-0.84 c0.11-0.11,0.26-0.17,0.42-0.17c0.16,0,0.31,0.06,0.42,0.17l1.32,1.32c0.23,0.23,0.23,0.61,0,0.84 C17.83,7.88,17.68,7.94,17.53,7.94z"/><path d="M27.97,18.39c-0.16,0-0.31-0.06-0.42-0.17l-1.32-1.32c-0.23-0.23-0.23-0.61,0-0.84 c0.11-0.11,0.26-0.17,0.42-0.17c0.16,0,0.31,0.06,0.42,0.17l1.32,1.32c0.23,0.23,0.23,0.61,0,0.84 C28.28,18.33,28.13,18.39,27.97,18.39z"/><path d="M28.54,12.5c-0.33,0-0.59-0.27-0.59-0.59c0-0.33,0.27-0.59,0.59-0.59h1.87c0.33,0,0.59,0.27,0.59,0.59 c0,0.33-0.27,0.59-0.59,0.59H28.54z"/><path d="M26.65,7.94c-0.16,0-0.31-0.06-0.42-0.17C26,7.54,26,7.16,26.23,6.93l1.32-1.32 c0.11-0.11,0.26-0.17,0.42-0.17c0.16,0,0.31,0.06,0.42,0.17c0.23,0.23,0.23,0.61,0,0.84l-1.32,1.32 C26.96,7.88,26.81,7.94,26.65,7.94z"/><path d="M5.44,22.17c-1.19-0.01-2.31-0.49-3.15-1.34C1.44,19.97,0.99,18.84,1,17.64 c0.01-1.2,0.49-2.32,1.34-3.16c0.84-0.83,1.96-1.28,3.14-1.28l0.06,0C5.61,10.33,7.99,8,10.88,8l0.05,0 c2.14,0.02,4.08,1.34,4.89,3.31c0.37-0.09,0.74-0.14,1.12-0.14l0.05,0c2.39,0.02,4.12,1.56,4.36,3.85l0.07,0 c0.95,0.01,1.85,0.39,2.52,1.07c0.67,0.68,1.03,1.58,1.02,2.54c-0.01,0.95-0.39,1.85-1.07,2.52c-0.67,0.66-1.56,1.02-2.5,1.02 l-1.57-0.01c-0.16,0-0.31-0.06-0.42-0.18c-0.11-0.11-0.17-0.26-0.17-0.42c0-0.32,0.27-0.59,0.58-0.59l1.58,0.01 c0.62,0,1.21-0.24,1.66-0.68c0.46-0.45,0.71-1.05,0.72-1.68c0.01-0.64-0.24-1.24-0.68-1.7c-0.45-0.46-1.05-0.71-1.69-0.72 l-0.63-0.01c-0.33,0-0.59-0.27-0.59-0.6c0.02-1.92-1.27-3.23-3.21-3.24l-0.04,0c-0.42,0-0.86,0.08-1.27,0.24 c-0.07,0.03-0.14,0.04-0.22,0.04c-0.09,0-0.18-0.02-0.26-0.06c-0.15-0.07-0.26-0.21-0.31-0.37c-0.5-1.76-2.13-3.01-3.97-3.03 l-0.04,0c-2.27,0-4.14,1.85-4.16,4.12c0,0.14,0.01,0.29,0.02,0.44c0.02,0.17-0.04,0.33-0.15,0.46 c-0.11,0.12-0.27,0.19-0.44,0.19l-0.67-0.01c-0.87,0-1.69,0.34-2.31,0.94c-0.63,0.62-0.98,1.44-0.99,2.32 c-0.02,1.82,1.45,3.31,3.27,3.33L6.98,21c0.16,0,0.31,0.06,0.42,0.18c0.11,0.11,0.17,0.26,0.17,0.42 c0,0.32-0.27,0.59-0.59,0.59L5.44,22.17z"/><path d="M8.12,24.83c-0.09,0-0.18-0.02-0.26-0.06c-0.14-0.07-0.25-0.19-0.3-0.34 c-0.05-0.15-0.04-0.31,0.03-0.45l1.84-3.77c0.1-0.2,0.31-0.33,0.53-0.33c0.09,0,0.18,0.02,0.26,0.06 c0.29,0.14,0.42,0.5,0.27,0.79l-1.84,3.77C8.55,24.7,8.34,24.83,8.12,24.83z"/><path d="M10.77,24.83c-0.09,0-0.18-0.02-0.26-0.06c-0.14-0.07-0.25-0.19-0.3-0.34 c-0.05-0.15-0.04-0.31,0.03-0.45l1.84-3.77c0.1-0.21,0.3-0.33,0.53-0.33c0.09,0,0.18,0.02,0.26,0.06 c0.14,0.07,0.25,0.19,0.3,0.34c0.05,0.15,0.04,0.31-0.03,0.45l-1.84,3.77C11.2,24.7,10.99,24.83,10.77,24.83z"/><path d="M16.06,24.83c-0.09,0-0.18-0.02-0.26-0.06c-0.14-0.07-0.25-0.19-0.3-0.34 c-0.05-0.15-0.04-0.31,0.03-0.45l1.84-3.77c0.1-0.2,0.31-0.33,0.53-0.33c0.09,0,0.18,0.02,0.26,0.06 c0.14,0.07,0.25,0.19,0.3,0.34c0.05,0.15,0.04,0.31-0.03,0.45l-1.84,3.77C16.49,24.7,16.29,24.83,16.06,24.83z"/><path d="M13.41,24.83c-0.09,0-0.18-0.02-0.26-0.06c-0.14-0.07-0.25-0.19-0.3-0.34 c-0.05-0.15-0.04-0.31,0.03-0.45l1.84-3.77c0.1-0.21,0.3-0.33,0.53-0.33c0.09,0,0.18,0.02,0.26,0.06 c0.14,0.07,0.25,0.19,0.3,0.34c0.05,0.15,0.04,0.31-0.03,0.45l-1.84,3.77C13.85,24.7,13.64,24.83,13.41,24.83z"/></svg>