<svg version="1.1" xmlns="http://www.w3.org/2000/svg" xmlns:xlink="http://www.w3.org/1999/xlink" viewBox="0 0 32 32" xml:space="preserve"><path d="M25.29,15.59c-0.15,0-0.3-0.06-0.41-0.17c-0.23-0.23-0.24-0.6-0.01-0.84c0.7-0.72,1.08-1.67,1.08-2.68 c0-2.13-1.73-3.86-3.86-3.86c-1.47,0-2.79,0.82-3.45,2.13c-0.1,0.2-0.3,0.33-0.53,0.33c-0.09,0-0.18-0.02-0.26-0.06 c-0.29-0.15-0.41-0.5-0.26-0.79c0.86-1.71,2.59-2.78,4.5-2.78c2.78,0,5.04,2.26,5.04,5.04c0,1.31-0.5,2.55-1.41,3.5 C25.6,15.53,25.45,15.59,25.29,15.59z"/><path d="M22.09,6.05c-0.33,0-0.59-0.27-0.59-0.59V3.59C21.5,3.27,21.76,3,22.09,3c0.33,0,0.59,0.27,0.59,0.59 v1.87C22.68,5.79,22.41,6.05,22.09,6.05z"/><path d="M17.53,7.94c-0.16,0-0.31-0.06-0.42-0.17l-1.32-1.32c-0.23-0.23-0.23-0.61,0-0.84 c0.11-0.11,0.26-0.17,0.42-0.17c0.16,0,0.31,0.06,0.42,0.17l1.32,1.32c0.23,0.23,0.23,0.61,0,0.84 C17.83,7.88,17.68,7.94,17.53,7.94z"/><path d="M27.97,18.39c-0.16,0-0.31-0.06-0.42-0.17l-1.32-1.32c-0.23-0.23-0.23-0.61,0-0.84 c0.11-0.11,0.26-0.17,0.42-0.17c0.16,0,0.31,0.06,0.42,0.17l1.32,1.32c0.23,0.23,0.23,0.61,0,0.84 C28.28,18.33,28.13,18.39,27.97,18.39z"/><path d="M28.54,12.5c-0.33,0-0.59-0.27-0.59-0.59c0-0.33,0.27-0.59,0.59-0.59h1.87c0.33,0,0.59,0.27,0.59,0.59 c0,0.33-0.27,0.59-0.59,0.59H28.54z"/><path d="M26.65,7.94c-0.16,0-0.31-0.06-0.42-0.17C26,7.54,26,7.16,26.23,6.93l1.32-1.32 c0.11-0.11,0.26-0.17,0.42-0.17c0.16,0,0.31,0.06,0.42,0.17c0.23,0.23,0.23,0.61,0,0.84l-1.32,1.32 C26.96,7.88,26.81,7.94,26.65,7.94z"/><path d="M21.37,22.25l-1.53-0.02c-0.16,0-0.31-0.07-0.42-0.18c-0.11-0.11-0.17-0.26-0.17-0.42 c0-0.32,0.27-0.58,0.59-0.58l1.54,0.02l0.04,0c0.63,0,1.22-0.24,1.67-0.68c0.46-0.45,0.72-1.04,0.73-1.68 c0.01-0.64-0.23-1.25-0.68-1.7c-0.45-0.46-1.04-0.72-1.68-0.73l-0.63-0.01c-0.33,0-0.59-0.27-0.58-0.6 c0.03-1.93-1.26-3.24-3.2-3.27l-0.05,0c-0.43,0-0.86,0.08-1.27,0.24c-0.07,0.03-0.14,0.04-0.21,0.04 c-0.09,0-0.18-0.02-0.27-0.06c-0.15-0.08-0.26-0.21-0.3-0.37c-0.49-1.77-2.12-3.02-3.96-3.05l-0.05,0 c-2.27,0-4.15,1.84-4.18,4.11c0,0.15,0,0.3,0.02,0.44c0.02,0.17-0.04,0.33-0.16,0.46c-0.11,0.12-0.26,0.19-0.42,0.19 c-0.01,0-0.02,0-0.03,0l-0.63-0.01l-0.05,0c-1.8,0-3.28,1.46-3.3,3.26c-0.03,1.82,1.43,3.33,3.26,3.35L6.98,21 c0.33,0,0.59,0.27,0.58,0.6c0,0.32-0.27,0.58-0.59,0.58l-1.54-0.02c-1.2-0.02-2.32-0.5-3.15-1.36 C1.43,19.94,0.98,18.81,1,17.61c0.04-2.44,2.05-4.42,4.49-4.42c0.02,0,0.08,0,0.08,0C5.65,10.32,8.04,8,10.92,8 c0.03,0,0.05,0,0.08,0c2.14,0.03,4.08,1.36,4.88,3.34c0.36-0.09,0.73-0.13,1.11-0.13c0.02,0,0.04,0,0.06,0 c2.4,0.03,4.12,1.58,4.35,3.87l0.07,0c0.96,0.01,1.85,0.4,2.52,1.09c0.67,0.69,1.03,1.59,1.01,2.55 c-0.01,0.96-0.4,1.85-1.08,2.52c-0.67,0.65-1.56,1.01-2.49,1.01C21.4,22.25,21.38,22.25,21.37,22.25z"/><path d="M5.14,27.87c-0.09,0-0.18-0.02-0.26-0.06c-0.14-0.07-0.25-0.19-0.3-0.34 c-0.05-0.15-0.04-0.31,0.03-0.45l4.84-6.78c0.1-0.21,0.3-0.33,0.53-0.33c0.09,0,0.18,0.02,0.26,0.06 c0.14,0.07,0.25,0.19,0.3,0.34c0.05,0.15,0.04,0.31-0.03,0.45l-4.84,6.78C5.57,27.74,5.37,27.87,5.14,27.87z"/><path d="M7.8,27.87c-0.09,0-0.18-0.02-0.26-0.06c-0.14-0.07-0.25-0.19-0.3-0.34c-0.05-0.15-0.04-0.31,0.03-0.45 l4.84-6.78c0.1-0.2,0.31-0.33,0.53-0.33c0.09,0,0.18,0.02,0.26,0.06c0.29,0.14,0.42,0.5,0.27,0.79l-4.84,6.78 C8.23,27.74,8.02,27.87,7.8,27.87z"/><path d="M13.1,27.87c-0.09,0-0.18-0.02-0.26-0.06c-0.29-0.14-0.42-0.5-0.27-0.79l4.84-6.78 c0.1-0.21,0.3-0.33,0.53-0.33c0.09,0,0.18,0.02,0.26,0.06c0.14,0.07,0.25,0.19,0.3,0.34c0.05,0.15,0.04,0.31-0.03,0.45 l-4.84,6.78C13.54,27.74,13.33,27.87,13.1,27.87z"/><path d="M10.45,27.87c-0.09,0-0.18-0.02-0.26-0.06c-0.14-0.07-0.25-0.19-0.3-0.34 c-0.05-0.15-0.04-0.31,0.03-0.45l4.84-6.78c0.1-0.21,0.3-0.33,0.53-0.33c0.09,0,0.18,0.02,0.26,0.06 c0.14,0.07,0.25,0.19,0.3,0.34c0.05,0.15,0.04,0.31-0.03,0.45l-4.84,6.78C10.88,27.74,10.68,27.87,10.45,27.87z"/></svg>