<svg version="1.1" xmlns="http://www.w3.org/2000/svg" xmlns:xlink="http://www.w3.org/1999/xlink" viewBox="0 0 32 32" xml:space="preserve"><path d="M24.37,22.25l-1.53-0.02c-0.16,0-0.31-0.07-0.42-0.18c-0.11-0.11-0.17-0.26-0.17-0.42 c0-0.32,0.27-0.58,0.59-0.58l1.54,0.02l0.04,0c0.63,0,1.22-0.24,1.67-0.68c0.46-0.45,0.72-1.04,0.73-1.68 c0.01-0.64-0.23-1.25-0.68-1.7c-0.45-0.46-1.04-0.72-1.68-0.73l-0.63-0.01c-0.33,0-0.59-0.27-0.58-0.6 c0.03-1.93-1.26-3.24-3.2-3.27l-0.05,0c-0.43,0-0.86,0.08-1.27,0.24c-0.07,0.03-0.14,0.04-0.21,0.04 c-0.09,0-0.18-0.02-0.27-0.06c-0.15-0.08-0.26-0.21-0.3-0.37c-0.49-1.77-2.12-3.02-3.96-3.05l-0.05,0 c-2.27,0-4.15,1.84-4.18,4.11c0,0.15,0,0.3,0.02,0.44c0.02,0.17-0.04,0.33-0.16,0.46c-0.11,0.12-0.26,0.19-0.42,0.19 c-0.01,0-0.02,0-0.03,0l-0.63-0.01l-0.05,0c-1.8,0-3.28,1.46-3.3,3.26c-0.03,1.82,1.43,3.33,3.26,3.35l1.02,0 c0.33,0,0.59,0.27,0.58,0.6c0,0.32-0.27,0.58-0.59,0.58l-1.03,0c-1.2-0.02-2.32-0.5-3.15-1.36C4.43,19.94,3.98,18.81,4,17.61 c0.04-2.44,2.05-4.42,4.49-4.42c0.02,0,0.08,0,0.08,0C8.65,10.32,11.04,8,13.92,8c0.03,0,0.05,0,0.08,0 c2.14,0.03,4.08,1.36,4.88,3.34c0.36-0.09,0.73-0.13,1.11-0.13c0.02,0,0.04,0,0.06,0c2.4,0.03,4.12,1.58,4.35,3.87l0.07,0 c0.96,0.01,1.85,0.4,2.52,1.09c0.67,0.69,1.03,1.59,1.01,2.55c-0.01,0.96-0.4,1.85-1.08,2.52c-0.67,0.65-1.56,1.01-2.49,1.01 C24.4,22.25,24.38,22.25,24.37,22.25z"/><path d="M16.14,24.68c-0.31,0-0.57-0.26-0.57-0.57v-0.77l-0.39,0.39c-0.11,0.11-0.25,0.17-0.4,0.17 c-0.15,0-0.3-0.06-0.4-0.17c-0.22-0.22-0.22-0.58,0-0.81l1.19-1.19v-1.9l-1.65,0.95l-0.44,1.63 c-0.07,0.25-0.29,0.42-0.55,0.42c-0.05,0-0.1-0.01-0.15-0.02c-0.15-0.04-0.27-0.13-0.35-0.27c-0.08-0.13-0.1-0.29-0.06-0.43 l0.14-0.53l-0.66,0.38c-0.09,0.05-0.19,0.08-0.28,0.08c-0.2,0-0.39-0.11-0.49-0.29c-0.16-0.27-0.06-0.62,0.21-0.78l0.66-0.38 l-0.53-0.14c-0.15-0.04-0.27-0.13-0.35-0.27c-0.08-0.13-0.1-0.29-0.06-0.43c0.07-0.25,0.29-0.42,0.55-0.42 c0.05,0,0.1,0.01,0.15,0.02l1.63,0.44L15,18.84l-1.65-0.95l-1.63,0.44c-0.05,0.01-0.1,0.02-0.15,0.02 c-0.26,0-0.48-0.17-0.55-0.42c-0.04-0.15-0.02-0.3,0.06-0.43c0.08-0.13,0.2-0.23,0.35-0.27l0.53-0.14l-0.66-0.38 c-0.27-0.16-0.37-0.51-0.21-0.78c0.1-0.18,0.29-0.29,0.49-0.29c0.1,0,0.2,0.03,0.28,0.08l0.66,0.38l-0.14-0.53 c-0.04-0.15-0.02-0.3,0.06-0.43s0.2-0.23,0.35-0.27c0.05-0.01,0.1-0.02,0.15-0.02c0.26,0,0.48,0.17,0.55,0.42l0.44,1.63 l1.65,0.95v-1.9l-1.19-1.19c-0.22-0.22-0.22-0.58,0-0.81c0.11-0.11,0.25-0.17,0.4-0.17c0.15,0,0.3,0.06,0.4,0.17l0.39,0.39 v-0.77c0-0.31,0.26-0.57,0.57-0.57c0.31,0,0.57,0.26,0.57,0.57v0.77l0.39-0.39c0.11-0.11,0.25-0.17,0.4-0.17 c0.15,0,0.3,0.06,0.4,0.17c0.22,0.22,0.22,0.58,0,0.81l-1.19,1.19v1.9l1.65-0.95l0.44-1.63c0.07-0.25,0.29-0.42,0.55-0.42 c0.05,0,0.1,0.01,0.15,0.02c0.3,0.08,0.48,0.39,0.4,0.7l-0.14,0.53l0.66-0.38c0.09-0.05,0.18-0.08,0.28-0.08 c0.2,0,0.39,0.11,0.49,0.29c0.16,0.27,0.06,0.62-0.21,0.78l-0.66,0.38l0.53,0.14c0.15,0.04,0.27,0.13,0.35,0.27 c0.08,0.13,0.1,0.29,0.06,0.43c-0.07,0.25-0.29,0.42-0.55,0.42c-0.05,0-0.1-0.01-0.15-0.02l-1.63-0.44l-1.65,0.95l1.65,0.95 l1.63-0.44c0.05-0.01,0.1-0.02,0.15-0.02c0.26,0,0.48,0.17,0.55,0.42c0.04,0.15,0.02,0.3-0.06,0.43 c-0.08,0.13-0.2,0.23-0.35,0.27l-0.53,0.14l0.66,0.38c0.27,0.16,0.37,0.51,0.21,0.78c-0.1,0.18-0.29,0.29-0.49,0.29 c-0.1,0-0.2-0.03-0.28-0.08l-0.66-0.38l0.14,0.53c0.08,0.3-0.1,0.62-0.4,0.7c-0.05,0.01-0.1,0.02-0.15,0.02 c-0.26,0-0.48-0.17-0.55-0.42l-0.44-1.63l-1.65-0.95v1.9l1.19,1.19c0.22,0.22,0.22,0.58,0,0.81c-0.11,0.11-0.25,0.17-0.4,0.17 c-0.15,0-0.3-0.06-0.4-0.17l-0.39-0.39v0.77C16.71,24.43,16.45,24.68,16.14,24.68z"/><path d="M8.46,28.47c-0.31,0-0.57-0.26-0.57-0.57v-1.2l-1,0.58c-0.09,0.05-0.19,0.08-0.28,0.08 c-0.2,0-0.39-0.11-0.49-0.29c-0.16-0.27-0.06-0.62,0.21-0.78l1-0.58l-1.04-0.6c-0.27-0.16-0.37-0.51-0.21-0.78 c0.1-0.18,0.29-0.29,0.49-0.29c0.1,0,0.2,0.03,0.28,0.08l1.04,0.6v-1.15c0-0.31,0.26-0.57,0.57-0.57s0.57,0.26,0.57,0.57v1.15 l1.04-0.6c0.09-0.05,0.19-0.08,0.28-0.08c0.2,0,0.39,0.11,0.49,0.29c0.16,0.27,0.06,0.62-0.21,0.78l-1.04,0.6l1,0.58 c0.27,0.16,0.37,0.51,0.21,0.78c-0.1,0.18-0.29,0.29-0.49,0.29c-0.1,0-0.2-0.03-0.28-0.08l-1-0.58v1.2 C9.03,28.21,8.78,28.47,8.46,28.47z"/><path d="M17.96,30.31c-0.31,0-0.57-0.26-0.57-0.57v-0.62l-0.5,0.29c-0.09,0.05-0.18,0.08-0.28,0.08 c-0.2,0-0.39-0.11-0.49-0.29c-0.16-0.27-0.06-0.62,0.21-0.78l0.5-0.29l-0.53-0.31c-0.27-0.16-0.37-0.51-0.21-0.78 c0.1-0.18,0.29-0.29,0.49-0.29c0.1,0,0.2,0.03,0.28,0.08l0.53,0.31v-0.58c0-0.31,0.26-0.57,0.57-0.57 c0.31,0,0.57,0.26,0.57,0.57v0.58l0.53-0.31c0.09-0.05,0.18-0.08,0.28-0.08c0.2,0,0.39,0.11,0.49,0.29 c0.16,0.27,0.06,0.62-0.21,0.78l-0.53,0.31l0.5,0.29c0.27,0.16,0.37,0.51,0.21,0.78c-0.1,0.18-0.29,0.29-0.49,0.29 c-0.1,0-0.2-0.03-0.28-0.08l-0.5-0.29v0.62C18.53,30.06,18.27,30.31,17.96,30.31z"/></svg>