<svg version="1.1" xmlns="http://www.w3.org/2000/svg" xmlns:xlink="http://www.w3.org/1999/xlink" viewBox="0 0 32 32" xml:space="preserve"><path d="M12.53,20.95l15.9,0.02c1.3,0,2.38-1.06,2.39-2.36c0.01-1.32-1.05-2.4-2.36-2.41l-0.63-0.01 c-0.16,0-0.31-0.06-0.42-0.18c-0.11-0.11-0.17-0.26-0.17-0.42c0.01-0.95-0.29-1.76-0.86-2.34c-0.58-0.58-1.38-0.89-2.34-0.9 c-0.02,0-0.04,0-0.05,0c-0.42,0-0.85,0.08-1.26,0.24c-0.07,0.03-0.14,0.04-0.21,0.04c-0.09,0-0.18-0.02-0.26-0.06 c-0.15-0.07-0.26-0.21-0.3-0.37c-0.5-1.76-2.12-3.01-3.95-3.02l-0.06,0c-1.09,0-2.11,0.42-2.9,1.19 c-0.24,0.24-0.45,0.5-0.63,0.78l-0.97-0.67c0.22-0.34,0.48-0.67,0.78-0.96c1-0.98,2.33-1.52,3.73-1.52l0.06,0 c2.14,0.02,4.07,1.34,4.88,3.31c0.37-0.09,0.75-0.14,1.14-0.14l0.03,0c1.27,0.01,2.37,0.45,3.17,1.25 c0.67,0.68,1.08,1.57,1.18,2.59l0.07,0c1.97,0.02,3.55,1.64,3.53,3.6c-0.02,1.95-1.62,3.53-3.57,3.53l-15.92-0.02 M12.21,20.6" /><path d="M10.26,16.61c-1.85,0-3.36-1.51-3.36-3.36c0-1.78,1.45-3.22,3.22-3.22c1.07,0,2.07,0.53,2.67,1.42 c0.09,0.13,0.12,0.29,0.09,0.44c-0.03,0.15-0.12,0.29-0.25,0.38c-0.1,0.07-0.21,0.1-0.33,0.1c-0.2,0-0.38-0.1-0.49-0.26 c-0.38-0.56-1.01-0.9-1.69-0.9c-1.13,0-2.04,0.92-2.04,2.04c0,1.2,0.98,2.18,2.18,2.18h7.52c0.33,0,0.59,0.26,0.59,0.59 c0,0.33-0.26,0.59-0.59,0.59H10.26z"/><path d="M2.96,18.39c-1.64,0-2.97-1.33-2.97-2.97c0-1.57,1.28-2.85,2.85-2.85c0.95,0,1.83,0.47,2.36,1.26 c0.18,0.27,0.11,0.64-0.16,0.82c-0.1,0.07-0.21,0.1-0.33,0.1c-0.2,0-0.38-0.1-0.49-0.26c-0.31-0.46-0.83-0.74-1.38-0.74 c-0.92,0-1.67,0.75-1.67,1.67c0,0.99,0.8,1.79,1.79,1.79h14.81c0.33,0,0.59,0.26,0.59,0.59c0,0.33-0.26,0.59-0.59,0.59H2.96z" /><path d="M12,25.27c-0.1,0-0.2-0.02-0.28-0.07c-1.11-0.6-1.79-1.76-1.79-3.02c0-1.98,1.61-3.58,3.58-3.58h4.27 c0.33,0,0.59,0.26,0.59,0.59c0,0.33-0.26,0.59-0.59,0.59H13.5c-1.32,0-2.4,1.08-2.4,2.4c0,0.83,0.45,1.58,1.18,1.98 c0.29,0.16,0.39,0.51,0.24,0.8C12.41,25.15,12.21,25.27,12,25.27z"/><path d="M6.62,23.78c-1.4,0-2.54-1.14-2.54-2.54c0-1.46,1.19-2.64,2.64-2.64h2.9c0.33,0,0.59,0.26,0.59,0.59 c0,0.33-0.26,0.59-0.59,0.59h-2.9c-0.81,0-1.47,0.66-1.47,1.47c0,0.75,0.61,1.36,1.36,1.36c0.52,0,0.98-0.29,1.22-0.75 c0.1-0.2,0.3-0.32,0.53-0.32c0.09,0,0.18,0.02,0.27,0.06c0.29,0.15,0.41,0.5,0.26,0.79C8.45,23.25,7.58,23.78,6.62,23.78z"/></svg>