<svg version="1.1" xmlns="http://www.w3.org/2000/svg" xmlns:xlink="http://www.w3.org/1999/xlink" viewBox="0 0 32 32" xml:space="preserve"><path d="M6.72,28.53c-0.11,0-0.22-0.03-0.32-0.09c-0.24-0.15-0.33-0.45-0.22-0.71L8,23.46H6.72 c-0.19,0-0.37-0.09-0.48-0.25c-0.11-0.16-0.13-0.35-0.07-0.53l2.16-5.89c0.08-0.23,0.3-0.38,0.55-0.38h4.52 c0.21,0,0.4,0.11,0.51,0.3c0.1,0.18,0.1,0.41-0.01,0.59l-2.09,3.38l1.13,0.01c0.23,0,0.44,0.14,0.53,0.35 c0.09,0.21,0.05,0.46-0.11,0.63l-6.21,6.69C7.04,28.46,6.88,28.53,6.72,28.53z M8.88,22.3c0.2,0,0.38,0.1,0.48,0.26 c0.11,0.16,0.13,0.37,0.05,0.55l-0.85,2l3.04-3.28l-0.85,0c-0.21,0-0.4-0.12-0.5-0.3c-0.1-0.18-0.1-0.41,0.01-0.59l2.09-3.37 H9.28L7.55,22.3H8.88z"/><path d="M25.39,15.38c-0.15,0-0.29-0.06-0.4-0.16c-0.23-0.22-0.24-0.59-0.01-0.82 c0.69-0.71,1.06-1.64,1.06-2.63c0-2.09-1.7-3.79-3.79-3.79c-1.44,0-2.74,0.8-3.39,2.09c-0.1,0.2-0.3,0.32-0.52,0.32 c-0.09,0-0.18-0.02-0.26-0.06c-0.29-0.14-0.4-0.49-0.26-0.78c0.85-1.68,2.54-2.73,4.43-2.73c2.73,0,4.95,2.22,4.95,4.95 c0,1.29-0.49,2.51-1.39,3.44C25.69,15.31,25.54,15.38,25.39,15.38z"/><path d="M22.24,6c-0.32,0-0.58-0.26-0.58-0.58V3.58c0-0.32,0.26-0.58,0.58-0.58c0.32,0,0.58,0.26,0.58,0.58 v1.84C22.82,5.74,22.56,6,22.24,6z"/><path d="M17.76,7.86c-0.16,0-0.3-0.06-0.41-0.17l-1.3-1.3c-0.23-0.23-0.23-0.59,0-0.82 c0.11-0.11,0.26-0.17,0.41-0.17c0.16,0,0.3,0.06,0.41,0.17l1.3,1.3c0.23,0.23,0.23,0.59,0,0.82 C18.06,7.8,17.91,7.86,17.76,7.86z"/><path d="M28.02,18.13c-0.16,0-0.3-0.06-0.41-0.17l-1.3-1.3c-0.23-0.23-0.23-0.59,0-0.82 c0.11-0.11,0.26-0.17,0.41-0.17c0.16,0,0.3,0.06,0.41,0.17l1.3,1.3c0.11,0.11,0.17,0.26,0.17,0.41c0,0.16-0.06,0.3-0.17,0.41 C28.32,18.06,28.18,18.13,28.02,18.13z"/><path d="M28.58,12.34c-0.32,0-0.58-0.26-0.58-0.58c0-0.32,0.26-0.58,0.58-0.58h1.84c0.32,0,0.58,0.26,0.58,0.58 c0,0.32-0.26,0.58-0.58,0.58H28.58z"/><path d="M26.72,7.86c-0.16,0-0.3-0.06-0.41-0.17c-0.23-0.23-0.23-0.6,0-0.82l1.3-1.3 c0.11-0.11,0.26-0.17,0.41-0.17c0.16,0,0.3,0.06,0.41,0.17c0.23,0.23,0.23,0.6,0,0.82l-1.3,1.3 C27.03,7.8,26.88,7.86,26.72,7.86z"/><path d="M15.19,21.83c-0.16,0-0.3-0.06-0.41-0.17c-0.11-0.11-0.17-0.26-0.17-0.41c0-0.32,0.26-0.58,0.58-0.58 l5.85,0c1.3,0,2.35-1.05,2.35-2.35c0-1.3-1.05-2.35-2.35-2.35h-0.62c-0.32,0-0.58-0.26-0.58-0.58c0-1.89-1.28-3.16-3.19-3.16 c-0.44,0-0.87,0.08-1.29,0.25c-0.07,0.03-0.14,0.04-0.22,0.04c-0.09,0-0.17-0.02-0.25-0.06c-0.15-0.07-0.26-0.2-0.3-0.36 c-0.51-1.73-2.12-2.94-3.93-2.94c-2.26,0-4.09,1.84-4.09,4.09c0,0.14,0.01,0.29,0.02,0.43c0.02,0.16-0.04,0.33-0.15,0.45 c-0.11,0.12-0.27,0.19-0.43,0.19H5.4c-1.79,0-3.24,1.45-3.24,3.24c0,1.73,1.39,3.03,3.24,3.03c0.32,0,0.58,0.26,0.58,0.58 c0,0.32-0.26,0.58-0.58,0.58c-2.51,0-4.4-1.8-4.4-4.19c0-2.43,1.98-4.4,4.4-4.4h0.01C5.46,10.31,7.8,8,10.67,8 c2.1,0,4.02,1.28,4.84,3.21c0.38-0.1,0.76-0.15,1.15-0.15c2.35,0,4.06,1.49,4.32,3.74h0.07c1.94,0,3.51,1.58,3.51,3.51 c0,1.94-1.58,3.51-3.51,3.51L15.19,21.83z"/><path d="M13.38,25.89c-0.09,0-0.17-0.02-0.25-0.06c-0.29-0.14-0.41-0.49-0.27-0.78l1.2-2.46 c0.1-0.2,0.3-0.33,0.52-0.33c0.09,0,0.17,0.02,0.25,0.06c0.14,0.07,0.24,0.19,0.29,0.33c0.05,0.15,0.04,0.3-0.03,0.44l-1.2,2.46 C13.8,25.76,13.6,25.89,13.38,25.89z"/><path d="M15.1,28.01c-0.09,0-0.17-0.02-0.25-0.06c-0.14-0.07-0.24-0.19-0.29-0.33c-0.05-0.15-0.04-0.3,0.03-0.44 l2.19-4.49c0.1-0.2,0.3-0.33,0.52-0.33c0.09,0,0.17,0.02,0.25,0.06c0.14,0.07,0.24,0.19,0.29,0.33c0.05,0.15,0.04,0.3-0.03,0.44 l-2.19,4.49C15.53,27.88,15.32,28.01,15.1,28.01z"/><path d="M18.35,26.65c-0.09,0-0.17-0.02-0.25-0.06c-0.14-0.07-0.24-0.19-0.29-0.33s-0.04-0.3,0.03-0.44 l1.52-3.12c0.1-0.2,0.3-0.33,0.52-0.33c0.09,0,0.17,0.02,0.25,0.06c0.14,0.07,0.24,0.19,0.29,0.33c0.05,0.15,0.04,0.3-0.03,0.44 l-1.52,3.12C18.77,26.52,18.57,26.65,18.35,26.65z"/></svg>