<svg version="1.1" xmlns="http://www.w3.org/2000/svg" xmlns:xlink="http://www.w3.org/1999/xlink" viewBox="0 0 32 32" xml:space="preserve"><path d="M6.72,28.53c-0.11,0-0.22-0.03-0.32-0.09c-0.24-0.15-0.33-0.45-0.22-0.71L8,23.46H6.72 c-0.19,0-0.37-0.09-0.48-0.25c-0.11-0.16-0.13-0.35-0.07-0.53l2.16-5.89c0.08-0.23,0.3-0.38,0.55-0.38h4.52 c0.21,0,0.4,0.11,0.51,0.3c0.1,0.18,0.1,0.41-0.01,0.59l-2.09,3.38l1.13,0.01c0.23,0,0.44,0.14,0.53,0.35 c0.09,0.21,0.05,0.46-0.11,0.63l-6.21,6.69C7.04,28.46,6.88,28.53,6.72,28.53z M8.88,22.3c0.2,0,0.38,0.1,0.48,0.26 c0.11,0.16,0.13,0.37,0.05,0.55l-0.85,2l3.04-3.28l-0.85,0c-0.21,0-0.4-0.12-0.5-0.3c-0.1-0.18-0.1-0.41,0.01-0.59l2.09-3.37 H9.28L7.55,22.3H8.88z"/><path d="M15.19,21.83c-0.16,0-0.3-0.06-0.41-0.17c-0.11-0.11-0.17-0.26-0.17-0.41c0-0.32,0.26-0.58,0.58-0.58 l5.85,0c1.3,0,2.35-1.05,2.35-2.35c0-1.3-1.05-2.35-2.35-2.35h-0.62c-0.32,0-0.58-0.26-0.58-0.58c0-1.89-1.28-3.16-3.19-3.16 c-0.44,0-0.87,0.08-1.29,0.25c-0.07,0.03-0.14,0.04-0.22,0.04c-0.09,0-0.17-0.02-0.25-0.06c-0.15-0.07-0.26-0.2-0.3-0.36 c-0.51-1.73-2.12-2.94-3.93-2.94c-2.26,0-4.09,1.84-4.09,4.09c0,0.14,0.01,0.29,0.02,0.43c0.02,0.16-0.04,0.33-0.15,0.45 c-0.11,0.12-0.27,0.19-0.43,0.19H5.4c-1.79,0-3.24,1.45-3.24,3.24c0,1.73,1.39,3.03,3.24,3.03c0.32,0,0.58,0.26,0.58,0.58 c0,0.32-0.26,0.58-0.58,0.58c-2.51,0-4.4-1.8-4.4-4.19c0-2.43,1.98-4.4,4.4-4.4h0.01C5.46,10.31,7.8,8,10.67,8 c2.1,0,4.02,1.28,4.84,3.21c0.38-0.1,0.76-0.15,1.15-0.15c2.35,0,4.06,1.49,4.32,3.74h0.07c1.94,0,3.51,1.58,3.51,3.51 c0,1.94-1.58,3.51-3.51,3.51L15.19,21.83z"/><path d="M13.38,25.89c-0.09,0-0.17-0.02-0.25-0.06c-0.29-0.14-0.41-0.49-0.27-0.78l1.2-2.46 c0.1-0.2,0.3-0.33,0.52-0.33c0.09,0,0.17,0.02,0.25,0.06c0.14,0.07,0.24,0.19,0.29,0.33c0.05,0.15,0.04,0.3-0.03,0.44l-1.2,2.46 C13.8,25.76,13.6,25.89,13.38,25.89z"/><path d="M15.1,28.01c-0.09,0-0.17-0.02-0.25-0.06c-0.14-0.07-0.24-0.19-0.29-0.33c-0.05-0.15-0.04-0.3,0.03-0.44 l2.19-4.49c0.1-0.2,0.3-0.33,0.52-0.33c0.09,0,0.17,0.02,0.25,0.06c0.14,0.07,0.24,0.19,0.29,0.33c0.05,0.15,0.04,0.3-0.03,0.44 l-2.19,4.49C15.53,27.88,15.32,28.01,15.1,28.01z"/><path d="M18.35,26.65c-0.09,0-0.17-0.02-0.25-0.06c-0.14-0.07-0.24-0.19-0.29-0.33s-0.04-0.3,0.03-0.44 l1.52-3.12c0.1-0.2,0.3-0.33,0.52-0.33c0.09,0,0.17,0.02,0.25,0.06c0.14,0.07,0.24,0.19,0.29,0.33c0.05,0.15,0.04,0.3-0.03,0.44 l-1.52,3.12C18.77,26.52,18.57,26.65,18.35,26.65z"/><path d="M25.61,16.46c-0.23,0-0.43-0.18-0.44-0.42c-0.02-0.24,0.17-0.46,0.41-0.47 c0.26-0.02,0.53-0.06,0.79-0.11c1.29-0.28,2.43-1.03,3.19-2.1c-0.42,0.1-0.99,0.19-1.64,0.19c-0.6,0-1.16-0.08-1.68-0.24 c-1.58-0.48-2.66-1.62-3.21-3.39c-0.58-1.83-0.15-3.69,1.08-4.92c-0.01,0-0.01,0-0.02,0c-2.53,0.55-4.3,2.83-4.2,5.42 c0.01,0.24-0.18,0.45-0.43,0.46c-0.01,0-0.01,0-0.02,0c-0.24,0-0.44-0.19-0.44-0.43c-0.12-3.02,1.94-5.68,4.9-6.33 C24.34,4.05,24.79,4,25.24,4c0.16,0,0.33,0.01,0.49,0.02c0.2,0.02,0.37,0.17,0.4,0.37c0.03,0.2-0.07,0.4-0.26,0.48 c-1.78,0.78-2.62,2.79-1.99,4.79c0.46,1.47,1.34,2.41,2.62,2.8c0.44,0.14,0.93,0.2,1.44,0.2c1.2,0,2.18-0.37,2.32-0.49 c0.08-0.06,0.18-0.1,0.28-0.1c0.1,0,0.19,0.03,0.27,0.09c0.16,0.12,0.22,0.34,0.14,0.53c-0.8,1.84-2.44,3.2-4.39,3.63 c-0.08,0.02-0.17,0.04-0.25,0.05c-0.22,0.04-0.45,0.07-0.67,0.08C25.63,16.46,25.62,16.46,25.61,16.46z"/></svg>