<svg version="1.1" xmlns="http://www.w3.org/2000/svg" xmlns:xlink="http://www.w3.org/1999/xlink" viewBox="0 0 32 32" xml:space="preserve"><path d="M9.25,28.89c-0.11,0-0.23-0.03-0.32-0.1c-0.24-0.16-0.34-0.46-0.22-0.73l1.85-4.34h-1.3 c-0.19,0-0.37-0.09-0.48-0.25c-0.11-0.16-0.14-0.36-0.07-0.54l2.2-6.01c0.09-0.23,0.31-0.39,0.56-0.39h4.6 c0.21,0,0.41,0.12,0.52,0.3c0.1,0.19,0.1,0.42-0.01,0.6l-2.13,3.44l1.15,0.01c0.23,0,0.45,0.14,0.54,0.36 c0.09,0.21,0.05,0.47-0.11,0.64L9.69,28.7C9.57,28.82,9.42,28.89,9.25,28.89z M11.45,22.54c0.2,0,0.38,0.1,0.49,0.27 c0.11,0.17,0.13,0.38,0.05,0.56l-0.87,2.04l3.1-3.34l-0.86,0c-0.21,0-0.41-0.12-0.51-0.31c-0.1-0.19-0.1-0.42,0.01-0.6 l2.12-3.44h-3.13l-1.76,4.82H11.45z"/><path d="M17.65,22.09c-0.16,0-0.31-0.06-0.42-0.17c-0.11-0.11-0.17-0.26-0.17-0.42c0-0.33,0.27-0.59,0.59-0.59 l3.77,0c1.32,0,2.4-1.07,2.4-2.4c0-1.32-1.07-2.4-2.4-2.4h-0.63c-0.33,0-0.59-0.27-0.59-0.59c0-1.93-1.31-3.22-3.25-3.22 c-0.45,0-0.89,0.09-1.31,0.26c-0.07,0.03-0.14,0.04-0.22,0.04c-0.09,0-0.18-0.02-0.26-0.06c-0.15-0.07-0.26-0.21-0.31-0.37 c-0.52-1.76-2.16-2.99-4-2.99c-2.3,0-4.17,1.87-4.17,4.17c0,0.14,0.01,0.29,0.02,0.44c0.02,0.17-0.04,0.33-0.15,0.46 c-0.11,0.12-0.27,0.2-0.44,0.2H5.49c-1.82,0-3.3,1.48-3.3,3.3c0,1.76,1.42,3.08,3.3,3.08H7.9c0.33,0,0.59,0.27,0.59,0.59 s-0.27,0.59-0.59,0.59H5.49C2.93,22.02,1,20.18,1,17.75c0-2.47,2.01-4.49,4.49-4.49H5.5C5.54,10.35,7.93,8,10.85,8 c2.14,0,4.1,1.3,4.93,3.27c0.38-0.1,0.77-0.15,1.17-0.15c2.4,0,4.14,1.52,4.4,3.81h0.07c1.97,0,3.58,1.61,3.58,3.58 c0,1.97-1.61,3.58-3.58,3.58L17.65,22.09z"/><path d="M25.61,16.46c-0.23,0-0.43-0.18-0.44-0.42c-0.02-0.24,0.17-0.46,0.41-0.47c0.26-0.02,0.53-0.06,0.79-0.11 c1.29-0.28,2.43-1.03,3.19-2.1c-0.42,0.1-0.99,0.19-1.64,0.19c-0.6,0-1.16-0.08-1.68-0.24c-1.58-0.48-2.66-1.62-3.21-3.39 c-0.58-1.83-0.15-3.69,1.08-4.92c-0.01,0-0.01,0-0.02,0c-2.53,0.55-4.3,2.83-4.2,5.42c0.01,0.24-0.18,0.45-0.43,0.46 c-0.01,0-0.01,0-0.02,0c-0.24,0-0.44-0.19-0.44-0.43c-0.12-3.02,1.94-5.68,4.9-6.33C24.34,4.05,24.79,4,25.24,4 c0.16,0,0.33,0.01,0.49,0.02c0.2,0.02,0.37,0.17,0.4,0.37c0.03,0.2-0.07,0.4-0.26,0.48c-1.78,0.78-2.62,2.79-1.99,4.79 c0.46,1.47,1.34,2.41,2.62,2.8c0.44,0.14,0.93,0.2,1.44,0.2c1.2,0,2.18-0.37,2.32-0.49c0.08-0.06,0.18-0.1,0.28-0.1 c0.1,0,0.19,0.03,0.27,0.09c0.16,0.12,0.22,0.34,0.14,0.53c-0.8,1.84-2.44,3.2-4.39,3.63c-0.08,0.02-0.17,0.04-0.25,0.05 c-0.22,0.04-0.45,0.07-0.67,0.08C25.63,16.46,25.62,16.46,25.61,16.46z"/></svg>