<?xml version="1.0" encoding="utf-8"?><svg version="1.1" xmlns="http://www.w3.org/2000/svg" xmlns:xlink="http://www.w3.org/1999/xlink" viewBox="0 0 32 32" xml:space="preserve"><path d="M10.06,28.88c-0.11,0-0.23-0.03-0.32-0.1c-0.24-0.16-0.34-0.46-0.22-0.73l1.85-4.34h-1.3 c-0.19,0-0.37-0.09-0.48-0.25c-0.11-0.16-0.14-0.36-0.07-0.54l2.2-6.01c0.09-0.23,0.31-0.39,0.56-0.39h4.6 c0.21,0,0.41,0.12,0.52,0.3c0.1,0.19,0.1,0.42-0.01,0.6l-2.13,3.44l1.15,0.01c0.23,0,0.45,0.14,0.54,0.36 c0.09,0.21,0.05,0.47-0.11,0.64l-6.32,6.82C10.38,28.81,10.22,28.88,10.06,28.88z M12.26,22.54c0.2,0,0.38,0.1,0.49,0.27 c0.11,0.17,0.13,0.38,0.05,0.56l-0.87,2.04l3.1-3.34l-0.86,0c-0.21,0-0.41-0.12-0.51-0.31c-0.1-0.19-0.1-0.42,0.01-0.6 l2.12-3.44h-3.13l-1.76,4.82H12.26z"/><path d="M18.46,22.09c-0.16,0-0.31-0.06-0.42-0.17c-0.11-0.11-0.17-0.26-0.17-0.42c0-0.33,0.27-0.59,0.59-0.59 l5.96,0c1.32,0,2.4-1.07,2.4-2.4c0-1.32-1.07-2.4-2.4-2.4h-0.63c-0.33,0-0.59-0.27-0.59-0.59c0-1.93-1.31-3.22-3.25-3.22 c-0.45,0-0.89,0.09-1.31,0.26c-0.07,0.03-0.14,0.04-0.22,0.04c-0.09,0-0.18-0.02-0.26-0.06c-0.15-0.07-0.26-0.21-0.31-0.37 c-0.52-1.76-2.16-2.99-4-2.99c-2.3,0-4.17,1.87-4.17,4.17c0,0.15,0.01,0.3,0.02,0.44c0.02,0.17-0.04,0.33-0.15,0.46 c-0.11,0.12-0.27,0.2-0.44,0.2H8.49c-1.82,0-3.3,1.48-3.3,3.3c0,1.76,1.42,3.08,3.3,3.08c0.33,0,0.59,0.27,0.59,0.59 c0,0.33-0.27,0.59-0.59,0.59C5.93,22.02,4,20.18,4,17.75c0-2.47,2.01-4.49,4.49-4.49H8.5C8.54,10.35,10.93,8,13.85,8 c2.14,0,4.1,1.3,4.93,3.27c0.38-0.1,0.78-0.15,1.17-0.15c2.4,0,4.14,1.52,4.4,3.81h0.07c1.97,0,3.58,1.61,3.58,3.58 c0,1.97-1.61,3.58-3.58,3.58L18.46,22.09z"/><path d="M16.39,26.23c-0.09,0-0.18-0.02-0.26-0.06c-0.14-0.07-0.25-0.19-0.3-0.34 c-0.05-0.15-0.04-0.31,0.03-0.45l1.22-2.5c0.1-0.2,0.31-0.33,0.53-0.33c0.09,0,0.18,0.02,0.26,0.06 c0.14,0.07,0.25,0.19,0.3,0.34c0.05,0.15,0.04,0.31-0.03,0.45l-1.22,2.5C16.82,26.1,16.61,26.23,16.39,26.23z"/><path d="M18.15,28.39c-0.09,0-0.18-0.02-0.26-0.06c-0.14-0.07-0.25-0.19-0.3-0.34 c-0.05-0.15-0.04-0.31,0.03-0.45l2.23-4.57c0.1-0.21,0.3-0.33,0.53-0.33c0.09,0,0.18,0.02,0.26,0.06 c0.29,0.14,0.42,0.5,0.27,0.79l-2.23,4.57C18.58,28.26,18.38,28.39,18.15,28.39z"/><path d="M21.45,27c-0.09,0-0.18-0.02-0.26-0.06c-0.29-0.14-0.42-0.5-0.27-0.79l1.55-3.18 c0.1-0.2,0.31-0.33,0.53-0.33c0.09,0,0.18,0.02,0.26,0.06c0.29,0.14,0.42,0.5,0.27,0.79l-1.55,3.18 C21.89,26.86,21.68,27,21.45,27z"/></svg>