<svg version="1.1" xmlns="http://www.w3.org/2000/svg" xmlns:xlink="http://www.w3.org/1999/xlink" viewBox="0 0 48 48" style="enable-background:new 0 0 48 48;" xml:space="preserve"><path  d="M12.7,33.4c-1.8,0-3.5-0.7-4.8-2c-1.3-1.3-2-3-1.9-4.8c0-1.8,0.7-3.5,2-4.8c1.3-1.2,3-1.9,4.7-1.9 c0.1-2.1,0.9-4,2.4-5.5c1.5-1.5,3.5-2.3,5.7-2.3l0.1,0c3.2,0,6.1,2,7.4,4.9c0.5-0.1,1.1-0.2,1.6-0.2l0,0c1.9,0,3.6,0.7,4.8,1.9 c1,1,1.6,2.3,1.8,3.8h0c3,0,5.4,2.5,5.4,5.5c0,3-2.5,5.4-5.5,5.4L12.7,33.4z M12.8,21.8c-1.3,0-2.5,0.5-3.4,1.4 C8.5,24,8,25.2,8,26.5c0,1.3,0.5,2.5,1.4,3.4c0.9,0.9,2.1,1.4,3.4,1.4l23.8,0c1.9,0,3.4-1.5,3.5-3.4c0-1.9-1.5-3.5-3.4-3.5l-0.9,0 c-0.3,0-0.5-0.1-0.7-0.3c-0.2-0.2-0.3-0.4-0.3-0.7c0-1.4-0.4-2.6-1.3-3.4c-0.8-0.8-2-1.3-3.4-1.3c0,0-0.1,0-0.1,0 c-0.6,0-1.2,0.1-1.8,0.4c-0.1,0-0.2,0.1-0.4,0.1c-0.2,0-0.3,0-0.4-0.1c-0.3-0.1-0.4-0.4-0.5-0.6C26,15.9,23.6,14,20.9,14l-0.1,0 c-1.6,0-3.1,0.6-4.2,1.7c-1.2,1.1-1.8,2.7-1.8,4.3c0,0.2,0,0.4,0,0.6c0,0.3-0.1,0.6-0.3,0.8c-0.2,0.2-0.4,0.3-0.7,0.3L12.8,21.8z" /><path  d="M14.9,37.1c-0.6,0-1-0.5-1-1c0-0.5,0.4-1,1-1c0,0,0,0,0,0h18c0.6,0,1,0.5,1,1c0,0.5-0.5,1-1,1H14.9z"/><path  d="M14.9,41c-0.6,0-1-0.5-1-1c0-0.5,0.5-1,1-1h18c0.6,0,1,0.5,1,1c0,0.5-0.5,1-1,1H14.9z"/><path  d="M14.9,44.9c-0.6,0-1-0.5-1-1c0-0.5,0.5-1,1-1h18c0.6,0,1,0.5,1,1c0,0.5-0.5,1-1,1H14.9z"/></svg>
