<svg version="1.1" xmlns="http://www.w3.org/2000/svg" xmlns:xlink="http://www.w3.org/1999/xlink" viewBox="0 0 48 48" style="enable-background:new 0 0 48 48;" xml:space="preserve"><path  d="M8.2,27.8c0.2,0.8,0.6,1.5,1.2,2.2c0.9,0.9,2.1,1.4,3.4,1.4l23.8,0c1.9,0,3.4-1.5,3.5-3.4 	c0-1.9-1.5-3.5-3.4-3.5l-0.9,0c-0.3,0-0.5-0.1-0.7-0.3c-0.2-0.2-0.3-0.4-0.3-0.7c0-1.4-0.4-2.6-1.3-3.4c-0.8-0.8-2-1.3-3.4-1.3 	c0,0-0.1,0-0.1,0c-0.6,0-1.2,0.1-1.8,0.4c-0.1,0-0.2,0.1-0.4,0.1c-0.2,0-0.3,0-0.4-0.1c-0.3-0.1-0.4-0.4-0.5-0.6 	c-0.7-2.4-2.8-4.2-5.3-4.4c0,0-1.1-0.1-1.1-1s1.2-1,1.2-1c3,0.2,5.6,2.1,6.8,4.9c0.5-0.1,1.1-0.2,1.6-0.2l0,0 	c1.9,0,3.6,0.7,4.8,1.9c1,1,1.6,2.3,1.8,3.8h0c3,0,5.4,2.5,5.4,5.5c0,3-2.5,5.4-5.5,5.4l-23.8,0c-1.8,0-3.5-0.7-4.8-2 	c-0.8-0.8-1.4-1.9-1.7-3c0,0-0.2-0.9,0.7-1.2S8.2,27.8,8.2,27.8z"/><path  d="M14.9,37.1c-0.6,0-1-0.5-1-1c0-0.5,0.4-1,1-1c0,0,0,0,0,0h18c0.6,0,1,0.5,1,1c0,0.5-0.5,1-1,1H14.9z"/><path  d="M14.9,41c-0.6,0-1-0.5-1-1c0-0.5,0.5-1,1-1h18c0.6,0,1,0.5,1,1c0,0.5-0.5,1-1,1H14.9z"/><path  d="M14.9,44.9c-0.6,0-1-0.5-1-1c0-0.5,0.5-1,1-1h18c0.6,0,1,0.5,1,1c0,0.5-0.5,1-1,1H14.9z"/><path  d="M11,27.2c-0.5,0-1-0.4-1-1v-0.9l-0.4,0.4C9.4,25.9,9.2,26,8.9,26c-0.3,0-0.5-0.1-0.7-0.3 c-0.4-0.4-0.4-1,0-1.4l1.8-1.8v-2.7l-2.3,1.3L7,23.6c-0.1,0.4-0.5,0.7-1,0.7c-0.1,0-0.2,0-0.3,0c-0.3-0.1-0.5-0.2-0.6-0.5 c-0.1-0.2-0.2-0.5-0.1-0.8l0.1-0.5L4.5,23c-0.2,0.1-0.3,0.1-0.5,0.1c-0.4,0-0.7-0.2-0.9-0.5c-0.3-0.5-0.1-1.1,0.4-1.4l0.8-0.4 l-0.5-0.1C3.2,20.5,2.9,20,3,19.5c0.1-0.4,0.5-0.7,1-0.7c0.1,0,0.2,0,0.3,0l2.5,0.7L9,18.1l-2.3-1.3l-2.5,0.7c-0.1,0-0.2,0-0.3,0 c-0.4,0-0.8-0.3-1-0.7c-0.1-0.5,0.2-1.1,0.7-1.2l0.5-0.1l-0.8-0.4C3,14.6,2.9,14,3.1,13.5C3.3,13.2,3.6,13,4,13 c0.2,0,0.3,0,0.5,0.1l0.8,0.4l-0.1-0.5C5,12.6,5.3,12,5.8,11.9c0.1,0,0.2,0,0.3,0c0.4,0,0.8,0.3,1,0.7L7.7,15l2.3,1.3v-2.7 l-1.8-1.8c-0.4-0.4-0.4-1,0-1.4c0.2-0.2,0.4-0.3,0.7-0.3c0.3,0,0.5,0.1,0.7,0.3l0.4,0.4V10c0-0.5,0.4-1,1-1c0.5,0,1,0.4,1,1v0.9 l0.4-0.4c0.2-0.2,0.4-0.3,0.7-0.3s0.5,0.1,0.7,0.3c0.4,0.4,0.4,1,0,1.4L12,13.7v2.7l2.3-1.3l0.7-2.5c0.1-0.4,0.5-0.7,1-0.7 c0.1,0,0.2,0,0.3,0c0.3,0.1,0.5,0.2,0.6,0.5c0.1,0.2,0.2,0.5,0.1,0.8l-0.1,0.5l0.8-0.4c0.2-0.1,0.3-0.1,0.5-0.1 c0.4,0,0.7,0.2,0.9,0.5c0.3,0.5,0.1,1.1-0.4,1.4l-0.8,0.4l0.5,0.1c0.3,0.1,0.5,0.2,0.6,0.5c0.1,0.2,0.2,0.5,0.1,0.8 c-0.1,0.4-0.5,0.7-1,0.7c-0.1,0-0.2,0-0.3,0l-2.5-0.7L13,18.1l2.3,1.3l2.5-0.7c0.1,0,0.2,0,0.3,0c0.4,0,0.8,0.3,1,0.7 c0.1,0.3,0,0.5-0.1,0.8c-0.1,0.2-0.3,0.4-0.6,0.5l-0.5,0.1l0.8,0.4c0.5,0.3,0.6,0.9,0.4,1.4c-0.2,0.3-0.5,0.5-0.9,0.5 c-0.2,0-0.3,0-0.5-0.1l-0.8-0.4l0.1,0.5c0.1,0.3,0,0.5-0.1,0.8c-0.1,0.2-0.3,0.4-0.6,0.5c-0.1,0-0.2,0-0.3,0c-0.4,0-0.8-0.3-1-0.7 l-0.7-2.5L12,19.8v2.7l1.8,1.8c0.4,0.4,0.4,1,0,1.4c-0.2,0.2-0.4,0.3-0.7,0.3s-0.5-0.1-0.7-0.3L12,25.3v0.9 C12,26.7,11.5,27.2,11,27.2z"/></svg>
