<svg version="1.1" xmlns="http://www.w3.org/2000/svg" xmlns:xlink="http://www.w3.org/1999/xlink" viewBox="0 0 48 48" style="enable-background:new 0 0 48 48;" xml:space="preserve"><path  d="M24,35.9c-6.5,0-11.9-5.3-11.9-11.9c0-6.5,5.3-11.9,11.9-11.9c6.5,0,11.9,5.3,11.9,11.9 C35.9,30.5,30.5,35.9,24,35.9z M24,14.9c-5,0-9.1,4.1-9.1,9.1c0,5,4.1,9.1,9.1,9.1c5,0,9.1-4.1,9.1-9.1C33.1,19,29,14.9,24,14.9z" /><path  d="M24,10.1c-0.7,0-1.4-0.6-1.4-1.4V4.4C22.6,3.6,23.3,3,24,3s1.4,0.6,1.4,1.4v4.4C25.4,9.5,24.7,10.1,24,10.1z" /><path  d="M13.2,14.6c-0.4,0-0.7-0.1-1-0.4l-3.1-3.1c-0.5-0.5-0.5-1.4,0-1.9c0.3-0.3,0.6-0.4,1-0.4s0.7,0.1,1,0.4 l3.1,3.1c0.5,0.5,0.5,1.4,0,1.9C13.9,14.4,13.6,14.6,13.2,14.6z"/><path  d="M4.4,25.4C3.6,25.4,3,24.7,3,24c0-0.7,0.6-1.4,1.4-1.4h4.4c0.7,0,1.4,0.6,1.4,1.4c0,0.7-0.6,1.4-1.4,1.4H4.4z "/><path  d="M10.1,39.2c-0.4,0-0.7-0.1-1-0.4c-0.5-0.5-0.5-1.4,0-1.9l3.1-3.1c0.3-0.3,0.6-0.4,1-0.4c0.4,0,0.7,0.1,1,0.4 c0.5,0.5,0.5,1.4,0,1.9l-3.1,3.1C10.8,39.1,10.5,39.2,10.1,39.2z"/><path  d="M24,45c-0.7,0-1.4-0.6-1.4-1.4v-4.4c0-0.7,0.6-1.4,1.4-1.4s1.4,0.6,1.4,1.4v4.4C25.4,44.4,24.7,45,24,45z"/><path  d="M37.9,39.2c-0.4,0-0.7-0.1-1-0.4l-3.1-3.1c-0.5-0.5-0.5-1.4,0-1.9c0.3-0.3,0.6-0.4,1-0.4s0.7,0.1,1,0.4 l3.1,3.1c0.5,0.5,0.5,1.4,0,1.9C38.6,39.1,38.3,39.2,37.9,39.2z"/><path  d="M39.2,25.4c-0.7,0-1.4-0.6-1.4-1.4c0-0.7,0.6-1.4,1.4-1.4h4.4c0.7,0,1.4,0.6,1.4,1.4c0,0.7-0.6,1.4-1.4,1.4 H39.2z"/><path  d="M34.8,14.6c-0.4,0-0.7-0.1-1-0.4c-0.5-0.5-0.5-1.4,0-1.9l3.1-3.1c0.3-0.3,0.6-0.4,1-0.4s0.7,0.1,1,0.4 c0.5,0.5,0.5,1.4,0,1.9l-3.1,3.1C35.5,14.4,35.1,14.6,34.8,14.6z"/></svg>
