<svg version="1.1" xmlns="http://www.w3.org/2000/svg" xmlns:xlink="http://www.w3.org/1999/xlink" viewBox="0 0 48 48" style="enable-background:new 0 0 48 48;" xml:space="preserve"><path  d="M23.4,40c-8.8,0-16-7.2-16-16c0-8.8,7.2-16,16-16C25,8,26.5,8.2,28,8.7c0.5,0.1,0.8,0.6,0.8,1.1 	c0,0.5-0.4,0.9-0.9,1c-5.2,1-9,5.6-9,11c0,6.2,5,11.2,11.2,11.2c1.7,0,3.4-0.4,4.9-1.1c0.1-0.1,0.3-0.1,0.5-0.1 	c0.3,0,0.6,0.1,0.8,0.4c0.3,0.4,0.3,0.9,0.1,1.3C33.4,37.5,28.5,40,23.4,40z M23.4,10.1c-7.6,0-13.9,6.2-13.9,13.9 	s6.2,13.9,13.9,13.9c3.1,0,6.1-1.1,8.6-3C31.4,35,30.7,35,30.1,35c-7.3,0-13.3-6-13.3-13.3c0-4.8,2.6-9.2,6.7-11.6 	C23.5,10.1,23.5,10.1,23.4,10.1z"/></svg>
