<svg version="1.1" id="Layer_1" xmlns="http://www.w3.org/2000/svg" xmlns:xlink="http://www.w3.org/1999/xlink"  viewBox="0 0 48 48" style="enable-background:new 0 0 48 48;" xml:space="preserve"><path  d="M17.8,14.7c0.1-0.1,0.3-0.3,0.4-0.4c1.5-1.5,3.5-2.3,5.7-2.3H24c3.2,0,6.1,2,7.4,4.9c0.5-0.1,1.1-0.2,1.6-0.2 l0,0c1.9,0,3.6,0.7,4.8,1.9c1,1,1.6,2.3,1.8,3.8l0,0c3,0,5.4,2.5,5.4,5.5c0,2.2-1.3,4.1-3.2,4.9c0,0-1,0.4-1.3-0.5 C40.1,31.4,41,31,41,31c1.2-0.5,2-1.7,2-3.1c0-1.9-1.5-3.5-3.4-3.5h-0.9c-0.3,0-0.5-0.1-0.7-0.3c-0.2-0.2-0.3-0.4-0.3-0.7 c0-1.4-0.4-2.6-1.3-3.4c-0.8-0.8-2-1.3-3.4-1.3h-0.1c-0.6,0-1.2,0.1-1.8,0.4c-0.1,0-0.2,0.1-0.4,0.1c-0.2,0-0.3,0-0.4-0.1 c-0.3-0.1-0.4-0.4-0.5-0.6C29,15.9,26.6,14,23.9,14h-0.1c-1.6,0-3.1,0.6-4.2,1.7c-0.1,0.1-0.3,0.3-0.4,0.4c0,0-0.8,0.8-1.6,0.1 S17.8,14.7,17.8,14.7z"/><path  d="M9.7,39.4c-1.8,0-3.5-0.7-4.8-2s-2-3-1.9-4.8c0-1.8,0.7-3.5,2-4.8c1.3-1.2,3-1.9,4.7-1.9 c0.1-2.1,0.9-4,2.4-5.5s3.5-2.3,5.7-2.3h0.1c3.2,0,6.1,2,7.4,4.9c0.5-0.1,1.1-0.2,1.6-0.2l0,0c1.9,0,3.6,0.7,4.8,1.9 c1,1,1.6,2.3,1.8,3.8l0,0c3,0,5.4,2.5,5.4,5.5s-2.5,5.4-5.5,5.4H9.7z M9.8,27.8c-1.3,0-2.5,0.5-3.4,1.4C5.5,30,5,31.2,5,32.5 s0.5,2.5,1.4,3.4s2.1,1.4,3.4,1.4h23.8c1.9,0,3.4-1.5,3.5-3.4c0-1.9-1.5-3.5-3.4-3.5h-0.9c-0.3,0-0.5-0.1-0.7-0.3 c-0.2-0.2-0.3-0.4-0.3-0.7c0-1.4-0.4-2.6-1.3-3.4c-0.8-0.8-2-1.3-3.4-1.3H27c-0.6,0-1.2,0.1-1.8,0.4c-0.1,0-0.2,0.1-0.4,0.1 c-0.2,0-0.3,0-0.4-0.1c-0.3-0.1-0.4-0.4-0.5-0.6c-0.9-2.6-3.3-4.5-6-4.5h-0.1c-1.6,0-3.1,0.6-4.2,1.7c-1.2,1.1-1.8,2.7-1.8,4.3 c0,0.2,0,0.4,0,0.6c0,0.3-0.1,0.6-0.3,0.8c-0.2,0.2-0.4,0.3-0.7,0.3L9.8,27.8z"/></svg>
