<svg version="1.1" xmlns="http://www.w3.org/2000/svg" xmlns:xlink="http://www.w3.org/1999/xlink" viewBox="0 0 48 48" style="enable-background:new 0 0 48 48;" xml:space="preserve"><path  d="M30.2,33.4c-0.6,0-1-0.5-1-1s0.5-1,1-1h2.4c1.9,0,3.4-1.5,3.5-3.4c0-1.9-1.5-3.5-3.4-3.5h-0.9 	c-0.6,0-1-0.5-1-1c0-2.8-1.8-4.7-4.7-4.7H26c-0.6,0-1.3,0.1-1.9,0.3c-0.1,0-0.2,0.1-0.4,0.1c-0.2,0-0.3,0-0.4-0.1 	c-0.3-0.1-0.4-0.4-0.5-0.6C22,15.9,19.7,14,17,14h-0.1c-3.3,0-6.1,2.7-6.1,6c0,0.2,0,0.4,0,0.6c0,0.3-0.1,0.6-0.3,0.8 	c-0.2,0.2-0.5,0.3-0.7,0.3c0,0,0,0-0.1,0H8.8H8.7c-2.6,0-4.8,2.1-4.8,4.7s2.1,4.8,4.7,4.9h2.3c0.6,0,1,0.5,1,1c0,0.5-0.5,1-1,1 	H8.6c-1.8,0-3.5-0.8-4.8-2.1s-2-3-1.9-4.8C2,22.7,5,19.7,8.7,19.7l0,0c0.2-4.3,3.8-7.7,8.1-7.7h0.1c3.2,0,6.1,2,7.3,5 	c0.5-0.1,1-0.2,1.6-0.2h0.1c1.8,0,3.4,0.6,4.6,1.8c1.1,1,1.8,2.4,1.9,4l0,0c3,0,5.4,2.5,5.4,5.5s-2.5,5.4-5.5,5.4 	C32.5,33.5,30.2,33.4,30.2,33.4z"/><path  d="M13.2,36.5c-0.2,0-0.3,0-0.4-0.1c-0.5-0.2-0.7-0.8-0.5-1.3l0.4-0.9c0.2-0.3,0.5-0.6,0.9-0.6 	c0.2,0,0.3,0,0.4,0.1c0.3,0.2,0.6,0.5,0.6,0.9c0,0.2,0,0.3-0.1,0.4l-0.4,0.9C13.9,36.3,13.6,36.5,13.2,36.5z M15.1,32.6 	c-0.1,0-0.3,0-0.4-0.1l0,0c-0.2-0.1-0.4-0.3-0.5-0.6l0,0c-0.1-0.3-0.1-0.5,0.1-0.8l0.4-0.9c0.2-0.3,0.5-0.6,0.9-0.6 	c0.2,0,0.3,0,0.4,0.1c0.5,0.2,0.7,0.8,0.5,1.3L16,32C15.8,32.4,15.5,32.6,15.1,32.6z"/><path  d="M15.2,40.4c-0.1,0-0.3,0-0.4-0.1l0,0c-0.2-0.1-0.4-0.3-0.5-0.6c-0.1-0.2-0.1-0.5,0.1-0.8l0.4-0.9 	c0.2-0.3,0.5-0.6,0.9-0.6c0.2,0,0.3,0,0.4,0.1c0.4,0.2,0.6,0.5,0.6,0.9c0,0.1,0,0.3-0.1,0.4l-0.4,0.9 	C16,40.2,15.6,40.4,15.2,40.4z M17.1,36.5c-0.2,0-0.3,0-0.4-0.1c-0.5-0.2-0.7-0.8-0.5-1.3l0.4-0.9c0.2-0.3,0.5-0.6,0.9-0.6 	c0.2,0,0.3,0,0.4,0.1c0.3,0.2,0.6,0.5,0.6,0.9c0,0.2,0,0.3-0.1,0.4L18,35.9C17.9,36.3,17.5,36.5,17.1,36.5z M19,32.6 	c-0.1,0-0.3,0-0.4-0.1l0,0c-0.2-0.1-0.4-0.3-0.5-0.6l0,0c-0.1-0.3-0.1-0.5,0.1-0.8l0.4-0.9c0.2-0.3,0.5-0.6,0.9-0.6 	c0.2,0,0.3,0,0.4,0.1c0.5,0.2,0.7,0.8,0.5,1.3l-0.5,1C19.8,32.4,19.4,32.6,19,32.6z"/><path  d="M23,32.6c-0.1,0-0.3,0-0.4-0.1l0,0c-0.2-0.1-0.4-0.3-0.5-0.6l0,0c-0.1-0.3-0.1-0.5,0.1-0.8l0.4-0.9 	c0.2-0.3,0.5-0.6,0.9-0.6c0.2,0,0.3,0,0.4,0.1c0.5,0.2,0.7,0.8,0.5,1.3l-0.5,1C23.7,32.4,23.4,32.6,23,32.6z"/><path  d="M25,36.5c-0.2,0-0.3,0-0.4-0.1c-0.5-0.2-0.7-0.8-0.5-1.3l0.4-0.9c0.2-0.3,0.5-0.6,0.9-0.6 	c0.2,0,0.3,0,0.4,0.1c0.3,0.2,0.6,0.5,0.6,0.9c0,0.2,0,0.3-0.1,0.4l-0.4,0.9C25.8,36.3,25.4,36.5,25,36.5z M26.9,32.6 	c-0.1,0-0.3,0-0.4-0.1l0,0c-0.2-0.1-0.4-0.3-0.5-0.6l0,0c-0.1-0.3-0.1-0.5,0.1-0.8l0.4-0.9c0.2-0.3,0.5-0.6,0.9-0.6 	c0.2,0,0.3,0,0.4,0.1c0.5,0.2,0.7,0.8,0.5,1.3l-0.5,1C27.7,32.4,27.3,32.6,26.9,32.6z"/><path  d="M39.8,24.7c1.6-0.3,2.7-1,3.9-2.1c-0.1,0-0.2,0-0.3,0c-1.3,0-3.2-0.2-5-1.1c-2.6-1.3-4.1-3.6-4.5-6.8 	c-0.4-3.1,0.7-6,2.9-7.8c-4.1,0.4-7.5,3.6-8.1,7.7c-0.1,0.5-0.5,0.8-0.9,0.8c0,0-0.1,0-0.1,0c-0.2,0-0.5-0.2-0.6-0.4 	C27,14.9,27,14.6,27,14.4c0.7-5.2,5.1-9.2,10.3-9.4c0.1,0,0.3,0,0.4,0c0.9,0,1.8,0.1,2.7,0.3c0.4,0.1,0.7,0.5,0.7,0.9 	c0,0.4-0.3,0.8-0.7,0.9c-3.2,0.8-5.1,3.8-4.7,7.3c0.3,2.6,1.5,4.4,3.5,5.4c1.5,0.8,3.1,0.9,4.2,0.9c1.2,0,2-0.2,2.1-0.3 	c0.1-0.1,0.3-0.1,0.4-0.1c0.3,0,0.5,0.1,0.7,0.3c0.3,0.3,0.3,0.8,0.1,1.1c-1.6,2.4-3.8,4.1-6.7,4.7c0,0-1,0.2-1.2-0.7 	C38.8,24.9,39.8,24.7,39.8,24.7z"/></svg>
