<svg version="1.1" xmlns="http://www.w3.org/2000/svg" xmlns:xlink="http://www.w3.org/1999/xlink" viewBox="0 0 48 48" style="enable-background:new 0 0 48 48;" xml:space="preserve"><path  d="M34.2,33.4c-0.6,0-1-0.5-1-1c0-0.5,0.5-1,1-1l2.4,0c1.9,0,3.4-1.5,3.5-3.4c0-1.9-1.5-3.5-3.4-3.5l-0.9,0 c-0.6,0-1-0.5-1-1c0-2.8-1.8-4.7-4.7-4.7l-0.1,0c-0.6,0-1.3,0.1-1.9,0.3c-0.1,0-0.2,0.1-0.4,0.1c-0.2,0-0.3,0-0.4-0.1 c-0.3-0.1-0.4-0.4-0.5-0.6C26,15.9,23.7,14,21,14l-0.1,0c-3.3,0-6.1,2.7-6.1,6c0,0.2,0,0.4,0,0.6c0,0.3-0.1,0.6-0.3,0.8 c-0.2,0.2-0.5,0.3-0.7,0.3c0,0,0,0-0.1,0l-0.9,0l-0.1,0c-2.6,0-4.8,2.1-4.8,4.7c0,2.6,2.1,4.8,4.7,4.9l2.3,0c0.6,0,1,0.5,1,1 c0,0.5-0.5,1-1,1l-2.3,0c-1.8,0-3.5-0.8-4.8-2.1s-2-3-1.9-4.8c0.1-3.7,3.1-6.7,6.8-6.7c0,0,0,0,0,0c0.2-4.3,3.8-7.7,8.1-7.7 c0,0,0.1,0,0.1,0c3.2,0,6.1,2,7.3,5c0.5-0.1,1-0.2,1.6-0.2c0,0,0.1,0,0.1,0c1.8,0,3.4,0.6,4.6,1.8c1.1,1,1.8,2.4,1.9,4h0 c3,0,5.4,2.5,5.4,5.5c0,3-2.5,5.4-5.5,5.4C36.5,33.5,34.2,33.4,34.2,33.4z"/><path  d="M13.4,44.3c-0.2,0-0.3,0-0.4-0.1c-0.2-0.1-0.4-0.3-0.5-0.6c-0.1-0.3-0.1-0.5,0-0.8l0.4-0.9 c0.2-0.3,0.5-0.6,0.9-0.6c0.2,0,0.3,0,0.4,0.1c0.3,0.2,0.6,0.5,0.6,0.9c0,0.1,0,0.3-0.1,0.4l-0.4,0.9 C14.1,44.1,13.8,44.3,13.4,44.3z M15.3,40.4c-0.1,0-0.3,0-0.4-0.1l0,0c-0.2-0.1-0.4-0.3-0.5-0.6c-0.1-0.2-0.1-0.5,0.1-0.8l0.4-0.9 c0.2-0.3,0.5-0.6,0.9-0.6c0.2,0,0.3,0,0.4,0.1c0.4,0.2,0.6,0.5,0.6,0.9c0,0.1,0,0.3-0.1,0.4l-0.4,0.9C16,40.2,15.7,40.4,15.3,40.4 z M17.2,36.5c-0.2,0-0.3,0-0.4-0.1c-0.5-0.2-0.7-0.8-0.5-1.3l0.4-0.9c0.2-0.3,0.5-0.6,0.9-0.6c0.2,0,0.3,0,0.4,0.1 c0.3,0.2,0.6,0.5,0.6,0.9c0,0.2,0,0.3-0.1,0.4l-0.4,0.9C17.9,36.3,17.6,36.5,17.2,36.5z M19.1,32.6c-0.1,0-0.3,0-0.4-0.1l0,0 c-0.2-0.1-0.4-0.3-0.5-0.6l0,0c-0.1-0.3-0.1-0.5,0.1-0.8l0.4-0.9c0.2-0.3,0.5-0.6,0.9-0.6c0.2,0,0.3,0,0.4,0.1 c0.5,0.2,0.7,0.8,0.5,1.3L20,32C19.8,32.4,19.5,32.6,19.1,32.6z"/><path  d="M17.3,44.3c-0.2,0-0.3,0-0.4-0.1c-0.2-0.1-0.4-0.3-0.5-0.6c-0.1-0.3-0.1-0.5,0-0.8l0.4-0.9 c0.2-0.3,0.5-0.6,0.9-0.6c0.2,0,0.3,0,0.4,0.1c0.3,0.2,0.6,0.5,0.6,0.9c0,0.1,0,0.3-0.1,0.4l-0.4,0.9 C18.1,44.1,17.7,44.3,17.3,44.3z M19.2,40.4c-0.1,0-0.3,0-0.4-0.1l0,0c-0.2-0.1-0.4-0.3-0.5-0.6c-0.1-0.2-0.1-0.5,0.1-0.8l0.4-0.9 c0.2-0.3,0.5-0.6,0.9-0.6c0.2,0,0.3,0,0.4,0.1c0.4,0.2,0.6,0.5,0.6,0.9c0,0.1,0,0.3-0.1,0.4l-0.4,0.9C20,40.2,19.6,40.4,19.2,40.4 z M21.1,36.5c-0.2,0-0.3,0-0.4-0.1c-0.5-0.2-0.7-0.8-0.5-1.3l0.4-0.9c0.2-0.3,0.5-0.6,0.9-0.6c0.2,0,0.3,0,0.4,0.1 c0.3,0.2,0.6,0.5,0.6,0.9c0,0.2,0,0.3-0.1,0.4L22,35.9C21.9,36.3,21.5,36.5,21.1,36.5z M23,32.6c-0.1,0-0.3,0-0.4-0.1l0,0 c-0.2-0.1-0.4-0.3-0.5-0.6l0,0c-0.1-0.3-0.1-0.5,0.1-0.8l0.4-0.9c0.2-0.3,0.5-0.6,0.9-0.6c0.2,0,0.3,0,0.4,0.1 c0.5,0.2,0.7,0.8,0.5,1.3L23.9,32C23.8,32.4,23.4,32.6,23,32.6z"/><path  d="M21.3,44.3c-0.2,0-0.3,0-0.4-0.1c-0.2-0.1-0.4-0.3-0.5-0.6c-0.1-0.3-0.1-0.5,0-0.8l0.4-0.9 c0.2-0.3,0.5-0.6,0.9-0.6c0.2,0,0.3,0,0.4,0.1c0.3,0.2,0.6,0.5,0.6,0.9c0,0.1,0,0.3-0.1,0.4l-0.4,0.9C22,44.1,21.7,44.3,21.3,44.3 z M23.2,40.4c-0.1,0-0.3,0-0.4-0.1l0,0c-0.2-0.1-0.4-0.3-0.5-0.6c-0.1-0.2-0.1-0.5,0.1-0.8l0.4-0.9c0.2-0.3,0.5-0.6,0.9-0.6 c0.2,0,0.3,0,0.4,0.1c0.4,0.2,0.6,0.5,0.6,0.9c0,0.1,0,0.3-0.1,0.4l-0.4,0.9C23.9,40.2,23.6,40.4,23.2,40.4z M25.1,36.5 c-0.2,0-0.3,0-0.4-0.1c-0.5-0.2-0.7-0.8-0.5-1.3l0.4-0.9c0.2-0.3,0.5-0.6,0.9-0.6c0.2,0,0.3,0,0.4,0.1c0.3,0.2,0.6,0.5,0.6,0.9 c0,0.2,0,0.3-0.1,0.4L26,35.9C25.8,36.3,25.5,36.5,25.1,36.5z M27,32.6c-0.1,0-0.3,0-0.4-0.1l0,0c-0.2-0.1-0.4-0.3-0.5-0.6l0,0 c-0.1-0.3-0.1-0.5,0.1-0.8l0.4-0.9c0.2-0.3,0.5-0.6,0.9-0.6c0.2,0,0.3,0,0.4,0.1c0.5,0.2,0.7,0.8,0.5,1.3L27.9,32 C27.7,32.4,27.4,32.6,27,32.6z"/><path  d="M25.2,44.3c-0.2,0-0.3,0-0.4-0.1c-0.2-0.1-0.4-0.3-0.5-0.6c-0.1-0.3-0.1-0.5,0-0.8l0.4-0.9 c0.2-0.3,0.5-0.6,0.9-0.6c0.2,0,0.3,0,0.4,0.1c0.3,0.2,0.6,0.5,0.6,0.9c0,0.1,0,0.3-0.1,0.4l-0.4,0.9 C25.9,44.1,25.6,44.3,25.2,44.3z M27.1,40.4c-0.1,0-0.3,0-0.4-0.1l0,0c-0.2-0.1-0.4-0.3-0.5-0.6c-0.1-0.2-0.1-0.5,0.1-0.8l0.4-0.9 c0.2-0.3,0.5-0.6,0.9-0.6c0.2,0,0.3,0,0.4,0.1c0.4,0.2,0.6,0.5,0.6,0.9c0,0.1,0,0.3-0.1,0.4L28,39.8 C27.9,40.2,27.5,40.4,27.1,40.4z M29,36.5c-0.2,0-0.3,0-0.4-0.1c-0.5-0.2-0.7-0.8-0.5-1.3l0.4-0.9c0.2-0.3,0.5-0.6,0.9-0.6 c0.2,0,0.3,0,0.4,0.1c0.3,0.2,0.6,0.5,0.6,0.9c0,0.2,0,0.3-0.1,0.4l-0.4,0.9C29.8,36.3,29.4,36.5,29,36.5z M30.9,32.6 c-0.1,0-0.3,0-0.4-0.1l0,0c-0.2-0.1-0.4-0.3-0.5-0.6l0,0c-0.1-0.3-0.1-0.5,0.1-0.8l0.4-0.9c0.2-0.3,0.5-0.6,0.9-0.6 c0.2,0,0.3,0,0.4,0.1c0.5,0.2,0.7,0.8,0.5,1.3L31.8,32C31.7,32.4,31.3,32.6,30.9,32.6z"/></svg>
