<svg version="1.1" xmlns="http://www.w3.org/2000/svg" xmlns:xlink="http://www.w3.org/1999/xlink" viewBox="0 0 48 48" style="enable-background:new 0 0 48 48;" xml:space="preserve"><path  d="M21.8,12.1c2.8,0.3,5.3,2.2,6.4,4.9c0.5-0.1,1-0.2,1.6-0.2h0.1c1.8,0,3.4,0.6,4.6,1.8c1.1,1,1.8,2.4,1.9,4 	l0,0c3,0,5.4,2.5,5.4,5.5s-2.5,5.4-5.5,5.4c0.2,0-2.1-0.1-2.1-0.1c-0.6,0-1-0.5-1-1s0.5-1,1-1h2.4c1.9,0,3.4-1.5,3.5-3.4 	c0-1.9-1.5-3.5-3.4-3.5h-0.9c-0.6,0-1-0.5-1-1c0-2.8-1.8-4.7-4.7-4.7H30c-0.6,0-1.3,0.1-1.9,0.3c-0.1,0-0.2,0.1-0.4,0.1 	c-0.2,0-0.3,0-0.4-0.1c-0.3-0.1-0.4-0.4-0.5-0.6c-0.7-2.4-2.7-4.2-5.1-4.5c0,0-1.1-0.1-1.1-1.1S21.8,12.1,21.8,12.1z"/><path  d="M8.2,28.1c0.7,1.8,2.4,3.1,4.4,3.2h2.3c0.6,0,1,0.5,1,1c0,0.5-0.5,1-1,1h-2.3c-1.8,0-3.5-0.8-4.8-2.1 	c-0.8-0.8-1.3-1.6-1.6-2.6c0,0-0.3-1.2,0.7-1.4S8.2,28.1,8.2,28.1z"/><path  d="M17.2,36.5c-0.2,0-0.3,0-0.4-0.1c-0.5-0.2-0.7-0.8-0.5-1.3l0.4-0.9c0.2-0.3,0.5-0.6,0.9-0.6 	c0.2,0,0.3,0,0.4,0.1c0.3,0.2,0.6,0.5,0.6,0.9c0,0.2,0,0.3-0.1,0.4l-0.4,0.9C17.9,36.3,17.6,36.5,17.2,36.5z M19.1,32.6 	c-0.1,0-0.3,0-0.4-0.1l0,0c-0.2-0.1-0.4-0.3-0.5-0.6l0,0c-0.1-0.3-0.1-0.5,0.1-0.8l0.4-0.9c0.2-0.3,0.5-0.6,0.9-0.6 	c0.2,0,0.3,0,0.4,0.1c0.5,0.2,0.7,0.8,0.5,1.3L20,32C19.8,32.4,19.5,32.6,19.1,32.6z"/><path  d="M17.3,44.3c-0.2,0-0.3,0-0.4-0.1c-0.2-0.1-0.4-0.3-0.5-0.6s-0.1-0.5,0-0.8l0.4-0.9c0.2-0.3,0.5-0.6,0.9-0.6 	c0.2,0,0.3,0,0.4,0.1c0.3,0.2,0.6,0.5,0.6,0.9c0,0.1,0,0.3-0.1,0.4l-0.4,0.9C18.1,44.1,17.7,44.3,17.3,44.3z M19.2,40.4 	c-0.1,0-0.3,0-0.4-0.1l0,0c-0.2-0.1-0.4-0.3-0.5-0.6c-0.1-0.2-0.1-0.5,0.1-0.8l0.4-0.9c0.2-0.3,0.5-0.6,0.9-0.6 	c0.2,0,0.3,0,0.4,0.1c0.4,0.2,0.6,0.5,0.6,0.9c0,0.1,0,0.3-0.1,0.4l-0.4,0.9C20,40.2,19.6,40.4,19.2,40.4z M21.1,36.5 	c-0.2,0-0.3,0-0.4-0.1c-0.5-0.2-0.7-0.8-0.5-1.3l0.4-0.9c0.2-0.3,0.5-0.6,0.9-0.6c0.2,0,0.3,0,0.4,0.1c0.3,0.2,0.6,0.5,0.6,0.9 	c0,0.2,0,0.3-0.1,0.4L22,35.9C21.9,36.3,21.5,36.5,21.1,36.5z M23,32.6c-0.1,0-0.3,0-0.4-0.1l0,0c-0.2-0.1-0.4-0.3-0.5-0.6l0,0 	c-0.1-0.3-0.1-0.5,0.1-0.8l0.4-0.9c0.2-0.3,0.5-0.6,0.9-0.6c0.2,0,0.3,0,0.4,0.1c0.5,0.2,0.7,0.8,0.5,1.3l-0.5,1 	C23.8,32.4,23.4,32.6,23,32.6z"/><path  d="M25.1,36.5c-0.2,0-0.3,0-0.4-0.1c-0.5-0.2-0.7-0.8-0.5-1.3l0.4-0.9c0.2-0.3,0.5-0.6,0.9-0.6 	c0.2,0,0.3,0,0.4,0.1c0.3,0.2,0.6,0.5,0.6,0.9c0,0.2,0,0.3-0.1,0.4L26,35.9C25.8,36.3,25.5,36.5,25.1,36.5z M27,32.6 	c-0.1,0-0.3,0-0.4-0.1l0,0c-0.2-0.1-0.4-0.3-0.5-0.6l0,0c-0.1-0.3-0.1-0.5,0.1-0.8l0.4-0.9c0.2-0.3,0.5-0.6,0.9-0.6 	c0.2,0,0.3,0,0.4,0.1c0.5,0.2,0.7,0.8,0.5,1.3l-0.5,1C27.7,32.4,27.4,32.6,27,32.6z"/><path  d="M27.1,40.4c-0.1,0-0.3,0-0.4-0.1l0,0c-0.2-0.1-0.4-0.3-0.5-0.6c-0.1-0.2-0.1-0.5,0.1-0.8l0.4-0.9 	c0.2-0.3,0.5-0.6,0.9-0.6c0.2,0,0.3,0,0.4,0.1c0.4,0.2,0.6,0.5,0.6,0.9c0,0.1,0,0.3-0.1,0.4l-0.5,1 	C27.9,40.2,27.5,40.4,27.1,40.4z M29,36.5c-0.2,0-0.3,0-0.4-0.1c-0.5-0.2-0.7-0.8-0.5-1.3l0.4-0.9c0.2-0.3,0.5-0.6,0.9-0.6 	c0.2,0,0.3,0,0.4,0.1c0.3,0.2,0.6,0.5,0.6,0.9c0,0.2,0,0.3-0.1,0.4l-0.4,0.9C29.8,36.3,29.4,36.5,29,36.5z M30.9,32.6 	c-0.1,0-0.3,0-0.4-0.1l0,0c-0.2-0.1-0.4-0.3-0.5-0.6l0,0c-0.1-0.3-0.1-0.5,0.1-0.8l0.4-0.9c0.2-0.3,0.5-0.6,0.9-0.6 	c0.2,0,0.3,0,0.4,0.1c0.5,0.2,0.7,0.8,0.5,1.3l-0.5,1C31.7,32.4,31.3,32.6,30.9,32.6z"/><path  d="M11,27.2c-0.5,0-1-0.4-1-1v-0.9l-0.4,0.4C9.4,25.9,9.2,26,8.9,26s-0.5-0.1-0.7-0.3c-0.4-0.4-0.4-1,0-1.4 	l1.8-1.8v-2.7l-2.3,1.3L7,23.6c-0.1,0.4-0.5,0.7-1,0.7c-0.1,0-0.2,0-0.3,0c-0.3-0.1-0.5-0.2-0.6-0.5C5,23.6,4.9,23.3,5,23l0.1-0.5 	L4.5,23c-0.2,0.1-0.3,0.1-0.5,0.1c-0.4,0-0.7-0.2-0.9-0.5c-0.3-0.5-0.1-1.1,0.4-1.4l0.8-0.4l-0.5-0.1C3.2,20.5,2.9,20,3,19.5 	c0.1-0.4,0.5-0.7,1-0.7c0.1,0,0.2,0,0.3,0l2.5,0.7L9,18.1l-2.3-1.3l-2.5,0.7c-0.1,0-0.2,0-0.3,0c-0.4,0-0.8-0.3-1-0.7 	c-0.1-0.5,0.2-1.1,0.7-1.2l0.5-0.1l-0.8-0.4C3,14.6,2.9,14,3.1,13.5C3.3,13.2,3.6,13,4,13c0.2,0,0.3,0,0.5,0.1l0.8,0.4L5.2,13 	c-0.2-0.4,0.1-1,0.6-1.1c0.1,0,0.2,0,0.3,0c0.4,0,0.8,0.3,1,0.7L7.7,15l2.3,1.3v-2.7l-1.8-1.8c-0.4-0.4-0.4-1,0-1.4 	c0.2-0.2,0.4-0.3,0.7-0.3s0.5,0.1,0.7,0.3l0.4,0.4V10c0-0.5,0.4-1,1-1c0.5,0,1,0.4,1,1v0.9l0.4-0.4c0.2-0.2,0.4-0.3,0.7-0.3 	s0.5,0.1,0.7,0.3c0.4,0.4,0.4,1,0,1.4L12,13.7v2.7l2.3-1.3l0.7-2.5c0.1-0.4,0.5-0.7,1-0.7c0.1,0,0.2,0,0.3,0 	c0.3,0.1,0.5,0.2,0.6,0.5c0.1,0.2,0.2,0.5,0.1,0.8l-0.1,0.5l0.8-0.4c0.2-0.1,0.3-0.1,0.5-0.1c0.4,0,0.7,0.2,0.9,0.5 	c0.3,0.5,0.1,1.1-0.4,1.4l-0.8,0.4l0.5,0.1c0.3,0.1,0.5,0.2,0.6,0.5c0.1,0.2,0.2,0.5,0.1,0.8c-0.1,0.4-0.5,0.7-1,0.7 	c-0.1,0-0.2,0-0.3,0l-2.5-0.7L13,18.1l2.3,1.3l2.5-0.7c0.1,0,0.2,0,0.3,0c0.4,0,0.8,0.3,1,0.7c0.1,0.3,0,0.5-0.1,0.8 	c-0.1,0.2-0.3,0.4-0.6,0.5l-0.5,0.1l0.8,0.4c0.5,0.3,0.6,0.9,0.4,1.4c-0.2,0.3-0.5,0.5-0.9,0.5c-0.2,0-0.3,0-0.5-0.1l-0.8-0.4 	l0.1,0.5c0.1,0.3,0,0.5-0.1,0.8c-0.1,0.2-0.3,0.4-0.6,0.5c-0.1,0-0.2,0-0.3,0c-0.4,0-0.8-0.3-1-0.7l-0.7-2.5L12,19.8v2.7l1.8,1.8 	c0.4,0.4,0.4,1,0,1.4c-0.2,0.2-0.4,0.3-0.7,0.3s-0.5-0.1-0.7-0.3L12,25.3v0.9C12,26.7,11.5,27.2,11,27.2z"/></svg>
