<svg version="1.1" xmlns="http://www.w3.org/2000/svg" xmlns:xlink="http://www.w3.org/1999/xlink" viewBox="0 0 48 48" style="enable-background:new 0 0 48 48;" xml:space="preserve"><path d="M41.2,7.5H6.9C4.2,7.5,2,9.7,2,12.4v23.2c0,2.7,2.2,4.9,4.9,4.9h34.2c2.7,0,4.9-2.2,4.9-4.9V12.4C46,9.7,43.8,7.5,41.2,7.5 	z M44.2,35.1c0,2.5-1.1,3.6-3.6,3.6H7.4c-2.5,0-3.6-1.1-3.6-3.6V12.9c0-2.5,1.1-3.6,3.6-3.6h33.2c2.5,0,3.6,1.1,3.6,3.6V35.1z M15.8,20.3l4.6,3.7l11.9-10.1l9.2,8.3v13.8H6.6v-8.3L15.8,20.3z M10.3,12.1c-2,0-3.7,1.7-3.7,3.7s1.7,3.7,3.7,3.7s3.7-1.7,3.7-3.7 	S12.3,12.1,10.3,12.1z"/></svg>
