<svg version="1.1" xmlns="http://www.w3.org/2000/svg" xmlns:xlink="http://www.w3.org/1999/xlink" viewBox="0 0 48 48" style="enable-background:new 0 0 48 48;" xml:space="preserve"><path  d="M8.7,33.4c-1.8,0-3.5-0.7-4.8-2s-2-3-1.9-4.8c0-3.7,3.1-6.7,6.8-6.7c0.1-2.1,0.9-4,2.4-5.5s3.5-2.3,5.7-2.3  H17c3.2,0,6.1,2,7.4,4.9c0.5-0.1,1.1-0.2,1.6-0.2h0.1c1.9,0,3.6,0.7,4.8,1.9c1,1,1.6,2.3,1.8,3.8l0,0c1.5,0,2.8,0.6,3.8,1.6  s1.6,2.4,1.6,3.9s-0.6,2.8-1.6,3.8s-2.4,1.6-3.8,1.6h-2.4c-0.3,0-0.5-0.1-0.7-0.3s-0.3-0.4-0.3-0.7c0-0.5,0.5-1,1-1h2.4  c0.9,0,1.7-0.4,2.4-1s1-1.5,1-2.4s-0.3-1.8-1-2.4c-0.6-0.7-1.5-1-2.4-1h-0.9c-0.6,0-1-0.5-1-1c0-1.4-0.4-2.6-1.3-3.4  c-0.8-0.8-2-1.3-3.4-1.3l0,0c-0.6,0-1.3,0.1-1.9,0.4c-0.1,0-0.2,0.1-0.4,0.1c-0.2,0-0.3,0-0.4-0.1c-0.3-0.1-0.4-0.4-0.5-0.6  c-0.9-2.8-3.3-4.7-6-4.7h-0.1c-1.6,0-3.1,0.6-4.3,1.7s-1.8,2.7-1.8,4.3c0,0.2,0,0.4,0,0.6c0,0.3-0.1,0.6-0.3,0.8  c-0.2,0.2-0.5,0.3-0.7,0.3h-1c-2.6,0-4.8,2.1-4.8,4.8c0,1.3,0.5,2.5,1.4,3.4s2.1,1.4,3.4,1.4H11c0.6,0,1,0.5,1,1s-0.5,1-1,1  L8.7,33.4z"/><path  d="M12.7,37.4c-0.2,0-0.3,0-0.4-0.1c-0.2-0.1-0.4-0.3-0.5-0.6s-0.1-0.5,0-0.8l2.7-5.6c0.2-0.3,0.5-0.6,0.9-0.6  c0.2,0,0.3,0,0.4,0.1c0.2,0.1,0.4,0.3,0.5,0.6c0.1,0.3,0.1,0.5,0,0.8l-2.7,5.6C13.5,37.1,13.1,37.4,12.7,37.4z"/><path  d="M16.7,37.4c-0.2,0-0.3,0-0.4-0.1c-0.2-0.1-0.4-0.3-0.5-0.6s-0.1-0.5,0-0.8l2.7-5.6c0.2-0.3,0.5-0.6,0.9-0.6  c0.2,0,0.3,0,0.4,0.1c0.2,0.1,0.4,0.3,0.5,0.6c0.1,0.3,0.1,0.5,0,0.8l-2.7,5.6C17.4,37.1,17.1,37.4,16.7,37.4z"/><path  d="M24.6,37.4c-0.2,0-0.3,0-0.4-0.1c-0.2-0.1-0.4-0.3-0.5-0.6s-0.1-0.5,0-0.8l2.7-5.6c0.2-0.3,0.5-0.6,0.9-0.6  c0.2,0,0.3,0,0.4,0.1c0.2,0.1,0.4,0.3,0.5,0.6c0.1,0.3,0.1,0.5,0,0.8l-2.7,5.6C25.3,37.1,25,37.4,24.6,37.4z"/><path  d="M20.6,37.4c-0.2,0-0.3,0-0.4-0.1c-0.2-0.1-0.4-0.3-0.5-0.6s-0.1-0.5,0-0.8l2.7-5.6c0.2-0.3,0.5-0.6,0.9-0.6  c0.2,0,0.3,0,0.4,0.1c0.2,0.1,0.4,0.3,0.5,0.6c0.1,0.3,0.1,0.5,0,0.8l-2.7,5.6C21.4,37.1,21,37.4,20.6,37.4z"/><path  d="M39.8,24.7c1.6-0.3,2.7-1,3.9-2.1c-0.1,0-0.2,0-0.3,0c-1.3,0-3.2-0.2-5-1.1c-2.6-1.3-4.1-3.6-4.5-6.8 	c-0.4-3.1,0.7-6,2.9-7.8c-4.1,0.4-7.5,3.6-8.1,7.7c-0.1,0.5-0.5,0.8-0.9,0.8c0,0-0.1,0-0.1,0c-0.2,0-0.5-0.2-0.6-0.4 	C27,14.9,27,14.6,27,14.4c0.7-5.2,5.1-9.2,10.3-9.4c0.1,0,0.3,0,0.4,0c0.9,0,1.8,0.1,2.7,0.3c0.4,0.1,0.7,0.5,0.7,0.9 	c0,0.4-0.3,0.8-0.7,0.9c-3.2,0.8-5.1,3.8-4.7,7.3c0.3,2.6,1.5,4.4,3.5,5.4c1.5,0.8,3.1,0.9,4.2,0.9c1.2,0,2-0.2,2.1-0.3 	c0.1-0.1,0.3-0.1,0.4-0.1c0.3,0,0.5,0.1,0.7,0.3c0.3,0.3,0.3,0.8,0.1,1.1c-1.6,2.4-3.8,4.1-6.7,4.7c0,0-1,0.2-1.2-0.7 	C38.8,24.9,39.8,24.7,39.8,24.7z"/></svg>
