<svg version="1.1" xmlns="http://www.w3.org/2000/svg" xmlns:xlink="http://www.w3.org/1999/xlink" viewBox="0 0 48 48" style="enable-background:new 0 0 48 48;" xml:space="preserve"><path  d="M12.7,33.4c-1.8,0-3.5-0.7-4.8-2c-1.3-1.3-2-3-1.9-4.8c0-3.7,3.1-6.7,6.8-6.7c0.1-2.1,0.9-4,2.4-5.5 	c1.5-1.5,3.5-2.3,5.7-2.3l0.1,0c3.2,0,6.1,2,7.4,4.9c0.5-0.1,1.1-0.2,1.6-0.2l0.1,0c1.9,0,3.6,0.7,4.8,1.9c1,1,1.6,2.3,1.8,3.8h0 	c1.5,0,2.8,0.6,3.8,1.6c1,1,1.6,2.4,1.6,3.9c0,1.5-0.6,2.8-1.6,3.8c-1,1-2.4,1.6-3.8,1.6l-2.4,0c-0.3,0-0.5-0.1-0.7-0.3 	c-0.2-0.2-0.3-0.4-0.3-0.7c0-0.5,0.5-1,1-1l2.4,0c0.9,0,1.7-0.4,2.4-1c0.7-0.6,1-1.5,1-2.4c0-0.9-0.3-1.8-1-2.4 	c-0.6-0.7-1.5-1-2.4-1l-0.9,0c-0.6,0-1-0.5-1-1c0-1.4-0.4-2.6-1.3-3.4c-0.8-0.8-2-1.3-3.4-1.3l0,0c-0.6,0-1.3,0.1-1.9,0.4 	c-0.1,0-0.2,0.1-0.4,0.1c-0.2,0-0.3,0-0.4-0.1c-0.3-0.1-0.4-0.4-0.5-0.6C26,15.9,23.6,14,20.9,14l-0.1,0c-1.6,0-3.1,0.6-4.3,1.7 	c-1.2,1.1-1.8,2.7-1.8,4.3c0,0.2,0,0.4,0,0.6c0,0.3-0.1,0.6-0.3,0.8c-0.2,0.2-0.5,0.3-0.7,0.3l-1,0c-2.6,0-4.8,2.1-4.8,4.8 	c0,1.3,0.5,2.5,1.4,3.4c0.9,0.9,2.1,1.4,3.4,1.4l2.3,0c0.6,0,1,0.5,1,1c0,0.5-0.5,1-1,1L12.7,33.4z"/><path  d="M16.7,37.4c-0.2,0-0.3,0-0.4-0.1c-0.2-0.1-0.4-0.3-0.5-0.6c-0.1-0.3-0.1-0.5,0-0.8l2.7-5.6 	c0.2-0.3,0.5-0.6,0.9-0.6c0.2,0,0.3,0,0.4,0.1c0.2,0.1,0.4,0.3,0.5,0.6c0.1,0.3,0.1,0.5,0,0.8l-2.7,5.6 	C17.5,37.1,17.1,37.4,16.7,37.4z"/><path  d="M18.8,40.9c-0.2,0-0.3,0-0.4-0.1c-0.2-0.1-0.4-0.3-0.5-0.6c-0.1-0.3-0.1-0.5,0-0.8l4.6-9.2 	c0.2-0.3,0.5-0.6,0.9-0.6c0.2,0,0.3,0,0.4,0.1c0.2,0.1,0.4,0.3,0.5,0.6c0.1,0.3,0.1,0.5,0,0.8l-4.6,9.2 	C19.5,40.7,19.2,40.9,18.8,40.9z"/><path  d="M26.7,41.6c-0.2,0-0.3,0-0.4-0.1c-0.2-0.1-0.4-0.3-0.5-0.6c-0.1-0.3-0.1-0.5,0-0.8l4.6-9.9 	c0.2-0.3,0.5-0.6,0.9-0.6c0.2,0,0.3,0,0.4,0.1c0.2,0.1,0.4,0.3,0.5,0.6c0.1,0.3,0.1,0.5,0,0.8l-4.6,9.9 	C27.4,41.4,27.1,41.6,26.7,41.6z"/><path  d="M24.6,37.4c-0.2,0-0.3,0-0.4-0.1c-0.2-0.1-0.4-0.3-0.5-0.6c-0.1-0.3-0.1-0.5,0-0.8l2.7-5.6 	c0.2-0.3,0.5-0.6,0.9-0.6c0.2,0,0.3,0,0.4,0.1c0.2,0.1,0.4,0.3,0.5,0.6c0.1,0.3,0.1,0.5,0,0.8l-2.7,5.6 	C25.4,37.1,25,37.4,24.6,37.4z"/></svg>
