<svg version="1.1" xmlns="http://www.w3.org/2000/svg" xmlns:xlink="http://www.w3.org/1999/xlink" viewBox="0 0 48 48" style="enable-background:new 0 0 48 48;" xml:space="preserve"><path  d="M10.7,33.4c-1.8,0-3.5-0.7-4.8-2s-2-3-1.9-4.8c0-3.7,3.1-6.7,6.8-6.7c0.1-2.1,0.9-4,2.4-5.5  s3.5-2.3,5.7-2.3H19c3.2,0,6.1,2,7.4,4.9c0.5-0.1,1.1-0.2,1.6-0.2h0.1c1.9,0,3.6,0.7,4.8,1.9c1,1,1.6,2.3,1.8,3.8l0,0  c1.5,0,2.8,0.6,3.8,1.6s1.6,2.4,1.6,3.9s-0.6,2.8-1.6,3.8s-2.4,1.6-3.8,1.6h-2.4c-0.3,0-0.5-0.1-0.7-0.3s-0.3-0.4-0.3-0.7  c0-0.5,0.5-1,1-1h2.4c0.9,0,1.7-0.4,2.4-1s1-1.5,1-2.4s-0.3-1.8-1-2.4c-0.6-0.7-1.5-1-2.4-1h-0.9c-0.6,0-1-0.5-1-1  c0-1.4-0.4-2.6-1.3-3.4c-0.8-0.8-2-1.3-3.4-1.3l0,0c-0.6,0-1.3,0.1-1.9,0.4c-0.1,0-0.2,0.1-0.4,0.1c-0.2,0-0.3,0-0.4-0.1  c-0.3-0.1-0.4-0.4-0.5-0.6c-0.9-2.8-3.3-4.7-6-4.7h-0.1c-1.6,0-3.1,0.6-4.3,1.7s-1.8,2.7-1.8,4.3c0,0.2,0,0.4,0,0.6  c0,0.3-0.1,0.6-0.3,0.8c-0.2,0.2-0.5,0.3-0.7,0.3h-1c-2.6,0-4.8,2.1-4.8,4.8c0,1.3,0.5,2.5,1.4,3.4s2.1,1.4,3.4,1.4H13  c0.6,0,1,0.5,1,1s-0.5,1-1,1L10.7,33.4z"/><path  d="M14.7,37.4c-0.2,0-0.3,0-0.4-0.1c-0.2-0.1-0.4-0.3-0.5-0.6s-0.1-0.5,0-0.8l2.7-5.6c0.2-0.3,0.5-0.6,0.9-0.6  c0.2,0,0.3,0,0.4,0.1c0.2,0.1,0.4,0.3,0.5,0.6c0.1,0.3,0.1,0.5,0,0.8l-2.7,5.6C15.5,37.1,15.1,37.4,14.7,37.4z"/><path  d="M16.8,40.9c-0.2,0-0.3,0-0.4-0.1c-0.2-0.1-0.4-0.3-0.5-0.6s-0.1-0.5,0-0.8l4.6-9.2c0.2-0.3,0.5-0.6,0.9-0.6  c0.2,0,0.3,0,0.4,0.1c0.2,0.1,0.4,0.3,0.5,0.6c0.1,0.3,0.1,0.5,0,0.8l-4.6,9.2C17.5,40.7,17.2,40.9,16.8,40.9z"/><path  d="M24.7,41.6c-0.2,0-0.3,0-0.4-0.1c-0.2-0.1-0.4-0.3-0.5-0.6s-0.1-0.5,0-0.8l4.6-9.9c0.2-0.3,0.5-0.6,0.9-0.6  c0.2,0,0.3,0,0.4,0.1c0.2,0.1,0.4,0.3,0.5,0.6c0.1,0.3,0.1,0.5,0,0.8L25.6,41C25.4,41.4,25.1,41.6,24.7,41.6z"/><path  d="M22.6,37.4c-0.2,0-0.3,0-0.4-0.1c-0.2-0.1-0.4-0.3-0.5-0.6s-0.1-0.5,0-0.8l2.7-5.6c0.2-0.3,0.5-0.6,0.9-0.6  c0.2,0,0.3,0,0.4,0.1c0.2,0.1,0.4,0.3,0.5,0.6c0.1,0.3,0.1,0.5,0,0.8l-2.7,5.6C23.4,37.1,23,37.4,22.6,37.4z"/><path  d="M26,11.8C27.5,8.9,30.5,7,34,7c5,0,9,4.1,9,9c0,2.5-1,4.7-2.6,6.4c0,0-0.9,0.9-1.6,0 c-0.7-0.9,0.3-1.6,0.3-1.6c1.2-1.3,1.9-2.9,1.9-4.8c0-3.8-3.1-7-7-7c-2.7,0-5.1,1.6-6.2,3.8c0,0-0.7,1-1.5,0.5 C25.5,12.9,26,11.8,26,11.8z"/></svg>
