<svg version="1.1" xmlns="http://www.w3.org/2000/svg" xmlns:xlink="http://www.w3.org/1999/xlink" viewBox="0 0 48 48" style="enable-background:new 0 0 48 48;" xml:space="preserve"><path  d="M20.2,41.2c-0.6,0-1-0.4-1-1v-0.9l-0.4,0.4c-0.2,0.2-0.4,0.3-0.7,0.3c-0.3,0-0.5-0.1-0.7-0.3  c-0.4-0.4-0.4-1,0-1.4l1.8-1.8v-2.7l-2.3,1.3l-0.7,2.5c-0.1,0.4-0.5,0.7-1,0.7c-0.1,0-0.2,0-0.3,0c-0.5-0.1-0.9-0.7-0.7-1.2  l0.1-0.5L13.5,37c-0.2,0.1-0.3,0.1-0.5,0.1c-0.4,0-0.7-0.2-0.9-0.5c-0.3-0.5-0.1-1.1,0.4-1.4l0.8-0.4l-0.5-0.1  c-0.3-0.1-0.5-0.2-0.6-0.5c-0.1-0.2-0.2-0.5-0.1-0.8c0.1-0.4,0.5-0.7,1-0.7c0.1,0,0.2,0,0.3,0l2.5,0.7l2.3-1.3l-2.3-1.3  l-2.5,0.7c-0.1,0-0.2,0-0.3,0c-0.5,0-0.8-0.3-1-0.7c-0.1-0.3,0-0.5,0.1-0.8c0.1-0.2,0.3-0.4,0.6-0.5l0.5-0.1L12.5,29  c-0.5-0.3-0.6-0.9-0.4-1.4c0.2-0.3,0.5-0.5,0.9-0.5c0.2,0,0.3,0,0.5,0.1l0.8,0.4V27c-0.1-0.3,0-0.5,0.1-0.8  c0.1-0.2,0.3-0.4,0.6-0.5c0.1,0,0.2,0,0.3,0c0.5,0,0.8,0.3,1,0.7l0.7,2.5l2.3,1.3v-2.7l-1.8-1.8c-0.4-0.4-0.4-1,0-1.4  c0.2-0.2,0.4-0.3,0.7-0.3c0.3,0,0.5,0.1,0.7,0.3l0.4,0.4v-0.9c0-0.6,0.4-1,1-1s1,0.4,1,1v0.9l0.4-0.4c0.2-0.2,0.4-0.3,0.7-0.3  c0.3,0,0.5,0.1,0.7,0.3c0.4,0.4,0.4,1,0,1.4l-1.8,1.8v2.7l2.3-1.3l0.7-2.5c0.1-0.4,0.5-0.7,1-0.7c0.1,0,0.2,0,0.3,0  c0.5,0.1,0.9,0.7,0.7,1.2L26,27.5l0.8-0.4C27,27,27.1,27,27.3,27c0.4,0,0.7,0.2,0.9,0.5c0.3,0.5,0.1,1.1-0.4,1.4L27,29.2  l0.5,0.1c0.3,0.1,0.5,0.2,0.6,0.5c0.1,0.2,0.2,0.5,0.1,0.8c-0.1,0.4-0.5,0.7-1,0.7c-0.1,0-0.2,0-0.3,0l-2.5-0.7L22.2,32l2.3,1.3  l2.5-0.7c0.1,0,0.2,0,0.3,0c0.5,0,0.8,0.3,1,0.7c0.1,0.3,0,0.5-0.1,0.8c-0.1,0.2-0.3,0.4-0.6,0.5L27,34.8l0.8,0.4  c0.5,0.3,0.6,0.9,0.4,1.4c-0.2,0.3-0.5,0.5-0.9,0.5c-0.2,0-0.3,0-0.5-0.1L26,36.5l0.1,0.5c0.1,0.5-0.2,1.1-0.7,1.2  c-0.1,0-0.2,0-0.3,0c-0.5,0-0.8-0.3-1-0.7L23.4,35l-2.3-1.3v2.7l1.8,1.8c0.4,0.4,0.4,1,0,1.4c-0.2,0.2-0.4,0.3-0.7,0.3  c-0.3,0-0.5-0.1-0.7-0.3l-0.4-0.4v0.9C21.2,40.7,20.8,41.2,20.2,41.2z"/><path  d="M8.8,33.5c-1.8,0-3.5-0.7-4.8-2s-2-3-2-4.8c0-3.7,3-6.8,6.7-6.8c0.1-4.3,3.7-7.8,8.1-7.8  	c3.2,0,6.1,1.9,7.4,4.8c0.5-0.1,1.1-0.2,1.7-0.2c1.8,0,3.4,0.6,4.7,1.7c1.1,1,1.8,2.4,2,4l0,0c3,0,5.5,2.4,5.5,5.5  	s-2.4,5.5-5.5,5.5h-2.1c-0.5,0-1-0.4-1-1c0-0.3,0.1-0.5,0.3-0.7s0.4-0.3,0.7-0.3h2.1c1.9,0,3.5-1.5,3.5-3.5s-1.5-3.4-3.5-3.4  	h-0.9c-0.6,0-1-0.4-1-1c0-2.8-1.9-4.7-4.7-4.7c-0.7,0-1.3,0.1-1.9,0.4c-0.1,0-0.2,0.1-0.4,0.1c-0.2,0-0.3,0-0.4-0.1  	c-0.3-0.1-0.4-0.3-0.5-0.6C22,16,19.6,14.2,17,14.2c-3.4,0-6.1,2.7-6.1,6.1c0,0.2,0,0.4,0,0.6c0,0.3-0.1,0.6-0.3,0.8  	c-0.2,0.2-0.5,0.3-0.7,0.3H9c-2.8-0.2-5,2-5,4.6s2.2,4.8,4.8,4.8h1.5c0.6,0,1,0.4,1,1c0,0.3-0.1,0.5-0.3,0.7s-0.4,0.3-0.7,0.3  	L8.8,33.5L8.8,33.5z"/><path  d="M7.9,44.7c-0.6,0-1-0.4-1-1V42l-1.4,0.8C5.4,42.9,5.2,43,5.1,43c-0.4,0-0.7-0.2-0.9-0.5 	c-0.3-0.5-0.1-1.1,0.4-1.4L6,40.3l-1.4-0.8c-0.5-0.3-0.6-0.9-0.4-1.4c0.2-0.3,0.5-0.5,0.9-0.5c0.2,0,0.3,0,0.5,0.1L7,38.5V37 	c0-0.6,0.4-1,1-1s1,0.4,1,1v1.6l1.4-0.8c0.2-0.1,0.3-0.1,0.5-0.1c0.4,0,0.7,0.2,0.9,0.5c0.3,0.5,0.1,1.1-0.4,1.4L10,40.4l1.4,0.8 	c0.5,0.3,0.6,0.9,0.4,1.4c-0.2,0.3-0.5,0.5-0.9,0.5c-0.2,0-0.3,0-0.5-0.1l-1.5-1v1.6C8.9,44.2,8.5,44.7,7.9,44.7z"/><path  d="M29.1,45.9c-0.6,0-1-0.4-1-1v-0.7l-0.6,0.3c-0.2,0.1-0.3,0.1-0.5,0.1c-0.4,0-0.7-0.2-0.9-0.5 	c-0.3-0.5-0.1-1.1,0.4-1.4l0.6-0.3L26.5,42c-0.5-0.3-0.6-0.9-0.4-1.4c0.2-0.3,0.5-0.5,0.9-0.5c0.2,0,0.3,0,0.5,0.1l0.6,0.4V40 	c0-0.6,0.4-1,1-1s1,0.4,1,1v0.7l0.6-0.4c0.2-0.1,0.3-0.1,0.5-0.1c0.4,0,0.7,0.2,0.9,0.5c0.3,0.5,0.1,1.1-0.4,1.4l-0.6,0.4 	l0.6,0.3c0.5,0.3,0.6,0.9,0.4,1.4c-0.2,0.3-0.5,0.5-0.9,0.5c-0.2,0-0.3,0-0.5-0.1l-0.6-0.3V45C30.1,45.5,29.7,45.9,29.1,45.9z"/><path  d="M39.8,24.7c1.6-0.3,2.7-1,3.9-2.1c-0.1,0-0.2,0-0.3,0c-1.3,0-3.2-0.2-5-1.1c-2.6-1.3-4.1-3.6-4.5-6.8 	c-0.4-3.1,0.7-6,2.9-7.8c-4.1,0.4-7.5,3.6-8.1,7.7c-0.1,0.5-0.5,0.8-0.9,0.8c0,0-0.1,0-0.1,0c-0.2,0-0.5-0.2-0.6-0.4 	C27,14.9,27,14.6,27,14.4c0.7-5.2,5.1-9.2,10.3-9.4c0.1,0,0.3,0,0.4,0c0.9,0,1.8,0.1,2.7,0.3c0.4,0.1,0.7,0.5,0.7,0.9 	c0,0.4-0.3,0.8-0.7,0.9c-3.2,0.8-5.1,3.8-4.7,7.3c0.3,2.6,1.5,4.4,3.5,5.4c1.5,0.8,3.1,0.9,4.2,0.9c1.2,0,2-0.2,2.1-0.3 	c0.1-0.1,0.3-0.1,0.4-0.1c0.3,0,0.5,0.1,0.7,0.3c0.3,0.3,0.3,0.8,0.1,1.1c-1.6,2.4-3.8,4.1-6.7,4.7c0,0-1,0.2-1.2-0.7 	C38.8,24.9,39.8,24.7,39.8,24.7z"/></svg>
