<svg version="1.1" xmlns="http://www.w3.org/2000/svg" xmlns:xlink="http://www.w3.org/1999/xlink" viewBox="0 0 48 48" style="enable-background:new 0 0 48 48;" xml:space="preserve"><path  d="M24.2,41.2c-0.6,0-1-0.4-1-1v-0.9l-0.4,0.4c-0.2,0.2-0.4,0.3-0.7,0.3c-0.3,0-0.5-0.1-0.7-0.3 	c-0.4-0.4-0.4-1,0-1.4l1.8-1.8v-2.7l-2.3,1.3l-0.7,2.5c-0.1,0.4-0.5,0.7-1,0.7c-0.1,0-0.2,0-0.3,0c-0.5-0.1-0.9-0.7-0.7-1.2 	l0.1-0.5l-0.8,0.4c-0.2,0.1-0.3,0.1-0.5,0.1c-0.4,0-0.7-0.2-0.9-0.5c-0.3-0.5-0.1-1.1,0.4-1.4l0.8-0.4l-0.5-0.1 	c-0.3-0.1-0.5-0.2-0.6-0.5c-0.1-0.2-0.2-0.5-0.1-0.8c0.1-0.4,0.5-0.7,1-0.7c0.1,0,0.2,0,0.3,0l2.5,0.7l2.3-1.3l-2.3-1.3l-2.5,0.7 	c-0.1,0-0.2,0-0.3,0c-0.5,0-0.8-0.3-1-0.7c-0.1-0.3,0-0.5,0.1-0.8c0.1-0.2,0.3-0.4,0.6-0.5l0.5-0.1l-0.8-0.4 	c-0.5-0.3-0.6-0.9-0.4-1.4c0.2-0.3,0.5-0.5,0.9-0.5c0.2,0,0.3,0,0.5,0.1l0.8,0.4L18.3,27c-0.1-0.3,0-0.5,0.1-0.8 	c0.1-0.2,0.3-0.4,0.6-0.5c0.1,0,0.2,0,0.3,0c0.5,0,0.8,0.3,1,0.7l0.7,2.5l2.3,1.3v-2.7l-1.8-1.8c-0.4-0.4-0.4-1,0-1.4 	c0.2-0.2,0.4-0.3,0.7-0.3c0.3,0,0.5,0.1,0.7,0.3l0.4,0.4v-0.9c0-0.6,0.4-1,1-1c0.6,0,1,0.4,1,1v0.9l0.4-0.4 	c0.2-0.2,0.4-0.3,0.7-0.3c0.3,0,0.5,0.1,0.7,0.3c0.4,0.4,0.4,1,0,1.4l-1.8,1.8v2.7l2.3-1.3l0.7-2.5c0.1-0.4,0.5-0.7,1-0.7 	c0.1,0,0.2,0,0.3,0c0.5,0.1,0.9,0.7,0.7,1.2L30,27.5l0.8-0.4c0.2-0.1,0.3-0.1,0.5-0.1c0.4,0,0.7,0.2,0.9,0.5 	c0.3,0.5,0.1,1.1-0.4,1.4L31,29.2l0.5,0.1c0.3,0.1,0.5,0.2,0.6,0.5c0.1,0.2,0.2,0.5,0.1,0.8c-0.1,0.4-0.5,0.7-1,0.7 	c-0.1,0-0.2,0-0.3,0l-2.5-0.7L26.2,32l2.3,1.3l2.5-0.7c0.1,0,0.2,0,0.3,0c0.5,0,0.8,0.3,1,0.7c0.1,0.3,0,0.5-0.1,0.8 	c-0.1,0.2-0.3,0.4-0.6,0.5L31,34.8l0.8,0.4c0.5,0.3,0.6,0.9,0.4,1.4c-0.2,0.3-0.5,0.5-0.9,0.5c-0.2,0-0.3,0-0.5-0.1L30,36.5 	l0.1,0.5c0.1,0.5-0.2,1.1-0.7,1.2c-0.1,0-0.2,0-0.3,0c-0.5,0-0.8-0.3-1-0.7l-0.7-2.5l-2.3-1.3v2.7l1.8,1.8c0.4,0.4,0.4,1,0,1.4 	c-0.2,0.2-0.4,0.3-0.7,0.3c-0.3,0-0.5-0.1-0.7-0.3l-0.4-0.4v0.9C25.2,40.7,24.8,41.2,24.2,41.2z"/><path  d="M12.8,33.5c-1.8,0-3.5-0.7-4.8-2c-1.3-1.3-2-3-2-4.8c0-3.7,3-6.8,6.7-6.8c0.1-4.3,3.7-7.8,8.1-7.8  c3.2,0,6.1,1.9,7.4,4.8c0.5-0.1,1.1-0.2,1.7-0.2c1.8,0,3.4,0.6,4.7,1.7c1.1,1,1.8,2.4,2,4h0c3,0,5.5,2.4,5.5,5.5  s-2.4,5.5-5.5,5.5l-2.1,0c-0.5,0-1-0.4-1-1c0-0.3,0.1-0.5,0.3-0.7c0.2-0.2,0.4-0.3,0.7-0.3l2.1,0c1.9,0,3.5-1.5,3.5-3.5  s-1.5-3.4-3.5-3.4h-0.9c-0.6,0-1-0.4-1-1c0-2.8-1.9-4.7-4.7-4.7c-0.7,0-1.3,0.1-1.9,0.4c-0.1,0-0.2,0.1-0.4,0.1  c-0.2,0-0.3,0-0.4-0.1c-0.3-0.1-0.4-0.3-0.5-0.6c-0.8-2.6-3.2-4.4-5.8-4.4c-3.4,0-6.1,2.7-6.1,6.1c0,0.2,0,0.4,0,0.6  c0,0.3-0.1,0.6-0.3,0.8c-0.2,0.2-0.5,0.3-0.7,0.3h-0.9C10.2,21.8,8,24,8,26.6s2.2,4.8,4.8,4.8l1.5,0c0.6,0,1,0.4,1,1  c0,0.3-0.1,0.5-0.3,0.7c-0.2,0.2-0.4,0.3-0.7,0.3L12.8,33.5L12.8,33.5z"/><path  d="M33.1,45.9c-0.6,0-1-0.4-1-1v-0.7l-0.6,0.3c-0.2,0.1-0.3,0.1-0.5,0.1c-0.4,0-0.7-0.2-0.9-0.5 c-0.3-0.5-0.1-1.1,0.4-1.4l0.6-0.3l-0.6-0.4c-0.5-0.3-0.6-0.9-0.4-1.4c0.2-0.3,0.5-0.5,0.9-0.5c0.2,0,0.3,0,0.5,0.1l0.6,0.4V40 c0-0.6,0.4-1,1-1c0.6,0,1,0.4,1,1v0.7l0.6-0.4c0.2-0.1,0.3-0.1,0.5-0.1c0.4,0,0.7,0.2,0.9,0.5c0.3,0.5,0.1,1.1-0.4,1.4l-0.6,0.4 l0.6,0.3c0.5,0.3,0.6,0.9,0.4,1.4c-0.2,0.3-0.5,0.5-0.9,0.5c-0.2,0-0.3,0-0.5-0.1l-0.6-0.3v0.7C34.1,45.5,33.7,45.9,33.1,45.9z"/><path  d="M20.4,40.6c0.2,0,0.3,0,0.4,0.1c0.2,0.1,0.4,0.3,0.5,0.6s0.1,0.5,0,0.8l-1.5,3.1c-0.2,0.3-0.5,0.6-0.9,0.6  c-0.2,0-0.3,0-0.4-0.1c-0.2-0.1-0.4-0.3-0.5-0.6c-0.1-0.3-0.1-0.5,0-0.8l1.5-3.1C19.6,40.9,20,40.6,20.4,40.6z"/><path  d="M17.2,39.1c0.2,0,0.3,0,0.4,0.1c0.2,0.1,0.4,0.3,0.5,0.6s0.1,0.5,0,0.8l-2.3,4.7c-0.2,0.3-0.5,0.6-0.9,0.6  c-0.2,0-0.3,0-0.4-0.1c-0.2-0.1-0.4-0.3-0.5-0.6s-0.1-0.5,0-0.8l2.3-4.7C16.5,39.3,16.8,39.1,17.2,39.1z"/><path  d="M14.3,36.9c0.2,0,0.3,0,0.4,0.1c0.2,0.1,0.4,0.3,0.5,0.6s0.1,0.5,0,0.8l-3.3,6.8c-0.2,0.3-0.5,0.6-0.9,0.6  c-0.2,0-0.3,0-0.4-0.1c-0.2-0.1-0.4-0.3-0.5-0.6c-0.1-0.3-0.1-0.5,0-0.8l3.3-6.8C13.5,37.2,13.9,36.9,14.3,36.9z"/></svg>
