<svg version="1.1" xmlns="http://www.w3.org/2000/svg" xmlns:xlink="http://www.w3.org/1999/xlink" viewBox="0 0 48 48" style="enable-background:new 0 0 48 48;" xml:space="preserve"><path  d="M15.6,22.2c-2.9,0-5.2-2.3-5.2-5.2c0-2.8,2.2-5,5-5c1.7,0,3.2,0.8,4.1,2.2c0.3,0.5,0.2,1.1-0.3,1.4  	c-0.2,0.1-0.4,0.2-0.6,0.2c-0.3,0-0.7-0.2-0.8-0.4c-0.6-0.8-1.5-1.3-2.5-1.3c-1.6,0-3,1.3-3,3c0,1.8,1.4,3.2,3.2,3.2H27  	c0.6,0,1,0.5,1,1c0,0.6-0.5,1-1,1H15.6z"/><path  d="M4.6,25.9c-2.5,0-4.6-2.1-4.6-4.6c0-2.4,2-4.4,4.4-4.4c1.5,0,2.8,0.7,3.7,2c0.3,0.5,0.2,1.1-0.3,1.4  c-0.2,0.1-0.4,0.2-0.6,0.2c-0.3,0-0.7-0.2-0.8-0.4c-0.4-0.7-1.2-1.1-2-1.1c-1.3,0-2.4,1.1-2.4,2.4c0,1.4,1.2,2.6,2.6,2.6H27  c0.6,0,1,0.5,1,1c0,0.6-0.5,1-1,1H4.6z"/><path  d="M18.3,38c-0.2,0-0.3,0-0.5-0.1c-1.7-0.9-2.8-2.7-2.8-4.7c0-3.1,2.5-5.5,5.5-5.5H27c0.6,0,1,0.5,1,1  	c0,0.6-0.5,1-1,1h-6.5c-1.9,0-3.5,1.6-3.5,3.5c0,1.2,0.7,2.3,1.7,2.9c0.5,0.3,0.7,0.9,0.4,1.4C19,37.8,18.6,38,18.3,38z"/><path  d="M10.1,35.7c-2.2,0-4-1.8-4-4c0-2.3,1.8-4.1,4.1-4.1h4.4c0.6,0,1,0.5,1,1c0,0.6-0.5,1-1,1h-4.4  	c-1.2,0-2.1,0.9-2.1,2.1c0,1.1,0.9,1.9,1.9,1.9c0.7,0,1.4-0.4,1.7-1.1c0.2-0.3,0.5-0.6,0.9-0.6c0.2,0,0.3,0,0.5,0.1  	c0.5,0.3,0.7,0.9,0.4,1.4C13,34.9,11.6,35.7,10.1,35.7z"/><path  d="M20,31.4l22.5,0c1.9,0,3.4-1.5,3.5-3.4c0-1.9-1.5-3.5-3.4-3.5l-0.9,0c-0.3,0-0.5-0.1-0.7-0.3 	c-0.2-0.2-0.3-0.4-0.3-0.7c0-1.4-0.4-2.6-1.3-3.4c-0.8-0.8-2-1.3-3.4-1.3c0,0-0.1,0-0.1,0c-0.6,0-1.2,0.1-1.8,0.4 	c-0.1,0-0.2,0.1-0.4,0.1c-0.2,0-0.3,0-0.4-0.1c-0.3-0.1-0.4-0.4-0.5-0.6C32,15.9,29.6,14,26.9,14l-0.1,0c-1.6,0-3.1,0.6-4.2,1.7 	c-0.5,0.5-1,1.1-1.3,1.8c0,0-0.6,1-1.5,0.5c-0.9-0.5-0.2-1.5-0.2-1.5c0.4-0.8,1-1.6,1.6-2.3c1.5-1.5,3.5-2.3,5.7-2.3l0.1,0 	c3.2,0,6.1,2,7.4,4.9c0.5-0.1,1.1-0.2,1.6-0.2l0,0c1.9,0,3.6,0.7,4.8,1.9c1,1,1.6,2.3,1.8,3.8h0c3,0,5.4,2.5,5.4,5.5 	c0,3-2.5,5.4-5.5,5.4l-22.6,0c0,0-1.1,0-1.1-1C18.9,31.4,20,31.4,20,31.4z"/></svg>
