<svg version="1.1" xmlns="http://www.w3.org/2000/svg" xmlns:xlink="http://www.w3.org/1999/xlink" viewBox="0 0 48 48" style="enable-background:new 0 0 48 48;" xml:space="preserve"><path  d="M8.8,33.4c-1.8,0-3.5-0.7-4.8-2s-2-3-2-4.8s0.7-3.5,2-4.8s2.9-2,4.7-2c0.1-2.1,0.9-4,2.4-5.5  	s3.6-2.4,5.7-2.4l0,0c3.2,0,6.1,2,7.4,4.9c0.5-0.1,1.1-0.2,1.7-0.2c1.8,0,3.4,0.6,4.7,1.7c1.1,1,1.8,2.4,2,4l0,0  	c1.5,0,2.8,0.6,3.8,1.6s1.6,2.4,1.6,3.9c0,3-2.5,5.4-5.5,5.4h-2.3c-0.3,0-0.5-0.1-0.7-0.3s-0.3-0.4-0.3-0.7c0-0.5,0.5-1,1-1  	h2.3c1.9,0,3.4-1.5,3.5-3.4c0-1.9-1.5-3.5-3.4-3.5h-0.9c-0.3,0-0.5-0.1-0.7-0.3c-0.2-0.2-0.3-0.4-0.3-0.7  	c0-2.8-1.8-4.7-4.7-4.7l0,0c-0.6,0-1.3,0.1-1.9,0.4c-0.1,0-0.2,0.1-0.4,0.1c-0.2,0-0.3,0-0.4-0.1c-0.3-0.1-0.4-0.4-0.5-0.6  	C22.1,15.8,19.7,14,17,14l0,0c-3.3,0-6.1,2.7-6.1,6.1c0,0.2,0,0.4,0,0.6c0,0.3-0.1,0.6-0.3,0.8c-0.2,0.2-0.5,0.3-0.7,0.3h-1  	c-1.3,0-2.5,0.5-3.4,1.4c-1,0.9-1.5,2.1-1.5,3.4c0,1.3,0.5,2.5,1.4,3.4s2.1,1.4,3.4,1.4h2.3c0.3,0,0.5,0.1,0.7,0.3  	c0.2,0.2,0.3,0.4,0.3,0.7c0,0.5-0.5,1-1,1L8.8,33.4z"/><path  d="M12.1,41.3c-0.6,0-1-0.4-1-1v-0.7l-0.6,0.3C10.3,40,10.1,40,10,40c-0.4,0-0.7-0.2-0.9-0.5 	C8.8,39,9,38.4,9.5,38.1l0.6-0.3l-0.6-0.4C9,37.1,8.9,36.5,9.1,36c0.2-0.3,0.5-0.5,0.9-0.5c0.2,0,0.3,0,0.5,0.1l0.6,0.4v-0.7 	c0-0.6,0.4-1,1-1s1,0.4,1,1V36l0.6-0.4c0.2-0.1,0.3-0.1,0.5-0.1c0.4,0,0.7,0.2,0.9,0.5c0.1,0.2,0.2,0.5,0.1,0.8s-0.2,0.5-0.5,0.6 	l-0.6,0.4l0.6,0.3c0.5,0.3,0.6,0.9,0.4,1.4c-0.2,0.3-0.5,0.5-0.9,0.5c-0.2,0-0.3,0-0.5-0.1l-0.6-0.3v0.7 	C13.1,40.8,12.6,41.3,12.1,41.3z"/><path  d="M25.6,40.4c-0.6,0-1-0.4-1-1v-1.1l-0.9,0.5c-0.2,0.1-0.3,0.1-0.5,0.1c-0.4,0-0.7-0.2-0.9-0.5 	c-0.3-0.5-0.1-1.1,0.4-1.4l0.9-0.5l-1-0.6c-0.2-0.1-0.4-0.3-0.5-0.6s0-0.5,0.1-0.8c0.2-0.3,0.5-0.5,0.9-0.5c0.2,0,0.3,0,0.5,0.1 	l1,0.6v-1.1c0-0.6,0.4-1,1-1s1,0.4,1,1v1.1l1-0.6c0.2-0.1,0.3-0.1,0.5-0.1c0.4,0,0.7,0.2,0.9,0.5c0.3,0.5,0.1,1.1-0.4,1.4l-1,0.6 	l0.9,0.5c0.5,0.3,0.6,0.9,0.4,1.4c-0.2,0.3-0.5,0.5-0.9,0.5c-0.2,0-0.3,0-0.5-0.1l-0.9-0.5v1.1C26.6,39.9,26.1,40.4,25.6,40.4z" 	/><path  d="M20,32.9c-0.6,0-1-0.4-1-1v-2l-1.6,1C17.2,31,17,31,16.8,31c-0.4,0-0.7-0.2-0.9-0.5 	c-0.3-0.5-0.1-1.1,0.4-1.4l1.6-1l-1.7-1c-0.5-0.3-0.6-0.9-0.4-1.4c0.2-0.3,0.5-0.5,0.9-0.5c0.2,0,0.3,0,0.5,0.1l1.7,1v-1.9 	c0-0.6,0.4-1,1-1s1,0.4,1,1v1.9l1.7-1c0.2-0.1,0.3-0.1,0.5-0.1c0.4,0,0.7,0.2,0.9,0.5c0.3,0.5,0.1,1.1-0.4,1.4l-1.7,1l1.6,1 	c0.5,0.3,0.6,0.9,0.4,1.4C23.7,30.8,23.4,31,23,31c-0.2,0-0.3,0-0.5-0.1L21,30v2C21,32.5,20.5,32.9,20,32.9z"/><path  d="M39.8,24.7c1.6-0.3,2.7-1,3.9-2.1c-0.1,0-0.2,0-0.3,0c-1.3,0-3.2-0.2-5-1.1c-2.6-1.3-4.1-3.6-4.5-6.8 	c-0.4-3.1,0.7-6,2.9-7.8c-4.1,0.4-7.5,3.6-8.1,7.7c-0.1,0.5-0.5,0.8-0.9,0.8c0,0-0.1,0-0.1,0c-0.2,0-0.5-0.2-0.6-0.4 	C27,14.9,27,14.6,27,14.4c0.7-5.2,5.1-9.2,10.3-9.4c0.1,0,0.3,0,0.4,0c0.9,0,1.8,0.1,2.7,0.3c0.4,0.1,0.7,0.5,0.7,0.9 	c0,0.4-0.3,0.8-0.7,0.9c-3.2,0.8-5.1,3.8-4.7,7.3c0.3,2.6,1.5,4.4,3.5,5.4c1.5,0.8,3.1,0.9,4.2,0.9c1.2,0,2-0.2,2.1-0.3 	c0.1-0.1,0.3-0.1,0.4-0.1c0.3,0,0.5,0.1,0.7,0.3c0.3,0.3,0.3,0.8,0.1,1.1c-1.6,2.4-3.8,4.1-6.7,4.7c0,0-1,0.2-1.2-0.7 	C38.8,24.9,39.8,24.7,39.8,24.7z"/></svg>
