<svg version="1.1" xmlns="http://www.w3.org/2000/svg" xmlns:xlink="http://www.w3.org/1999/xlink" viewBox="0 0 48 48" style="enable-background:new 0 0 48 48;" xml:space="preserve"><path  d="M11,44.4c-0.2,0-0.4-0.1-0.5-0.2C10,44,9.9,43.5,10.1,43l2.6-6.2H11c-0.3,0-0.6-0.2-0.8-0.4  c-0.2-0.3-0.2-0.6-0.1-0.9l3.2-8.8c0.1-0.4,0.5-0.6,0.9-0.6H21c0.4,0,0.7,0.2,0.9,0.5c0.2,0.3,0.2,0.7,0,1l-3,4.9h1.5  c0.4,0,0.7,0.2,0.9,0.6c0.2,0.4,0.1,0.8-0.2,1.1l-9.3,10C11.5,44.3,11.3,44.4,11,44.4z M14.2,34.8c0.3,0,0.6,0.2,0.8,0.4  c0.2,0.3,0.2,0.6,0.1,0.9l-1,2.4l3.9-4.2h-1c-0.4,0-0.7-0.2-0.9-0.5c-0.2-0.3-0.2-0.7,0-1l3-4.9h-4.3l-2.5,6.9  C12.3,34.8,14.2,34.8,14.2,34.8z"/><path  d="M23.7,33.2c-0.3,0-0.5-0.1-0.7-0.3s-0.3-0.4-0.3-0.7c0-0.6,0.4-1,1-1h8.9c1.9,0,3.4-1.5,3.4-3.5  c0-1.9-1.5-3.4-3.5-3.4h-0.9c-0.6,0-1-0.4-1-1c0-2.8-1.9-4.7-4.7-4.7c-0.7,0-1.3,0.1-1.9,0.4c-0.1,0-0.2,0.1-0.4,0.1  c-0.1,0-0.3,0-0.4-0.1c-0.3-0.1-0.4-0.3-0.5-0.6c-0.8-2.6-3.2-4.4-5.8-4.4c-3.4,0-6.1,2.7-6.1,6.1c0,0.2,0,0.4,0,0.6  c0,0.3-0.1,0.6-0.3,0.8c-0.2,0.2-0.5,0.3-0.7,0.3H8.9C6.2,21.8,4,24,4,26.6s2.1,4.5,4.8,4.5c0.6,0,1,0.4,1,1s-0.4,1-1,1  c-3.9,0-6.8-2.8-6.8-6.5s3-6.8,6.7-6.8c0.1-4.3,3.7-7.8,8.1-7.8c3.2,0,6.1,1.9,7.4,4.8c0.5-0.1,1.1-0.2,1.7-0.2  c1.8,0,3.4,0.6,4.7,1.7c1.1,1,1.8,2.4,2,4l0,0c3,0,5.5,2.4,5.5,5.5s-2.4,5.5-5.5,5.5L23.7,33.2z"/><path  d="M21.6,40.7c-0.2,0-0.3,0-0.4-0.1c-0.2-0.1-0.4-0.3-0.5-0.6c-0.1-0.2-0.1-0.5,0-0.8l1.8-3.7  c0.2-0.3,0.5-0.6,0.9-0.6c0.2,0,0.3,0,0.4,0.1c0.5,0.2,0.7,0.8,0.5,1.3L22.5,40C22.3,40.5,22,40.7,21.6,40.7z"/><path  d="M24.2,43.9c-0.2,0-0.3,0-0.4-0.1c-0.2-0.1-0.4-0.3-0.5-0.6c-0.1-0.2-0.1-0.5,0-0.8l3.3-6.7  c0.2-0.3,0.5-0.6,0.9-0.6c0.2,0,0.3,0,0.4,0.1c0.2,0.1,0.4,0.3,0.5,0.6c0.1,0.2,0.1,0.5,0,0.8l-3.3,6.7  C24.9,43.6,24.6,43.9,24.2,43.9z"/><path  d="M29,41.8c-0.2,0-0.3,0-0.4-0.1c-0.2-0.1-0.4-0.3-0.5-0.6c-0.1-0.2-0.1-0.5,0-0.8l2.3-4.7  c0.2-0.3,0.5-0.6,0.9-0.6c0.2,0,0.3,0,0.4,0.1c0.2,0.1,0.4,0.3,0.5,0.6s0.1,0.5,0,0.8l-2.3,4.7C29.8,41.6,29.4,41.8,29,41.8z"/><path  d="M39.8,24.7c1.6-0.3,2.7-1,3.9-2.1c-0.1,0-0.2,0-0.3,0c-1.3,0-3.2-0.2-5-1.1c-2.6-1.3-4.1-3.6-4.5-6.8 	c-0.4-3.1,0.7-6,2.9-7.8c-4.1,0.4-7.5,3.6-8.1,7.7c-0.1,0.5-0.5,0.8-0.9,0.8c0,0-0.1,0-0.1,0c-0.2,0-0.5-0.2-0.6-0.4 	C27,14.9,27,14.6,27,14.4c0.7-5.2,5.1-9.2,10.3-9.4c0.1,0,0.3,0,0.4,0c0.9,0,1.8,0.1,2.7,0.3c0.4,0.1,0.7,0.5,0.7,0.9 	c0,0.4-0.3,0.8-0.7,0.9c-3.2,0.8-5.1,3.8-4.7,7.3c0.3,2.6,1.5,4.4,3.5,5.4c1.5,0.8,3.1,0.9,4.2,0.9c1.2,0,2-0.2,2.1-0.3 	c0.1-0.1,0.3-0.1,0.4-0.1c0.3,0,0.5,0.1,0.7,0.3c0.3,0.3,0.3,0.8,0.1,1.1c-1.6,2.4-3.8,4.1-6.7,4.7c0,0-1,0.2-1.2-0.7 	C38.8,24.9,39.8,24.7,39.8,24.7z"/></svg>
