<svg version="1.1" xmlns="http://www.w3.org/2000/svg" xmlns:xlink="http://www.w3.org/1999/xlink" viewBox="0 0 48 48" style="enable-background:new 0 0 48 48;" xml:space="preserve"><path  d="M15,44.4c-0.2,0-0.4-0.1-0.5-0.2C14,44,13.9,43.5,14.1,43l2.6-6.2H15c-0.3,0-0.6-0.2-0.8-0.4 	c-0.2-0.3-0.2-0.6-0.1-0.9l3.2-8.8c0.1-0.4,0.5-0.6,0.9-0.6H25c0.4,0,0.7,0.2,0.9,0.5c0.2,0.3,0.2,0.7,0,1l-3,4.9l1.5,0 	c0.4,0,0.7,0.2,0.9,0.6c0.2,0.4,0.1,0.8-0.2,1.1l-9.3,10C15.5,44.3,15.3,44.4,15,44.4z M18.2,34.8c0.3,0,0.6,0.2,0.8,0.4 	c0.2,0.3,0.2,0.6,0.1,0.9l-1,2.4l3.9-4.2l-1,0c-0.4,0-0.7-0.2-0.9-0.5c-0.2-0.3-0.2-0.7,0-1l3-4.9h-4.3l-2.5,6.9H18.2z"/><path  d="M27.7,33.2c-0.3,0-0.5-0.1-0.7-0.3c-0.2-0.2-0.3-0.4-0.3-0.7c0-0.6,0.4-1,1-1l8.9,0c1.9,0,3.4-1.5,3.4-3.5 	c0-1.9-1.5-3.4-3.5-3.4h-0.9c-0.6,0-1-0.4-1-1c0-2.8-1.9-4.7-4.7-4.7c-0.7,0-1.3,0.1-1.9,0.4c-0.1,0-0.2,0.1-0.4,0.1 	c-0.1,0-0.3,0-0.4-0.1c-0.3-0.1-0.4-0.3-0.5-0.6c-0.8-2.6-3.2-4.4-5.8-4.4c-3.4,0-6.1,2.7-6.1,6.1c0,0.2,0,0.4,0,0.6 	c0,0.3-0.1,0.6-0.3,0.8c-0.2,0.2-0.5,0.3-0.7,0.3h-0.9C10.2,21.8,8,24,8,26.6c0,2.6,2.1,4.5,4.8,4.5c0.6,0,1,0.4,1,1 	c0,0.6-0.4,1-1,1c-3.9,0-6.8-2.8-6.8-6.5c0-3.7,3-6.8,6.7-6.8c0.1-4.3,3.7-7.8,8.1-7.8c3.2,0,6.1,1.9,7.4,4.8 	c0.5-0.1,1.1-0.2,1.7-0.2c1.8,0,3.4,0.6,4.7,1.7c1.1,1,1.8,2.4,2,4h0c3,0,5.5,2.4,5.5,5.5s-2.4,5.5-5.5,5.5L27.7,33.2z"/><path  d="M25.6,40.7c-0.2,0-0.3,0-0.4-0.1c-0.2-0.1-0.4-0.3-0.5-0.6c-0.1-0.2-0.1-0.5,0-0.8l1.8-3.7 	c0.2-0.3,0.5-0.6,0.9-0.6c0.2,0,0.3,0,0.4,0.1c0.5,0.2,0.7,0.8,0.5,1.3l-1.8,3.7C26.3,40.5,26,40.7,25.6,40.7z"/><path  d="M28.2,43.9c-0.2,0-0.3,0-0.4-0.1c-0.2-0.1-0.4-0.3-0.5-0.6c-0.1-0.2-0.1-0.5,0-0.8l3.3-6.7 	c0.2-0.3,0.5-0.6,0.9-0.6c0.2,0,0.3,0,0.4,0.1c0.2,0.1,0.4,0.3,0.5,0.6c0.1,0.2,0.1,0.5,0,0.8l-3.3,6.7 	C28.9,43.6,28.6,43.9,28.2,43.9z"/><path  d="M33,41.8c-0.2,0-0.3,0-0.4-0.1c-0.2-0.1-0.4-0.3-0.5-0.6c-0.1-0.2-0.1-0.5,0-0.8l2.3-4.7 	c0.2-0.3,0.5-0.6,0.9-0.6c0.2,0,0.3,0,0.4,0.1c0.2,0.1,0.4,0.3,0.5,0.6s0.1,0.5,0,0.8l-2.3,4.7C33.8,41.6,33.4,41.8,33,41.8z"/></svg>
