<svg version="1.1" xmlns="http://www.w3.org/2000/svg" xmlns:xlink="http://www.w3.org/1999/xlink" viewBox="0 0 48 48" style="enable-background:new 0 0 48 48;" xml:space="preserve">
		<path class="st0" d="M27,23.3c-3.3,0-6-2.7-6-6c0-5,5.1-9.6,5.3-9.8L27,7l0.7,0.6c0.2,0.2,5.3,4.7,5.3,9.8
			C33,20.6,30.3,23.3,27,23.3z M27,9.7c-1.3,1.3-4,4.4-4,7.6c0,2.2,1.8,4,4,4c2.2,0,4-1.8,4-4C31,14.2,28.3,11,27,9.7z"/>
		<path class="st0" d="M17,35.3c-3.3,0-6-2.7-6-6c0-5,5.1-9.6,5.3-9.8L17,19l0.7,0.6c0.2,0.2,5.3,4.7,5.3,9.8
			C23,32.6,20.3,35.3,17,35.3z M17,21.7c-1.3,1.3-4,4.4-4,7.6c0,2.2,1.8,4,4,4c2.2,0,4-1.8,4-4C21,26.2,18.3,23,17,21.7z"/>
		<path class="st0" d="M31,41.3c-3.3,0-6-2.7-6-6c0-5,5.1-9.6,5.3-9.8L31,25l0.7,0.6c0.2,0.2,5.3,4.7,5.3,9.8
			C37,38.6,34.3,41.3,31,41.3z M31,27.7c-1.3,1.3-4,4.4-4,7.6c0,2.2,1.8,4,4,4c2.2,0,4-1.8,4-4C35,32.2,32.3,29,31,27.7z"/>
</svg>
