<svg xmlns="http://www.w3.org/2000/svg" viewBox="0 0 48 48">
<style type="text/css">
	.st0{fill:none;}
</style><path class="st0" d="M24,32c5.9,0,11.1-3.2,13.8-8c-2.8-4.8-7.9-8-13.8-8s-11.1,3.2-13.8,8C12.9,28.8,18.1,32,24,32z"/><path d="M38.9,21.9C35.6,17.1,30.2,14,24,14c-6.2,0-11.6,3.1-14.9,7.9c-0.5,0.7-0.9,1.4-1.2,2.1
				c0.4,0.7,0.8,1.5,1.2,2.1C12.4,30.9,17.8,34,24,34s11.6-3.1,14.9-7.9c0.5-0.7,0.9-1.4,1.2-2.1C39.7,23.3,39.3,22.5,38.9,21.9z
				 M24,32c-5.9,0-11.1-3.2-13.8-8c2.8-4.8,7.9-8,13.8-8s11.1,3.2,13.8,8C35.1,28.8,29.9,32,24,32z"/><path d="M24,29c-2.8,0-5-2.2-5-5s2.2-5,5-5s5,2.2,5,5S26.8,29,24,29z M24,21c-1.7,0-3,1.3-3,3s1.3,3,3,3s3-1.3,3-3
			S25.7,21,24,21z"/></svg>
