<svg xmlns="http://www.w3.org/2000/svg" viewBox="0 0 48 48"><path d="M22.4,21.2c2.9,0,5.2-2.3,5.2-5.2c0-2.8-2.2-5-5-5c-1.7,0-3.2,0.8-4.1,2.2c-0.3,0.5-0.2,1.1,0.3,1.4 c0.2,0.1,0.4,0.2,0.6,0.2c0.3,0,0.7-0.2,0.8-0.4c0.6-0.8,1.5-1.3,2.5-1.3c1.6,0,3,1.3,3,3c0,1.8-1.4,3.2-3.2,3.2H11c-0.6,0-1,0.5-1,1c0,0.6,0.5,1,1,1H22.4z"/><path d="M33.4,24.9c2.5,0,4.6-2.1,4.6-4.6c0-2.4-2-4.4-4.4-4.4c-1.5,0-2.8,0.7-3.7,2c-0.3,0.5-0.2,1.1,0.3,1.4c0.2,0.1,0.4,0.2,0.6,0.2c0.3,0,0.7-0.2,0.8-0.4c0.4-0.7,1.2-1.1,2-1.1c1.3,0,2.4,1.1,2.4,2.4c0,1.4-1.2,2.6-2.6,2.6H11c-0.6,0-1,0.5-1,1c0,0.6,0.5,1,1,1H33.4z"/><path d="M19.7,37c0.2,0,0.3,0,0.5-0.1c1.7-0.9,2.8-2.7,2.8-4.7c0-3.1-2.5-5.5-5.5-5.5H11c-0.6,0-1,0.5-1,1c0,0.6,0.5,1,1,1h6.5c1.9,0,3.5,1.6,3.5,3.5c0,1.2-0.7,2.3-1.7,2.9c-0.5,0.3-0.7,0.9-0.4,1.4C19,36.8,19.4,37,19.7,37z"/><path d="M27.9,34.7c2.2,0,4-1.8,4-4c0-2.3-1.8-4.1-4.1-4.1h-4.4c-0.6,0-1,0.5-1,1c0,0.6,0.5,1,1,1h4.4c1.2,0,2.1,0.9,2.1,2.1c0,1.1-0.9,1.9-1.9,1.9c-0.7,0-1.4-0.4-1.7-1.1c-0.2-0.3-0.5-0.6-0.9-0.6c-0.2,0-0.3,0-0.5,0.1c-0.5,0.3-0.7,0.9-0.4,1.4C25,33.9,26.4,34.7,27.9,34.7z"/></svg>
